{
.appVersion = "3414";
.formatVersion = 3;
customParameters = (
{
name = panose;
value = (
2,
0,
5,
5,
5,
0,
0,
2,
0,
4
);
},
{
name = unicodeRanges;
value = (
0
);
},
{
name = fsType;
value = (
2
);
},
{
name = glyphOrder;
value = (
.notdef,
.null,
CR,
space,
numbersign,
dollar,
percent,
ampersand,
quotesingle,
parenleft,
parenright,
asterisk,
plus,
comma,
hyphen,
period,
slash,
zero,
one,
two,
three,
four,
five,
six,
seven,
eight,
nine,
colon,
semicolon,
less,
equal,
greater,
question,
at,
A,
B,
C,
D,
E,
F,
G,
H,
I,
J,
K,
L,
M,
N,
O,
P,
Q,
R,
S,
T,
U,
V,
W,
X,
Y,
Z,
bracketleft,
backslash,
bracketright,
asciicircum,
underscore,
grave,
a,
b,
c,
d,
e,
f,
g,
h,
i,
j,
k,
l,
m,
n,
o,
p,
q,
r,
s,
t,
u,
v,
w,
x,
y,
z,
braceleft,
bar,
braceright,
asciitilde,
uni00A0,
exclamdown,
cent,
sterling,
currency,
yen,
brokenbar,
section,
dieresis,
copyright,
ordfeminine,
guillemotleft,
logicalnot,
registered,
macron,
degree,
plusminus,
twosuperior,
threesuperior,
acute,
mu,
paragraph,
periodcentered,
cedilla,
onesuperior,
ordmasculine,
guillemotright,
onequarter,
onehalf,
threequarters,
questiondown,
Agrave,
Aacute,
Acircumflex,
Atilde,
Adieresis,
Aring,
AE,
Ccedilla,
Egrave,
Eacute,
Ecircumflex,
Edieresis,
Igrave,
Iacute,
Icircumflex,
Idieresis,
Eth,
Ntilde,
Ograve,
Oacute,
Ocircumflex,
Otilde,
Odieresis,
multiply,
Oslash,
Ugrave,
Uacute,
Ucircumflex,
Udieresis,
Yacute,
Thorn,
germandbls,
agrave,
aacute,
acircumflex,
atilde,
adieresis,
aring,
ae,
ccedilla,
egrave,
eacute,
ecircumflex,
edieresis,
igrave,
iacute,
icircumflex,
idieresis,
eth,
ntilde,
ograve,
oacute,
ocircumflex,
otilde,
odieresis,
divide,
oslash,
ugrave,
uacute,
ucircumflex,
udieresis,
yacute,
thorn,
ydieresis,
dotlessi,
Lslash.013,
lslash,
OE,
oe,
Scaron,
scaron,
Ydieresis,
Zcaron,
zcaron,
florin,
circumflex,
caron,
breve,
dotaccent,
ring,
ogonek,
tilde,
hungarumlaut,
Omega,
pi,
endash,
emdash,
quoteleft,
quoteright,
quotesinglbase,
quotedblleft,
quotedblright,
quotedblbase,
dagger,
daggerdbl,
bullet,
ellipsis,

glyphs = (
{
glyphname = numbersign;
lastChange = "2025-05-29 09:07:02 +0000";
layers = (
{
layerId = m01;
shapes = (
{
closed = 1;
nodes = (
(518,452.333,o),
(515.333,455,o),
(510,455,cs),
(404,455,l),
(407.333,503,o),
(410.333,542.833,o),
(413,574.5,cs),
(415.667,606.167,o),
(417,623.333,o),
(417,626,cs),
(417,644.667,o),
(395.667,652,o),
(373,652,cs),
(363.667,652,o),
(363,650.333,o),
(363,645,cs),
(361.667,627.667,o),
(360.333,602.167,o),
(359,568.5,cs),
(357.667,534.833,o),
(356,497,o),
(354,455,c),
(194,455,l),
(197.333,503,o),
(200.333,542.833,o),
(203,574.5,cs),
(205.667,606.167,o),
(207,623.333,o),
(207,626,cs),
(207,644.667,o),
(184.667,652,o),
(162,652,cs),
(155.333,652,o),
(152,649.667,o),
(152,645,cs),
(151.333,627.667,o),
(150.167,602.167,o),
(148.5,568.5,cs),
(146.833,534.833,o),
(145.333,497,o),
(144,455,c),
(57,455,ls),
(39.667,455,o),
(34,436.667,o),
(34,418,cs),
(34,413.333,o),
(36.667,411,o),
(42,411,cs),
(144,411,l),
(134,241,l),
(42,241,ls),
(24.667,241,o),
(19,222.667,o),
(19,204,cs),
(19,198.667,o),
(21.333,196,o),
(26,196,cs),
(134,196,l),
(124.813,79.635,o),
(122,18.877,o),
(122,14,cs),
(122,-4.667,o),
(143.333,-13,o),
(166,-13,cs),
(175.333,-13,o),
(176,-10.333,o),
(176,-5,cs),
(176,51,o),
(179,121.333,o),
(183,196,c),
(344,196,l),
(337.349,69.633,o),
(332,35.877,o),
(332,14,cs),
(332,-4.667,o),
(354.333,-13,o),
(377,-13,cs),
(383.667,-13,o),
(387,-10.333,o),
(387,-5,cs),
(387,51,o),
(389,121.333,o),
(393,196,c),
(480,196,ls),
(496,196,o),
(503,214.333,o),
(503,233,cs),
(503,238.333,o),
(500.333,241,o),
(495,241,cs),
(393,241,l),
(395.667,301,o),
(399,357.667,o),
(403,411,c),
(495,411,ls),
(511,411,o),
(518,428.333,o),
(518,447,cs)
);
},
{
closed = 1;
nodes = (
(345,238,l),
(181,238,l),
(191,413,l),
(355,413,l),
(355,413,l)
);
}
);
userData = {
assembly = "PUSHW[ ]	/* 1 value pushed */
88
MDAP[1]	/* MoveDirectAbsPt */
PUSHW[ ]	/* 1 value pushed */
22
MDAP[1]	/* MoveDirectAbsPt */
NPUSHW[ ]	/* 5 values pushed */
74 22 90 22 2
DELTAP2[ ]	/* DeltaExceptionP2 */
NPUSHW[ ]	/* 33 values pushed */
9 22 25 22 41 22 57 22 73 22 89 22 105 22 121 22 137 22 153 22 169 22 185 22 201 22 217 22 233 22 249 22 16
DELTAP1[ ]	/* DeltaExceptionP1 */
NPUSHW[ ]	/* 9 values pushed */
9 22 25 22 41 22 57 22 4
DELTAP2[ ]	/* DeltaExceptionP2 */
PUSHW[ ]	/* 2 values pushed */
17 3
MIRP[10100]	/* MoveIndirectRelPt */
PUSHW[ ]	/* 1 value pushed */
7
MDRP[10000]	/* MoveDirectRelPt */
PUSHW[ ]	/* 1 value pushed */
7
MDAP[1]	/* MoveDirectAbsPt */
PUSHW[ ]	/* 1 value pushed */
17
SRP0[ ]	/* SetRefPoint0 */
PUSHW[ ]	/* 1 value pushed */
14
MDRP[10000]	/* MoveDirectRelPt */
PUSHW[ ]	/* 1 value pushed */
14
MDAP[1]	/* MoveDirectAbsPt */
PUSHW[ ]	/* 1 value pushed */
88
SRP0[ ]	/* SetRefPoint0 */
PUSHW[ ]	/* 1 value pushed */
60
MDRP[10000]	/* MoveDirectRelPt */
PUSHW[ ]	/* 1 value pushed */
60
MDAP[1]	/* MoveDirectAbsPt */
PUSHW[ ]	/* 2 values pushed */
65 3
MIRP[10100]	/* MoveIndirectRelPt */
NPUSHW[ ]	/* 33 values pushed */
6 65 22 65 38 65 54 65 70 65 86 65 102 65 118 65 134 65 150 65 166 65 182 65 198 65 214 65 230 65 246 65 16
DELTAP1[ ]	/* DeltaExceptionP1 */
NPUSHW[ ]	/* 9 values pushed */
6 65 22 65 38 65 54 65 4
DELTAP2[ ]	/* DeltaExceptionP2 */
NPUSHW[ ]	/* 5 values pushed */
69 65 85 65 2
DELTAP2[ ]	/* DeltaExceptionP2 */
SVTCA[0]	/* SetFreedomAndProjectionVectorToAxis */
PUSHW[ ]	/* 1 value pushed */
0
RCVT[ ]	/* ReadCVT */
IF[ ]	/* If */
PUSHW[ ]	/* 1 value pushed */
19
MDAP[1]	/* MoveDirectAbsPt */
ELSE[ ]	/* Else */
PUSHW[ ]	/* 2 values pushed */
19 5
MIAP[0]	/* MoveIndirectAbsPt */
EIF[ ]	/* EndIf */
PUSHW[ ]	/* 1 value pushed */
0
RCVT[ ]	/* ReadCVT */
IF[ ]	/* If */
PUSHW[ ]	/* 1 value pushed */
34
MDAP[1]	/* MoveDirectAbsPt */
ELSE[ ]	/* Else */
PUSHW[ ]	/* 2 values pushed */
34 5
MIAP[0]	/* MoveIndirectAbsPt */
EIF[ ]	/* EndIf */
PUSHW[ ]	/* 4 values pushed */
86 1 27 4
CALL[ ]	/* CallFunction */
PUSHW[ ]	/* 4 values pushed */
82 1 3 4
CALL[ ]	/* CallFunction */
PUSHW[ ]	/* 1 value pushed */
86
SRP0[ ]	/* SetRefPoint0 */
PUSHW[ ]	/* 1 value pushed */
7
MDRP[10000]	/* MoveDirectRelPt */
PUSHW[ ]	/* 1 value pushed */
7
MDAP[1]	/* MoveDirectAbsPt */
PUSHW[ ]	/* 1 value pushed */
27
SRP0[ ]	/* SetRefPoint0 */
PUSHW[ ]	/* 1 value pushed */
13
MDRP[10000]	/* MoveDirectRelPt */
PUSHW[ ]	/* 1 value pushed */
27
SRP0[ ]	/* SetRefPoint0 */
PUSHW[ ]	/* 1 value pushed */
42
MDRP[10000]	/* MoveDirectRelPt */
PUSHW[ ]	/* 1 value pushed */
86
SRP0[ ]	/* SetRefPoint0 */
PUSHW[ ]	/* 1 value pushed */
48
MDRP[10000]	/* MoveDirectRelPt */
PUSHW[ ]	/* 1 value pushed */
48
MDAP[1]	/* MoveDirectAbsPt */
PUSHW[ ]	/* 1 value pushed */
3
SRP0[ ]	/* SetRefPoint0 */
PUSHW[ ]	/* 1 value pushed */
50
MDRP[10000]	/* MoveDirectRelPt */
PUSHW[ ]	/* 1 value pushed */
82
SRP0[ ]	/* SetRefPoint0 */
PUSHW[ ]	/* 1 value pushed */
56
MDRP[10000]	/* MoveDirectRelPt */
PUSHW[ ]	/* 1 value pushed */
82
SRP0[ ]	/* SetRefPoint0 */
PUSHW[ ]	/* 1 value pushed */
68
MDRP[10000]	/* MoveDirectRelPt */
PUSHW[ ]	/* 1 value pushed */
3
SRP0[ ]	/* SetRefPoint0 */
PUSHW[ ]	/* 1 value pushed */
84
MDRP[10000]	/* MoveDirectRelPt */
PUSHW[ ]	/* 1 value pushed */
84
MDAP[1]	/* MoveDirectAbsPt */
IUP[0]	/* InterpolateUntPts */
IUP[1]	/* InterpolateUntPts */";
};
width = 537;
}
);
note = numbersign;
unicode = 35;
},
{
glyphname = dollar;
lastChange = "2025-05-29 09:07:02 +0000";
layers = (
{
layerId = m01;
shapes = (
{
closed = 1;
nodes = (
(445,578.667,o),
(443.667,586.333,o),
(437,593,cs),
(406.333,626.333,o),
(361.333,644.667,o),
(316,650,c),
(318.667,686.667,o),
(321,717,o),
(323,741,cs),
(325,765,o),
(326,778,o),
(326,780,cs),
(326,798.667,o),
(304.667,806,o),
(282,806,cs),
(276,806,o),
(273,803.667,o),
(273,799,cs),
(272.333,785,o),
(271.5,765,o),
(270.5,739,cs),
(269.5,713,o),
(268.333,683.667,o),
(267,651,c),
(159.817,640.543,o),
(116,563.756,o),
(116,487,cs),
(116,433.667,o),
(139,397.667,o),
(171,367,cs),
(214.727,325.702,o),
(305.944,273.829,o),
(342,235,cs),
(366,208.333,o),
(382,179.667,o),
(382,141,cs),
(382,61.882,o),
(309.803,29,o),
(267,29,cs),
(197.494,29,o),
(144.371,62.299,o),
(115,89,cs),
(105.667,97,o),
(98.833,103.667,o),
(94.5,109,cs),
(90.167,114.333,o),
(87,117,o),
(85,117,cs),
(74.489,117,o),
(70,77.565,o),
(70,68,cs),
(70,62.667,o),
(71.333,51.667,o),
(78,45,cs),
(108.667,15.667,o),
(158.333,-10.333,o),
(237,-13,c),
(234.333,-49,o),
(232.333,-78.5,o),
(231,-101.5,cs),
(229.667,-124.5,o),
(229,-137,o),
(229,-139,cs),
(229,-157.667,o),
(250.667,-166,o),
(272,-166,cs),
(280,-166,o),
(281,-163.333,o),
(281,-158,cs),
(281,-115.333,o),
(282.333,-64,o),
(285,-8,c),
(362.647,11.412,o),
(438,77.355,o),
(438,175,cs),
(438,217.667,o),
(420,251.333,o),
(388,282,cs),
(350.712,319.288,o),
(258.449,371.551,o),
(221,409,cs),
(190.333,439.667,o),
(175,473.333,o),
(175,510,cs),
(175,583.656,o),
(228.165,613,o),
(267,613,cs),
(338.778,613,o),
(379.548,575.452,o),
(405,550,cs),
(411,544,o),
(415.833,539,o),
(419.5,535,cs),
(423.167,531,o),
(426.667,529,o),
(430,529,cs),
(440,529,o),
(445,543.333,o),
(445,572,cs)
);
}
);
userData = {
assembly = "PUSHW[ ]	/* 4 values pushed */
90 4 85 4
CALL[ ]	/* CallFunction */
NPUSHW[ ]	/* 5 values pushed */
74 85 90 85 2
DELTAP2[ ]	/* DeltaExceptionP2 */
NPUSHW[ ]	/* 33 values pushed */
9 85 25 85 41 85 57 85 73 85 89 85 105 85 121 85 137 85 153 85 169 85 185 85 201 85 217 85 233 85 249 85 16
DELTAP1[ ]	/* DeltaExceptionP1 */
NPUSHW[ ]	/* 9 values pushed */
9 85 25 85 41 85 57 85 4
DELTAP2[ ]	/* DeltaExceptionP2 */
PUSHW[ ]	/* 1 value pushed */
85
SRP0[ ]	/* SetRefPoint0 */
PUSHW[ ]	/* 1 value pushed */
82
MDRP[10000]	/* MoveDirectRelPt */
PUSHW[ ]	/* 1 value pushed */
82
MDAP[1]	/* MoveDirectAbsPt */
SVTCA[0]	/* SetFreedomAndProjectionVectorToAxis */
PUSHW[ ]	/* 1 value pushed */
0
RCVT[ ]	/* ReadCVT */
IF[ ]	/* If */
PUSHW[ ]	/* 1 value pushed */
36
MDAP[1]	/* MoveDirectAbsPt */
ELSE[ ]	/* Else */
PUSHW[ ]	/* 2 values pushed */
36 5
MIAP[0]	/* MoveIndirectAbsPt */
EIF[ ]	/* EndIf */
PUSHW[ ]	/* 3 values pushed */
87 10 3
CALL[ ]	/* CallFunction */
IUP[0]	/* InterpolateUntPts */
IUP[1]	/* InterpolateUntPts */";
};
width = 550;
}
);
note = dollar;
unicode = 36;
},
{
glyphname = percent;
lastChange = "2025-05-29 09:07:02 +0000";
layers = (
{
layerId = m01;
shapes = (
{
closed = 1;
nodes = (
(832,312.333,o),
(775.333,364,o),
(694,364,cs),
(578,364,o),
(523,282.333,o),
(523,145,cs),
(523,38.333,o),
(582,-13,o),
(662,-13,cs),
(776.667,-13,o),
(832,71,o),
(832,207,cs)
);
},
{
closed = 1;
nodes = (
(691,661.667,o),
(670.667,675,o),
(652,675,cs),
(644,675,o),
(637,670,o),
(631,660,cs),
(488.333,441.333,o),
(347.333,228,o),
(202,8,cs),
(198.667,2.667,o),
(196.5,-1,o),
(195.5,-3,cs),
(194.5,-5,o),
(194,-7.333,o),
(194,-10,cs),
(194,-20.667,o),
(214.333,-34,o),
(233,-34,cs),
(241,-34,o),
(248,-29,o),
(254,-19,cs),
(300.177,54.883,o),
(395.8,203.99,o),
(474.5,321.5,cs),
(577.772,475.7,o),
(665.091,610.121,o),
(680,630,cs),
(685.333,637.333,o),
(688.5,642.333,o),
(689.5,645,cs),
(690.5,647.667,o),
(691,649.667,o),
(691,651,cs)
);
},
{
closed = 1;
nodes = (
(363,601.667,o),
(305.333,652,o),
(224,652,cs),
(109.333,652,o),
(53,570.333,o),
(53,433,cs),
(53,326.333,o),
(111.667,276,o),
(193,276,cs),
(307.667,276,o),
(363,357.667,o),
(363,495,cs)
);
},
{
closed = 1;
nodes = (
(773,93.667,o),
(736.667,19,o),
(666,19,cs),
(615.333,19,o),
(582,71,o),
(582,147,cs),
(582,253.443,o),
(615.734,331,o),
(689,331,cs),
(741,331,o),
(773,280.333,o),
(773,203,cs)
);
},
{
closed = 1;
nodes = (
(304,383,o),
(266.667,307,o),
(196,307,cs),
(145.333,307,o),
(112,360,o),
(112,436,cs),
(112,545.333,o),
(148.333,620,o),
(219,620,cs),
(271,620,o),
(304,568.333,o),
(304,491,cs)
);
}
);
userData = {
assembly = "SVTCA[0]	/* SetFreedomAndProjectionVectorToAxis */
PUSHW[ ]	/* 1 value pushed */
0
RCVT[ ]	/* ReadCVT */
IF[ ]	/* If */
PUSHW[ ]	/* 1 value pushed */
26
MDAP[1]	/* MoveDirectAbsPt */
ELSE[ ]	/* Else */
PUSHW[ ]	/* 2 values pushed */
26 5
MIAP[0]	/* MoveIndirectAbsPt */
EIF[ ]	/* EndIf */
PUSHW[ ]	/* 2 values pushed */
3 2
MIRP[10100]	/* MoveIndirectRelPt */
NPUSHW[ ]	/* 33 values pushed */
7 3 23 3 39 3 55 3 71 3 87 3 103 3 119 3 135 3 151 3 167 3 183 3 199 3 215 3 231 3 247 3 16
DELTAP1[ ]	/* DeltaExceptionP1 */
NPUSHW[ ]	/* 31 values pushed */
7 3 23 3 39 3 55 3 71 3 87 3 103 3 119 3 135 3 151 3 167 3 183 3 199 3 215 3 231 3 15
DELTAP2[ ]	/* DeltaExceptionP2 */
NPUSHW[ ]	/* 3 values pushed */
246 3 1
DELTAP2[ ]	/* DeltaExceptionP2 */
NPUSHW[ ]	/* 3 values pushed */
6 3 1
DELTAP3[ ]	/* DeltaExceptionP3 */
IUP[0]	/* InterpolateUntPts */
IUP[1]	/* InterpolateUntPts */";
};
width = 885;
}
);
note = percent;
unicode = 37;
},
{
glyphname = ampersand;
lastChange = "2025-05-29 09:07:02 +0000";
layers = (
{
layerId = m01;
shapes = (
{
closed = 1;
nodes = (
(599,282.333,o),
(584.333,325,o),
(555,341,c),
(495,341,l),
(595.781,453.234,o),
(635.909,492.909,o),
(671,528,cs),
(676.333,533.333,o),
(685,544,o),
(685,548,cs),
(685,560,o),
(676.667,572.333,o),
(666,583,cs),
(662,587,o),
(658.667,589,o),
(656,589,cs),
(654.667,589,o),
(651,585.333,o),
(645,578,cs),
(629.26,560.511,o),
(569.787,494.988,o),
(466.5,381.5,cs),
(365.022,270,o),
(312.512,212.512,o),
(309,209,cs),
(303.667,203,o),
(300.167,198.833,o),
(298.5,196.5,cs),
(296.833,194.167,o),
(296,191.667,o),
(296,189,cs),
(296,175.667,o),
(307,159.667,o),
(319,149,cs),
(323,146.333,o),
(325,145,o),
(325,145,c),
(326.333,145,o),
(329.667,148.333,o),
(335,155,cs),
(389.667,220.333,o),
(436.667,275,o),
(486,331,c),
(517.426,328.381,o),
(549,269.182,o),
(549,214,cs),
(549,121.756,o),
(475.598,25,o),
(315,25,cs),
(163.733,25,o),
(93,117.067,o),
(93,203,cs),
(93,287.249,o),
(147.464,352,o),
(270,352,cs),
(276.667,352,o),
(283,359.667,o),
(283,369,cs),
(283,387.667,o),
(277.667,394,o),
(267,394,cs),
(236.098,394,o),
(164,436.272,o),
(164,515,cs),
(164,567.426,o),
(207.567,617,o),
(278,617,cs),
(339.333,617,o),
(374.333,593.333,o),
(409,560,cs),
(412.333,557.333,o),
(415.167,555,o),
(417.5,553,cs),
(419.833,551,o),
(421.667,550,o),
(423,550,cs),
(431.667,550,o),
(436,560.667,o),
(436,582,cs),
(436,591.333,o),
(436.333,600,o),
(427,608,cs),
(401.667,630.667,o),
(348.667,652,o),
(282,652,cs),
(193.122,652,o),
(105,612.514,o),
(105,519,cs),
(105,440.333,o),
(150.333,397,o),
(205,377,c),
(105.733,377,o),
(33,310.6,o),
(33,222,cs),
(33,103.821,o),
(118.215,-13,o),
(305,-13,cs),
(422.333,-13,o),
(496,26.333,o),
(540,77,cs),
(584,127.667,o),
(599,189,o),
(599,233,cs)
);
}
);
userData = {
assembly = "PUSHW[ ]	/* 1 value pushed */
112
MDAP[1]	/* MoveDirectAbsPt */
PUSHW[ ]	/* 1 value pushed */
68
MDAP[1]	/* MoveDirectAbsPt */
NPUSHW[ ]	/* 5 values pushed */
74 68 90 68 2
DELTAP2[ ]	/* DeltaExceptionP2 */
NPUSHW[ ]	/* 33 values pushed */
9 68 25 68 41 68 57 68 73 68 89 68 105 68 121 68 137 68 153 68 169 68 185 68 201 68 217 68 233 68 249 68 16
DELTAP1[ ]	/* DeltaExceptionP1 */
NPUSHW[ ]	/* 9 values pushed */
9 68 25 68 41 68 57 68 4
DELTAP2[ ]	/* DeltaExceptionP2 */
PUSHW[ ]	/* 2 values pushed */
0 4
MIRP[10100]	/* MoveIndirectRelPt */
PUSHW[ ]	/* 1 value pushed */
112
SRP0[ ]	/* SetRefPoint0 */
PUSHW[ ]	/* 1 value pushed */
18
MDRP[10000]	/* MoveDirectRelPt */
PUSHW[ ]	/* 1 value pushed */
18
MDAP[1]	/* MoveDirectAbsPt */
PUSHW[ ]	/* 3 values pushed */
15 18 0
SRP1[ ]	/* SetRefPoint1 */
SRP2[ ]	/* SetRefPoint2 */
IP[ ]	/* InterpolatePts */
PUSHW[ ]	/* 2 values pushed */
42 3
MIRP[10100]	/* MoveIndirectRelPt */
NPUSHW[ ]	/* 33 values pushed */
6 42 22 42 38 42 54 42 70 42 86 42 102 42 118 42 134 42 150 42 166 42 182 42 198 42 214 42 230 42 246 42 16
DELTAP1[ ]	/* DeltaExceptionP1 */
NPUSHW[ ]	/* 9 values pushed */
6 42 22 42 38 42 54 42 4
DELTAP2[ ]	/* DeltaExceptionP2 */
NPUSHW[ ]	/* 5 values pushed */
69 42 85 42 2
DELTAP2[ ]	/* DeltaExceptionP2 */
PUSHW[ ]	/* 1 value pushed */
68
SRP0[ ]	/* SetRefPoint0 */
PUSHW[ ]	/* 1 value pushed */
109
MDRP[10000]	/* MoveDirectRelPt */
PUSHW[ ]	/* 1 value pushed */
109
MDAP[1]	/* MoveDirectAbsPt */
PUSHW[ ]	/* 1 value pushed */
0
SRP0[ ]	/* SetRefPoint0 */
PUSHW[ ]	/* 1 value pushed */
113
MDRP[11100]	/* MoveDirectRelPt */
SVTCA[0]	/* SetFreedomAndProjectionVectorToAxis */
PUSHW[ ]	/* 1 value pushed */
0
RCVT[ ]	/* ReadCVT */
IF[ ]	/* If */
PUSHW[ ]	/* 1 value pushed */
5
MDAP[1]	/* MoveDirectAbsPt */
ELSE[ ]	/* Else */
PUSHW[ ]	/* 2 values pushed */
5 5
MIAP[0]	/* MoveIndirectAbsPt */
EIF[ ]	/* EndIf */
PUSHW[ ]	/* 4 values pushed */
23 2 37 4
CALL[ ]	/* CallFunction */
PUSHW[ ]	/* 1 value pushed */
5
SRP0[ ]	/* SetRefPoint0 */
PUSHW[ ]	/* 2 values pushed */
63 2
MIRP[10100]	/* MoveIndirectRelPt */
NPUSHW[ ]	/* 33 values pushed */
7 63 23 63 39 63 55 63 71 63 87 63 103 63 119 63 135 63 151 63 167 63 183 63 199 63 215 63 231 63 247 63 16
DELTAP1[ ]	/* DeltaExceptionP1 */
NPUSHW[ ]	/* 31 values pushed */
7 63 23 63 39 63 55 63 71 63 87 63 103 63 119 63 135 63 151 63 167 63 183 63 199 63 215 63 231 63 15
DELTAP2[ ]	/* DeltaExceptionP2 */
NPUSHW[ ]	/* 3 values pushed */
246 63 1
DELTAP2[ ]	/* DeltaExceptionP2 */
NPUSHW[ ]	/* 3 values pushed */
6 63 1
DELTAP3[ ]	/* DeltaExceptionP3 */
IUP[0]	/* InterpolateUntPts */
IUP[1]	/* InterpolateUntPts */";
};
width = 666;
}
);
note = ampersand;
unicode = 38;
},
{
glyphname = quotesingle;
lastChange = "2025-05-29 09:07:02 +0000";
layers = (
{
layerId = m01;
shapes = (
{
closed = 1;
nodes = (
(149,650,o),
(139,652,o),
(119,652,cs),
(96.333,652,o),
(85.667,647.333,o),
(83,626,c),
(85.774,644.033,o),
(67,495.981,o),
(67,471,cs),
(67,463.667,o),
(67.833,458.833,o),
(69.5,456.5,cs),
(71.167,454.167,o),
(73.667,453,o),
(77,453,cs),
(81.667,453,o),
(85.667,455.667,o),
(89,461,cs),
(92.333,466.333,o),
(97.667,478.333,o),
(105,497,cs),
(135.147,587.442,o),
(149,626.05,o),
(149,638,cs)
);
}
);
userData = {
assembly = "SVTCA[0]	/* SetFreedomAndProjectionVectorToAxis */
PUSHW[ ]	/* 3 values pushed */
19 8 3
CALL[ ]	/* CallFunction */
IUP[0]	/* InterpolateUntPts */
IUP[1]	/* InterpolateUntPts */";
};
width = 147;
}
);
note = quotesingle;
unicode = 39;
},
{
glyphname = parenleft;
lastChange = "2025-05-29 09:07:02 +0000";
layers = (
{
layerId = m01;
shapes = (
{
closed = 1;
nodes = (
(290,748.667,o),
(276.333,756,o),
(263,756,cs),
(260.333,756,o),
(255.667,752.333,o),
(249,745,cs),
(135.667,623.667,o),
(70,451.333,o),
(70,238,cs),
(70,73.13,o),
(96.954,-48.882,o),
(190,-227,cs),
(195.333,-238.333,o),
(209,-244,o),
(231,-244,cs),
(237.667,-244,o),
(241,-243,o),
(241,-235,cs),
(241,-223.74,o),
(208.372,-176.72,o),
(185,-110.5,cs),
(157,-31.167,o),
(129,85,o),
(129,237,cs),
(129,431.412,o),
(199.702,620.936,o),
(286,736,cs),
(288.667,739.333,o),
(290,741.333,o),
(290,742,cs)
);
}
);
userData = {
assembly = "PUSHW[ ]	/* 4 values pushed */
7 3 22 4
CALL[ ]	/* CallFunction */
NPUSHW[ ]	/* 33 values pushed */
6 7 22 7 38 7 54 7 70 7 86 7 102 7 118 7 134 7 150 7 166 7 182 7 198 7 214 7 230 7 246 7 16
DELTAP1[ ]	/* DeltaExceptionP1 */
NPUSHW[ ]	/* 9 values pushed */
6 7 22 7 38 7 54 7 4
DELTAP2[ ]	/* DeltaExceptionP2 */
NPUSHW[ ]	/* 5 values pushed */
69 7 85 7 2
DELTAP2[ ]	/* DeltaExceptionP2 */
SVTCA[0]	/* SetFreedomAndProjectionVectorToAxis */
PUSHW[ ]	/* 4 values pushed */
27 2 2 4
CALL[ ]	/* CallFunction */
IUP[0]	/* InterpolateUntPts */
IUP[1]	/* InterpolateUntPts */";
};
width = 311;
}
);
note = parenleft;
unicode = 40;
},
{
glyphname = parenright;
lastChange = "2025-05-29 09:07:02 +0000";
layers = (
{
layerId = m01;
shapes = (
{
closed = 1;
nodes = (
(242,437.439,o),
(217.637,553.924,o),
(122,737,cs),
(116.667,747.667,o),
(103.667,756,o),
(81,756,cs),
(74.333,756,o),
(71,752.667,o),
(71,746,cs),
(71,734.74,o),
(103.628,687.72,o),
(127,621.5,cs),
(155,542.167,o),
(183,424.667,o),
(183,274,cs),
(183,82.109,o),
(114.267,-104.978,o),
(25,-224,cs),
(22.333,-227.333,o),
(21,-230,o),
(21,-232,cs),
(21,-238.667,o),
(34.333,-244,o),
(49,-244,cs),
(51,-244,o),
(53,-243.5,o),
(55,-242.5,cs),
(57,-241.5,o),
(59.667,-239,o),
(63,-235,cs),
(176.333,-113.667,o),
(242,61,o),
(242,273,cs)
);
}
);
userData = {
assembly = "PUSHW[ ]	/* 4 values pushed */
0 3 16 4
CALL[ ]	/* CallFunction */
NPUSHW[ ]	/* 5 values pushed */
74 16 90 16 2
DELTAP2[ ]	/* DeltaExceptionP2 */
NPUSHW[ ]	/* 33 values pushed */
9 16 25 16 41 16 57 16 73 16 89 16 105 16 121 16 137 16 153 16 169 16 185 16 201 16 217 16 233 16 249 16 16
DELTAP1[ ]	/* DeltaExceptionP1 */
NPUSHW[ ]	/* 9 values pushed */
9 16 25 16 41 16 57 16 4
DELTAP2[ ]	/* DeltaExceptionP2 */
IUP[0]	/* InterpolateUntPts */
IUP[1]	/* InterpolateUntPts */";
};
width = 311;
}
);
note = parenright;
unicode = 41;
},
{
glyphname = asterisk;
lastChange = "2025-05-29 09:07:02 +0000";
layers = (
{
layerId = m01;
shapes = (
{
closed = 1;
nodes = (
(430,643.706,o),
(413.903,676,o),
(406,676,cs),
(404,676,o),
(401.667,675,o),
(399,673,cs),
(344.177,634.624,o),
(316.721,599.732,o),
(259,564,c),
(267.287,644.104,o),
(292,685.7,o),
(292,728,cs),
(292,745.365,o),
(258.486,756,o),
(232,756,cs),
(224,756,o),
(220,752.667,o),
(220,746,cs),
(221.333,718,o),
(222.667,693.333,o),
(224,672,cs),
(225.333,650.667,o),
(226,627.333,o),
(226,602,cs),
(226,596,o),
(226,590,o),
(226,584,cs),
(226,578,o),
(225.667,571.333,o),
(225,564,c),
(163.996,603.785,o),
(135.325,632.768,o),
(79,673,cs),
(75.667,675,o),
(73.333,676,o),
(72,676,cs),
(62.811,676,o),
(49,639.609,o),
(49,627,cs),
(49,618.333,o),
(52,612,o),
(58,608,cs),
(90.292,585.644,o),
(143.609,576.884,o),
(210,540,c),
(140.769,499.801,o),
(84.196,493.13,o),
(60,477,cs),
(54,473,o),
(51,466.667,o),
(51,458,cs),
(51,436.667,o),
(68.667,409,o),
(74,409,cs),
(74.667,409,o),
(76.333,409.667,o),
(79,411,cs),
(143.591,453.124,o),
(163.29,479.774,o),
(222,515,c),
(215.974,440.675,o),
(189,381.393,o),
(189,355,cs),
(189,335.8,o),
(226.511,328,o),
(251,328,cs),
(259,328,o),
(263,330.333,o),
(263,335,cs),
(263,419.093,o),
(254,440.061,o),
(254,516,c),
(312.817,483.918,o),
(339.477,449.167,o),
(398,411,cs),
(400.667,409.667,o),
(402.333,409,o),
(403,409,cs),
(411.793,409,o),
(429,443.521,o),
(429,459,cs),
(429,467,o),
(425.333,473,o),
(418,477,cs),
(371.039,497.872,o),
(356.802,491.76,o),
(272,541,c),
(339.494,579.568,o),
(389.532,584.522,o),
(422,607,cs),
(427.333,610.333,o),
(430,616.333,o),
(430,625,cs)
);
}
);
userData = {
assembly = "PUSHW[ ]	/* 4 values pushed */
26 3 38 4
CALL[ ]	/* CallFunction */
NPUSHW[ ]	/* 33 values pushed */
6 26 22 26 38 26 54 26 70 26 86 26 102 26 118 26 134 26 150 26 166 26 182 26 198 26 214 26 230 26 246 26 16
DELTAP1[ ]	/* DeltaExceptionP1 */
NPUSHW[ ]	/* 9 values pushed */
6 26 22 26 38 26 54 26 4
DELTAP2[ ]	/* DeltaExceptionP2 */
NPUSHW[ ]	/* 5 values pushed */
69 26 85 26 2
DELTAP2[ ]	/* DeltaExceptionP2 */
PUSHW[ ]	/* 3 values pushed */
43 38 26
SRP1[ ]	/* SetRefPoint1 */
SRP2[ ]	/* SetRefPoint2 */
IP[ ]	/* InterpolatePts */
PUSHW[ ]	/* 3 values pushed */
60 38 26
SRP1[ ]	/* SetRefPoint1 */
SRP2[ ]	/* SetRefPoint2 */
IP[ ]	/* InterpolatePts */
PUSHW[ ]	/* 3 values pushed */
79 38 26
SRP1[ ]	/* SetRefPoint1 */
SRP2[ ]	/* SetRefPoint2 */
IP[ ]	/* InterpolatePts */
PUSHW[ ]	/* 1 value pushed */
26
SRP0[ ]	/* SetRefPoint0 */
PUSHW[ ]	/* 1 value pushed */
97
MDRP[10000]	/* MoveDirectRelPt */
PUSHW[ ]	/* 1 value pushed */
97
MDAP[1]	/* MoveDirectAbsPt */
IUP[0]	/* InterpolateUntPts */
IUP[1]	/* InterpolateUntPts */";
};
width = 481;
}
);
note = asterisk;
unicode = 42;
},
{
glyphname = plus;
lastChange = "2025-05-29 09:07:02 +0000";
layers = (
{
layerId = m01;
shapes = (
{
closed = 1;
nodes = (
(514,344.667,o),
(511,349,o),
(505,349,cs),
(303,349,l),
(306.722,388.076,o),
(319,441.48,o),
(319,509,cs),
(319,536.87,o),
(288.071,544,o),
(271,544,cs),
(258.333,544,o),
(252,539.667,o),
(252,531,cs),
(252,524.329,o),
(248.25,460.003,o),
(239,349,c),
(64,349,ls),
(45.333,349,o),
(35,326.667,o),
(35,304,cs),
(35,295.333,o),
(38,291,o),
(44,291,cs),
(236,291,l),
(237.196,303.553,o),
(219,132.066,o),
(219,121,cs),
(219,91.412,o),
(250.983,86,o),
(267,86,cs),
(279.667,86,o),
(286,90.333,o),
(286,99,cs),
(286,105.243,o),
(290.191,173.291,o),
(300,291,c),
(485,291,ls),
(503.667,291,o),
(514,313.333,o),
(514,336,cs)
);
}
);
userData = {
assembly = "PUSHW[ ]	/* 4 values pushed */
9 3 16 4
CALL[ ]	/* CallFunction */
NPUSHW[ ]	/* 33 values pushed */
6 9 22 9 38 9 54 9 70 9 86 9 102 9 118 9 134 9 150 9 166 9 182 9 198 9 214 9 230 9 246 9 16
DELTAP1[ ]	/* DeltaExceptionP1 */
NPUSHW[ ]	/* 9 values pushed */
6 9 22 9 38 9 54 9 4
DELTAP2[ ]	/* DeltaExceptionP2 */
NPUSHW[ ]	/* 5 values pushed */
69 9 85 9 2
DELTAP2[ ]	/* DeltaExceptionP2 */
SVTCA[0]	/* SetFreedomAndProjectionVectorToAxis */
PUSHW[ ]	/* 4 values pushed */
46 1 3 4
CALL[ ]	/* CallFunction */
PUSHW[ ]	/* 1 value pushed */
3
SRP0[ ]	/* SetRefPoint0 */
PUSHW[ ]	/* 1 value pushed */
21
MDRP[10000]	/* MoveDirectRelPt */
PUSHW[ ]	/* 1 value pushed */
46
SRP0[ ]	/* SetRefPoint0 */
PUSHW[ ]	/* 1 value pushed */
27
MDRP[10000]	/* MoveDirectRelPt */
IUP[0]	/* InterpolateUntPts */
IUP[1]	/* InterpolateUntPts */";
};
width = 550;
}
);
note = plus;
unicode = 43;
},
{
glyphname = comma;
lastChange = "2025-05-29 09:07:02 +0000";
layers = (
{
layerId = m01;
shapes = (
{
closed = 1;
nodes = (
(168,94.667,o),
(164.333,103.333,o),
(157,112,cs),
(151,118,o),
(144,121,o),
(136,121,cs),
(132.667,121,o),
(130.333,118.667,o),
(129,114,c),
(100.855,49.266,o),
(50.45,-38.462,o),
(41,-55,cs),
(33.667,-66.333,o),
(30,-72.333,o),
(30,-73,cs),
(30,-76.333,o),
(33.667,-78,o),
(41,-78,cs),
(52.333,-78,o),
(61,-75,o),
(67,-69,cs),
(101.868,-28.768,o),
(168,51.879,o),
(168,86,cs)
);
}
);
userData = {
assembly = "PUSHW[ ]	/* 3 values pushed */
0 9 3
CALL[ ]	/* CallFunction */
NPUSHW[ ]	/* 27 values pushed */
6 0 22 0 38 0 54 0 70 0 86 0 102 0 118 0 134 0 150 0 166 0 182 0 198 0 13
DELTAP1[ ]	/* DeltaExceptionP1 */
NPUSHW[ ]	/* 5 values pushed */
213 0 229 0 2
DELTAP1[ ]	/* DeltaExceptionP1 */
SVTCA[0]	/* SetFreedomAndProjectionVectorToAxis */
PUSHW[ ]	/* 1 value pushed */
0
RCVT[ ]	/* ReadCVT */
IF[ ]	/* If */
PUSHW[ ]	/* 1 value pushed */
7
MDAP[1]	/* MoveDirectAbsPt */
ELSE[ ]	/* Else */
PUSHW[ ]	/* 2 values pushed */
7 5
MIAP[0]	/* MoveIndirectAbsPt */
EIF[ ]	/* EndIf */
PUSHW[ ]	/* 1 value pushed */
0
RCVT[ ]	/* ReadCVT */
IF[ ]	/* If */
PUSHW[ ]	/* 1 value pushed */
9
MDAP[1]	/* MoveDirectAbsPt */
ELSE[ ]	/* Else */
PUSHW[ ]	/* 2 values pushed */
9 5
MIAP[0]	/* MoveIndirectAbsPt */
EIF[ ]	/* EndIf */
IUP[0]	/* InterpolateUntPts */
IUP[1]	/* InterpolateUntPts */";
};
width = 275;
}
);
note = comma;
unicode = 44;
},
{
glyphname = hyphen;
lastChange = "2025-05-29 09:07:02 +0000";
layers = (
{
layerId = m01;
shapes = (
{
closed = 1;
nodes = (
(259,321,o),
(256.667,324,o),
(252,324,cs),
(30,324,ls),
(14,324,o),
(8,300.667,o),
(8,282,cs),
(8,276,o),
(10.333,273,o),
(15,273,cs),
(237,273,ls),
(253,273,o),
(259,295,o),
(259,315,cs)
);
}
);
userData = {
assembly = "PUSHW[ ]	/* 3 values pushed */
0 6 3
CALL[ ]	/* CallFunction */
NPUSHW[ ]	/* 5 values pushed */
218 6 234 6 2
DELTAP1[ ]	/* DeltaExceptionP1 */
NPUSHW[ ]	/* 27 values pushed */
9 6 25 6 41 6 57 6 73 6 89 6 105 6 121 6 137 6 153 6 169 6 185 6 201 6 13
DELTAP1[ ]	/* DeltaExceptionP1 */
SVTCA[0]	/* SetFreedomAndProjectionVectorToAxis */
PUSHW[ ]	/* 4 values pushed */
10 1 3 4
CALL[ ]	/* CallFunction */
IUP[0]	/* InterpolateUntPts */
IUP[1]	/* InterpolateUntPts */";
};
width = 275;
}
);
note = hyphen;
unicode = 45;
},
{
glyphname = period;
lastChange = "2025-05-29 09:07:02 +0000";
layers = (
{
layerId = m01;
shapes = (
{
closed = 1;
nodes = (
(169,74.667,o),
(155.667,91,o),
(141,91,cs),
(125,91,o),
(96,68.333,o),
(96,35,cs),
(96,11.667,o),
(106,0,o),
(126,0,cs),
(152.667,0,o),
(169,18.667,o),
(169,40,cs)
);
}
);
userData = {
assembly = "PUSHW[ ]	/* 4 values pushed */
0 3 5 4
CALL[ ]	/* CallFunction */
NPUSHW[ ]	/* 5 values pushed */
74 5 90 5 2
DELTAP2[ ]	/* DeltaExceptionP2 */
NPUSHW[ ]	/* 33 values pushed */
9 5 25 5 41 5 57 5 73 5 89 5 105 5 121 5 137 5 153 5 169 5 185 5 201 5 217 5 233 5 249 5 16
DELTAP1[ ]	/* DeltaExceptionP1 */
NPUSHW[ ]	/* 9 values pushed */
9 5 25 5 41 5 57 5 4
DELTAP2[ ]	/* DeltaExceptionP2 */
SVTCA[0]	/* SetFreedomAndProjectionVectorToAxis */
PUSHW[ ]	/* 1 value pushed */
0
RCVT[ ]	/* ReadCVT */
IF[ ]	/* If */
PUSHW[ ]	/* 1 value pushed */
3
MDAP[1]	/* MoveDirectAbsPt */
ELSE[ ]	/* Else */
PUSHW[ ]	/* 2 values pushed */
3 5
MIAP[0]	/* MoveIndirectAbsPt */
EIF[ ]	/* EndIf */
PUSHW[ ]	/* 1 value pushed */
8
MDRP[11100]	/* MoveDirectRelPt */
NPUSHW[ ]	/* 27 values pushed */
7 8 23 8 39 8 55 8 71 8 87 8 103 8 119 8 135 8 151 8 167 8 183 8 199 8 13
DELTAP1[ ]	/* DeltaExceptionP1 */
NPUSHW[ ]	/* 5 values pushed */
214 8 230 8 2
DELTAP1[ ]	/* DeltaExceptionP1 */
IUP[0]	/* InterpolateUntPts */
IUP[1]	/* InterpolateUntPts */";
};
width = 275;
}
);
note = period;
unicode = 46;
},
{
glyphname = slash;
lastChange = "2025-05-29 09:07:02 +0000";
layers = (
{
layerId = m01;
shapes = (
{
closed = 1;
nodes = (
(515,661.667,o),
(494.667,675,o),
(476,675,cs),
(468,675,o),
(461,670,o),
(455,660,cs),
(312.333,441.333,o),
(171.333,228,o),
(26,8,cs),
(22.667,2.667,o),
(20.5,-1,o),
(19.5,-3,cs),
(18.5,-5,o),
(18,-7.333,o),
(18,-10,cs),
(18,-20.667,o),
(38.333,-34,o),
(57,-34,cs),
(65,-34,o),
(72,-29,o),
(78,-19,cs),
(124.177,54.883,o),
(219.8,203.99,o),
(298.5,321.5,cs),
(401.772,475.7,o),
(489.091,610.121,o),
(504,630,cs),
(509.333,637.333,o),
(512.5,642.333,o),
(513.5,645,cs),
(514.5,647.667,o),
(515,649.667,o),
(515,651,cs)
);
}
);
userData = {
assembly = "SVTCA[0]	/* SetFreedomAndProjectionVectorToAxis */
PUSHW[ ]	/* 1 value pushed */
0
RCVT[ ]	/* ReadCVT */
IF[ ]	/* If */
PUSHW[ ]	/* 1 value pushed */
14
MDAP[1]	/* MoveDirectAbsPt */
ELSE[ ]	/* Else */
PUSHW[ ]	/* 2 values pushed */
14 5
MIAP[0]	/* MoveIndirectAbsPt */
EIF[ ]	/* EndIf */
IUP[0]	/* InterpolateUntPts */
IUP[1]	/* InterpolateUntPts */";
};
width = 537;
}
);
note = slash;
unicode = 47;
},
{
glyphname = zero;
lastChange = "2025-05-29 09:07:02 +0000";
layers = (
{
layerId = m01;
shapes = (
{
closed = 1;
nodes = (
(497,557.862,o),
(415.221,652,o),
(292,652,cs),
(206.667,652,o),
(142.5,615.667,o),
(100.5,549,cs),
(58.5,482.333,o),
(38,386,o),
(38,266,cs),
(38,74.803,o),
(125.032,-13,o),
(244,-13,cs),
(412.261,-13,o),
(497,129.757,o),
(497,374,cs)
);
},
{
closed = 1;
nodes = (
(437,269,o),
(421,180.5,o),
(389,118.5,cs),
(357,56.5,o),
(309.667,20,o),
(247,20,cs),
(158.134,20,o),
(98,118.604,o),
(98,267,cs),
(98,477.705,o),
(163.267,619,o),
(288,619,cs),
(378.665,619,o),
(437,518.338,o),
(437,373,cs)
);
}
);
userData = {
assembly = "PUSHW[ ]	/* 1 value pushed */
40
MDAP[1]	/* MoveDirectAbsPt */
PUSHW[ ]	/* 1 value pushed */
20
MDAP[1]	/* MoveDirectAbsPt */
NPUSHW[ ]	/* 5 values pushed */
74 20 90 20 2
DELTAP2[ ]	/* DeltaExceptionP2 */
NPUSHW[ ]	/* 33 values pushed */
9 20 25 20 41 20 57 20 73 20 89 20 105 20 121 20 137 20 153 20 169 20 185 20 201 20 217 20 233 20 249 20 16
DELTAP1[ ]	/* DeltaExceptionP1 */
NPUSHW[ ]	/* 9 values pushed */
9 20 25 20 41 20 57 20 4
DELTAP2[ ]	/* DeltaExceptionP2 */
PUSHW[ ]	/* 2 values pushed */
0 3
MIRP[10100]	/* MoveIndirectRelPt */
PUSHW[ ]	/* 1 value pushed */
40
SRP0[ ]	/* SetRefPoint0 */
PUSHW[ ]	/* 1 value pushed */
10
MDRP[10000]	/* MoveDirectRelPt */
PUSHW[ ]	/* 1 value pushed */
10
MDAP[1]	/* MoveDirectAbsPt */
PUSHW[ ]	/* 2 values pushed */
30 3
MIRP[10100]	/* MoveIndirectRelPt */
NPUSHW[ ]	/* 33 values pushed */
6 30 22 30 38 30 54 30 70 30 86 30 102 30 118 30 134 30 150 30 166 30 182 30 198 30 214 30 230 30 246 30 16
DELTAP1[ ]	/* DeltaExceptionP1 */
NPUSHW[ ]	/* 9 values pushed */
6 30 22 30 38 30 54 30 4
DELTAP2[ ]	/* DeltaExceptionP2 */
NPUSHW[ ]	/* 5 values pushed */
69 30 85 30 2
DELTAP2[ ]	/* DeltaExceptionP2 */
PUSHW[ ]	/* 1 value pushed */
0
SRP0[ ]	/* SetRefPoint0 */
PUSHW[ ]	/* 1 value pushed */
41
MDRP[11100]	/* MoveDirectRelPt */
SVTCA[0]	/* SetFreedomAndProjectionVectorToAxis */
PUSHW[ ]	/* 1 value pushed */
0
RCVT[ ]	/* ReadCVT */
IF[ ]	/* If */
PUSHW[ ]	/* 1 value pushed */
5
MDAP[1]	/* MoveDirectAbsPt */
ELSE[ ]	/* Else */
PUSHW[ ]	/* 2 values pushed */
5 5
MIAP[0]	/* MoveIndirectAbsPt */
EIF[ ]	/* EndIf */
PUSHW[ ]	/* 4 values pushed */
15 2 25 4
CALL[ ]	/* CallFunction */
PUSHW[ ]	/* 1 value pushed */
5
SRP0[ ]	/* SetRefPoint0 */
PUSHW[ ]	/* 2 values pushed */
35 2
MIRP[10100]	/* MoveIndirectRelPt */
NPUSHW[ ]	/* 33 values pushed */
7 35 23 35 39 35 55 35 71 35 87 35 103 35 119 35 135 35 151 35 167 35 183 35 199 35 215 35 231 35 247 35 16
DELTAP1[ ]	/* DeltaExceptionP1 */
NPUSHW[ ]	/* 31 values pushed */
7 35 23 35 39 35 55 35 71 35 87 35 103 35 119 35 135 35 151 35 167 35 183 35 199 35 215 35 231 35 15
DELTAP2[ ]	/* DeltaExceptionP2 */
NPUSHW[ ]	/* 3 values pushed */
246 35 1
DELTAP2[ ]	/* DeltaExceptionP2 */
NPUSHW[ ]	/* 3 values pushed */
6 35 1
DELTAP3[ ]	/* DeltaExceptionP3 */
IUP[0]	/* InterpolateUntPts */
IUP[1]	/* InterpolateUntPts */";
};
width = 550;
}
);
note = zero;
unicode = 48;
},
{
glyphname = one;
lastChange = "2025-05-29 09:07:02 +0000";
layers = (
{
layerId = m01;
shapes = (
{
closed = 1;
nodes = (
(358,644.978,o),
(325.107,652,o),
(304,652,cs),
(302.245,652,o),
(272.953,629.835,o),
(215,587,cs),
(160.832,546.963,o),
(126.236,521.236,o),
(120,515,cs),
(113.333,508.333,o),
(113,500,o),
(113,492,cs),
(113,476,o),
(120.333,451,o),
(127,451,cs),
(136.328,451,o),
(204.083,535.25,o),
(292,588,c),
(290.111,537.009,o),
(284.013,413.707,o),
(275,265,cs),
(265.178,102.944,o),
(259,19.336,o),
(259,14,cs),
(259,-4.616,o),
(289.418,-13,o),
(312,-13,cs),
(321.333,-13,o),
(322,-10.333,o),
(322,-5,cs),
(322,156.333,o),
(330.667,310,o),
(340,426,cs),
(348.062,526.201,o),
(358,606.847,o),
(358,626,cs)
);
}
);
userData = {
assembly = "PUSHW[ ]	/* 4 values pushed */
5 3 13 4
CALL[ ]	/* CallFunction */
NPUSHW[ ]	/* 5 values pushed */
74 13 90 13 2
DELTAP2[ ]	/* DeltaExceptionP2 */
NPUSHW[ ]	/* 33 values pushed */
9 13 25 13 41 13 57 13 73 13 89 13 105 13 121 13 137 13 153 13 169 13 185 13 201 13 217 13 233 13 249 13 16
DELTAP1[ ]	/* DeltaExceptionP1 */
NPUSHW[ ]	/* 9 values pushed */
9 13 25 13 41 13 57 13 4
DELTAP2[ ]	/* DeltaExceptionP2 */
PUSHW[ ]	/* 3 values pushed */
20 13 5
SRP1[ ]	/* SetRefPoint1 */
SRP2[ ]	/* SetRefPoint2 */
IP[ ]	/* InterpolatePts */
SVTCA[0]	/* SetFreedomAndProjectionVectorToAxis */
PUSHW[ ]	/* 1 value pushed */
0
RCVT[ ]	/* ReadCVT */
IF[ ]	/* If */
PUSHW[ ]	/* 1 value pushed */
8
MDAP[1]	/* MoveDirectAbsPt */
ELSE[ ]	/* Else */
PUSHW[ ]	/* 2 values pushed */
8 5
MIAP[0]	/* MoveIndirectAbsPt */
EIF[ ]	/* EndIf */
PUSHW[ ]	/* 3 values pushed */
38 25 3
CALL[ ]	/* CallFunction */
PUSHW[ ]	/* 3 values pushed */
20 25 38
SRP1[ ]	/* SetRefPoint1 */
SRP2[ ]	/* SetRefPoint2 */
IP[ ]	/* InterpolatePts */
IUP[0]	/* InterpolateUntPts */
IUP[1]	/* InterpolateUntPts */";
};
width = 550;
}
);
note = one;
unicode = 49;
},
{
glyphname = two;
lastChange = "2025-05-29 09:07:02 +0000";
layers = (
{
layerId = m01;
shapes = (
{
closed = 1;
nodes = (
(435,54.667,o),
(433,59,o),
(429,59,cs),
(411.132,59,o),
(298.85,43,o),
(185,43,cs),
(113,43,l),
(166.14,106.768,o),
(255.469,199.284,o),
(331,291,cs),
(389.667,363,o),
(428,431.667,o),
(428,505,cs),
(428,614.926,o),
(342.866,652,o),
(260,652,cs),
(192,652,o),
(129.333,628.667,o),
(100,606,cs),
(85.333,595.333,o),
(81,587.667,o),
(81,573,cs),
(81,560.333,o),
(82,551.833,o),
(84,547.5,cs),
(86,543.167,o),
(89,541,o),
(93,541,cs),
(106.222,541,o),
(154.05,613,o),
(242,613,cs),
(299.238,613,o),
(361,582.5,o),
(361,500,cs),
(361,444,o),
(340.667,393,o),
(298,337,cs),
(240.959,263.661,o),
(131.587,135.006,o),
(49,55,cs),
(39.667,47,o),
(38,41.667,o),
(38,35,cs),
(38,24.333,o),
(48.333,0,o),
(55,0,cs),
(412,0,ls),
(426.667,0,o),
(435,24.667,o),
(435,46,cs)
);
}
);
userData = {
assembly = "PUSHW[ ]	/* 4 values pushed */
42 3 18 4
CALL[ ]	/* CallFunction */
PUSHW[ ]	/* 1 value pushed */
42
SRP0[ ]	/* SetRefPoint0 */
PUSHW[ ]	/* 1 value pushed */
0
MDRP[10000]	/* MoveDirectRelPt */
PUSHW[ ]	/* 1 value pushed */
0
MDAP[1]	/* MoveDirectAbsPt */
NPUSHW[ ]	/* 5 values pushed */
74 18 90 18 2
DELTAP2[ ]	/* DeltaExceptionP2 */
NPUSHW[ ]	/* 33 values pushed */
9 18 25 18 41 18 57 18 73 18 89 18 105 18 121 18 137 18 153 18 169 18 185 18 201 18 217 18 233 18 249 18 16
DELTAP1[ ]	/* DeltaExceptionP1 */
NPUSHW[ ]	/* 9 values pushed */
9 18 25 18 41 18 57 18 4
DELTAP2[ ]	/* DeltaExceptionP2 */
PUSHW[ ]	/* 1 value pushed */
42
SRP0[ ]	/* SetRefPoint0 */
PUSHW[ ]	/* 1 value pushed */
59
MDRP[11100]	/* MoveDirectRelPt */
SVTCA[0]	/* SetFreedomAndProjectionVectorToAxis */
PUSHW[ ]	/* 1 value pushed */
0
RCVT[ ]	/* ReadCVT */
IF[ ]	/* If */
PUSHW[ ]	/* 1 value pushed */
3
MDAP[1]	/* MoveDirectAbsPt */
ELSE[ ]	/* Else */
PUSHW[ ]	/* 2 values pushed */
3 5
MIAP[0]	/* MoveIndirectAbsPt */
EIF[ ]	/* EndIf */
PUSHW[ ]	/* 4 values pushed */
37 2 23 4
CALL[ ]	/* CallFunction */
PUSHW[ ]	/* 1 value pushed */
3
SRP0[ ]	/* SetRefPoint0 */
PUSHW[ ]	/* 2 values pushed */
50 1
MIRP[10100]	/* MoveIndirectRelPt */
IUP[0]	/* InterpolateUntPts */
IUP[1]	/* InterpolateUntPts */";
};
width = 550;
}
);
note = two;
unicode = 50;
},
{
glyphname = three;
lastChange = "2025-05-29 09:07:02 +0000";
layers = (
{
layerId = m01;
shapes = (
{
closed = 1;
nodes = (
(431,275.243,o),
(370.58,334.949,o),
(293,351,c),
(326.351,363.827,o),
(414,420.755,o),
(414,510,cs),
(414,617.011,o),
(324.64,652,o),
(240,652,cs),
(178.667,652,o),
(129.667,638.667,o),
(99,620,cs),
(81.667,609.333,o),
(73,597,o),
(73,583,cs),
(73,569.667,o),
(74,561.333,o),
(76,558,cs),
(78,554.667,o),
(80.667,553,o),
(84,553,cs),
(87.333,553,o),
(93,556.167,o),
(101,562.5,cs),
(109,568.833,o),
(120.333,576.667,o),
(135,586,cs),
(164.333,604.667,o),
(197.333,616,o),
(232,616,cs),
(295.939,616,o),
(350,579.281,o),
(350,497,cs),
(350,392.959,o),
(238.835,359,o),
(205,359,cs),
(198.333,359,o),
(193,344.333,o),
(193,331,cs),
(193,323.667,o),
(193.667,320,o),
(195,320,cs),
(282.576,320,o),
(371,283.258,o),
(371,165,cs),
(371,76.712,o),
(299.572,24,o),
(204,24,cs),
(107.632,24,o),
(61.15,85,o),
(45,85,cs),
(34.333,85,o),
(34,76.667,o),
(34,66,cs),
(34,39.333,o),
(39,29.667,o),
(55,19,cs),
(85.667,0.333,o),
(125,-13,o),
(205,-13,cs),
(330.416,-13,o),
(431,62.341,o),
(431,186,cs)
);
}
);
userData = {
assembly = "PUSHW[ ]	/* 4 values pushed */
0 3 24 4
CALL[ ]	/* CallFunction */
NPUSHW[ ]	/* 5 values pushed */
74 24 90 24 2
DELTAP2[ ]	/* DeltaExceptionP2 */
NPUSHW[ ]	/* 33 values pushed */
9 24 25 24 41 24 57 24 73 24 89 24 105 24 121 24 137 24 153 24 169 24 185 24 201 24 217 24 233 24 249 24 16
DELTAP1[ ]	/* DeltaExceptionP1 */
NPUSHW[ ]	/* 9 values pushed */
9 24 25 24 41 24 57 24 4
DELTAP2[ ]	/* DeltaExceptionP2 */
SVTCA[0]	/* SetFreedomAndProjectionVectorToAxis */
PUSHW[ ]	/* 1 value pushed */
0
RCVT[ ]	/* ReadCVT */
IF[ ]	/* If */
PUSHW[ ]	/* 1 value pushed */
5
MDAP[1]	/* MoveDirectAbsPt */
ELSE[ ]	/* Else */
PUSHW[ ]	/* 2 values pushed */
5 5
MIAP[0]	/* MoveIndirectAbsPt */
EIF[ ]	/* EndIf */
PUSHW[ ]	/* 4 values pushed */
58 2 44 4
CALL[ ]	/* CallFunction */
PUSHW[ ]	/* 1 value pushed */
5
SRP0[ ]	/* SetRefPoint0 */
PUSHW[ ]	/* 2 values pushed */
19 2
MIRP[10100]	/* MoveIndirectRelPt */
NPUSHW[ ]	/* 33 values pushed */
7 19 23 19 39 19 55 19 71 19 87 19 103 19 119 19 135 19 151 19 167 19 183 19 199 19 215 19 231 19 247 19 16
DELTAP1[ ]	/* DeltaExceptionP1 */
NPUSHW[ ]	/* 31 values pushed */
7 19 23 19 39 19 55 19 71 19 87 19 103 19 119 19 135 19 151 19 167 19 183 19 199 19 215 19 231 19 15
DELTAP2[ ]	/* DeltaExceptionP2 */
NPUSHW[ ]	/* 3 values pushed */
246 19 1
DELTAP2[ ]	/* DeltaExceptionP2 */
NPUSHW[ ]	/* 3 values pushed */
6 19 1
DELTAP3[ ]	/* DeltaExceptionP3 */
IUP[0]	/* InterpolateUntPts */
IUP[1]	/* InterpolateUntPts */";
};
width = 550;
}
);
note = three;
unicode = 51;
},
{
glyphname = four;
lastChange = "2025-05-29 09:07:02 +0000";
layers = (
{
layerId = m01;
shapes = (
{
closed = 1;
nodes = (
(533,258,o),
(530.333,261,o),
(525,261,cs),
(516.333,261,o),
(496.333,260,o),
(465,258,cs),
(433.667,256,o),
(393,254.333,o),
(343,253,c),
(344.172,284.65,o),
(349.487,361.493,o),
(358,475,cs),
(365.056,569.082,o),
(369,619.727,o),
(369,627,cs),
(369,645.667,o),
(344,652,o),
(324,652,cs),
(316.667,652,o),
(311,649.333,o),
(307,644,cs),
(285.561,615.415,o),
(233.965,548.704,o),
(154,442.5,cs),
(74.693,337.171,o),
(31.326,278.204,o),
(26,264,cs),
(24.667,260.667,o),
(24,257,o),
(24,253,cs),
(24,239.298,o),
(39.719,209,o),
(59,209,cs),
(288,209,l),
(284.667,157.667,o),
(281.5,115.5,o),
(278.5,82.5,cs),
(275.5,49.5,o),
(274,26.667,o),
(274,14,cs),
(274,-4.667,o),
(301.333,-13,o),
(324,-13,cs),
(329.333,-13,o),
(332,-10.333,o),
(332,-5,cs),
(332,57.667,o),
(333.333,114.333,o),
(340,209,c),
(510,209,ls),
(526,209,o),
(533,233.333,o),
(533,252,cs)
);
},
{
closed = 1;
nodes = (
(311,533.683,o),
(301.713,455.552,o),
(291,252,c),
(72,252,l),
(87.114,278.869,o),
(146.145,362.124,o),
(193,427,cs),
(245.69,499.955,o),
(292.397,559.747,o),
(311,583,c)
);
}
);
userData = {
assembly = "PUSHW[ ]	/* 4 values pushed */
35 3 47 4
CALL[ ]	/* CallFunction */
NPUSHW[ ]	/* 5 values pushed */
74 47 90 47 2
DELTAP2[ ]	/* DeltaExceptionP2 */
NPUSHW[ ]	/* 33 values pushed */
9 47 25 47 41 47 57 47 73 47 89 47 105 47 121 47 137 47 153 47 169 47 185 47 201 47 217 47 233 47 249 47 16
DELTAP1[ ]	/* DeltaExceptionP1 */
NPUSHW[ ]	/* 9 values pushed */
9 47 25 47 41 47 57 47 4
DELTAP2[ ]	/* DeltaExceptionP2 */
SVTCA[0]	/* SetFreedomAndProjectionVectorToAxis */
PUSHW[ ]	/* 1 value pushed */
0
RCVT[ ]	/* ReadCVT */
IF[ ]	/* If */
PUSHW[ ]	/* 1 value pushed */
9
MDAP[1]	/* MoveDirectAbsPt */
ELSE[ ]	/* Else */
PUSHW[ ]	/* 2 values pushed */
9 5
MIAP[0]	/* MoveIndirectAbsPt */
EIF[ ]	/* EndIf */
PUSHW[ ]	/* 4 values pushed */
42 1 4 4
CALL[ ]	/* CallFunction */
PUSHW[ ]	/* 1 value pushed */
4
SRP0[ ]	/* SetRefPoint0 */
PUSHW[ ]	/* 1 value pushed */
15
MDRP[10000]	/* MoveDirectRelPt */
PUSHW[ ]	/* 1 value pushed */
42
SRP0[ ]	/* SetRefPoint0 */
PUSHW[ ]	/* 1 value pushed */
54
MDRP[10000]	/* MoveDirectRelPt */
PUSHW[ ]	/* 1 value pushed */
54
MDAP[1]	/* MoveDirectAbsPt */
IUP[0]	/* InterpolateUntPts */
IUP[1]	/* InterpolateUntPts */";
};
width = 550;
}
);
note = four;
unicode = 52;
},
{
glyphname = five;
lastChange = "2025-05-29 09:07:02 +0000";
layers = (
{
layerId = m01;
shapes = (
{
closed = 1;
nodes = (
(442,321.333,o),
(365,384,o),
(211,384,cs),
(157,384,l),
(180,587,l),
(418,587,ls),
(435.333,587,o),
(440,610,o),
(440,630,cs),
(440,638,o),
(437,639,o),
(433,639,cs),
(136,639,l),
(101,332,l),
(127.667,336,o),
(172.333,339,o),
(199,339,cs),
(331.605,339,o),
(385,265.263,o),
(385,190,cs),
(385,93.342,o),
(322.481,25,o),
(223,25,cs),
(126.611,25,o),
(119.682,80,o),
(74,80,cs),
(70,80,o),
(67.5,78.5,o),
(66.5,75.5,cs),
(65.5,72.5,o),
(65,66.333,o),
(65,57,cs),
(65,39.667,o),
(70.333,26,o),
(81,16,cs),
(86.333,11.333,o),
(99.833,5.333,o),
(121.5,-2,cs),
(143.167,-9.333,o),
(177.333,-13,o),
(224,-13,cs),
(339.416,-13,o),
(442,64.677,o),
(442,196,cs)
);
}
);
userData = {
assembly = "PUSHW[ ]	/* 4 values pushed */
0 3 23 4
CALL[ ]	/* CallFunction */
NPUSHW[ ]	/* 5 values pushed */
74 23 90 23 2
DELTAP2[ ]	/* DeltaExceptionP2 */
NPUSHW[ ]	/* 33 values pushed */
9 23 25 23 41 23 57 23 73 23 89 23 105 23 121 23 137 23 153 23 169 23 185 23 201 23 217 23 233 23 249 23 16
DELTAP1[ ]	/* DeltaExceptionP1 */
NPUSHW[ ]	/* 9 values pushed */
9 23 25 23 41 23 57 23 4
DELTAP2[ ]	/* DeltaExceptionP2 */
PUSHW[ ]	/* 1 value pushed */
0
SRP0[ ]	/* SetRefPoint0 */
PUSHW[ ]	/* 1 value pushed */
36
MDRP[10000]	/* MoveDirectRelPt */
PUSHW[ ]	/* 1 value pushed */
36
MDAP[1]	/* MoveDirectAbsPt */
SVTCA[0]	/* SetFreedomAndProjectionVectorToAxis */
PUSHW[ ]	/* 1 value pushed */
0
RCVT[ ]	/* ReadCVT */
IF[ ]	/* If */
PUSHW[ ]	/* 1 value pushed */
5
MDAP[1]	/* MoveDirectAbsPt */
ELSE[ ]	/* Else */
PUSHW[ ]	/* 2 values pushed */
5 5
MIAP[0]	/* MoveIndirectAbsPt */
EIF[ ]	/* EndIf */
PUSHW[ ]	/* 4 values pushed */
33 1 39 4
CALL[ ]	/* CallFunction */
PUSHW[ ]	/* 4 values pushed */
42 1 28 4
CALL[ ]	/* CallFunction */
PUSHW[ ]	/* 1 value pushed */
5
SRP0[ ]	/* SetRefPoint0 */
PUSHW[ ]	/* 2 values pushed */
18 2
MIRP[10100]	/* MoveIndirectRelPt */
NPUSHW[ ]	/* 33 values pushed */
7 18 23 18 39 18 55 18 71 18 87 18 103 18 119 18 135 18 151 18 167 18 183 18 199 18 215 18 231 18 247 18 16
DELTAP1[ ]	/* DeltaExceptionP1 */
NPUSHW[ ]	/* 31 values pushed */
7 18 23 18 39 18 55 18 71 18 87 18 103 18 119 18 135 18 151 18 167 18 183 18 199 18 215 18 231 18 15
DELTAP2[ ]	/* DeltaExceptionP2 */
NPUSHW[ ]	/* 3 values pushed */
246 18 1
DELTAP2[ ]	/* DeltaExceptionP2 */
NPUSHW[ ]	/* 3 values pushed */
6 18 1
DELTAP3[ ]	/* DeltaExceptionP3 */
PUSHW[ ]	/* 1 value pushed */
28
SRP0[ ]	/* SetRefPoint0 */
PUSHW[ ]	/* 1 value pushed */
31
MDRP[10000]	/* MoveDirectRelPt */
PUSHW[ ]	/* 1 value pushed */
31
MDAP[1]	/* MoveDirectAbsPt */
IUP[0]	/* InterpolateUntPts */
IUP[1]	/* InterpolateUntPts */";
};
width = 550;
}
);
note = five;
unicode = 53;
},
{
glyphname = six;
lastChange = "2025-05-29 09:07:02 +0000";
layers = (
{
layerId = m01;
shapes = (
{
closed = 1;
nodes = (
(487,328.018,o),
(422.855,418,o),
(282,418,cs),
(201.253,418,o),
(143.212,380.212,o),
(120,357,c),
(144,459.667,o),
(186.333,524.333,o),
(237,563,cs),
(287.667,601.667,o),
(346,615,o),
(402,615,cs),
(408,615,o),
(411,618,o),
(411,624,cs),
(411,634.667,o),
(399,652,o),
(371,652,cs),
(232.044,652,o),
(54,527.18,o),
(54,241,cs),
(54,90.899,o),
(116.175,-13,o),
(265,-13,cs),
(405.015,-13,o),
(487,103.677,o),
(487,221,cs)
);
},
{
closed = 1;
nodes = (
(427,92.633,o),
(353.589,22,o),
(270,22,cs),
(143.166,22,o),
(114,143.609,o),
(114,233,cs),
(114,246.333,o),
(114.333,264.333,o),
(117,271,c),
(135.821,338.217,o),
(215.221,383,o),
(287,383,cs),
(360.607,383,o),
(427,334.964,o),
(427,218,cs)
);
}
);
userData = {
assembly = "PUSHW[ ]	/* 1 value pushed */
58
MDAP[1]	/* MoveDirectAbsPt */
PUSHW[ ]	/* 1 value pushed */
35
MDAP[1]	/* MoveDirectAbsPt */
NPUSHW[ ]	/* 5 values pushed */
74 35 90 35 2
DELTAP2[ ]	/* DeltaExceptionP2 */
NPUSHW[ ]	/* 33 values pushed */
9 35 25 35 41 35 57 35 73 35 89 35 105 35 121 35 137 35 153 35 169 35 185 35 201 35 217 35 233 35 249 35 16
DELTAP1[ ]	/* DeltaExceptionP1 */
NPUSHW[ ]	/* 9 values pushed */
9 35 25 35 41 35 57 35 4
DELTAP2[ ]	/* DeltaExceptionP2 */
PUSHW[ ]	/* 2 values pushed */
0 3
MIRP[10100]	/* MoveIndirectRelPt */
PUSHW[ ]	/* 1 value pushed */
58
SRP0[ ]	/* SetRefPoint0 */
PUSHW[ ]	/* 1 value pushed */
10
MDRP[10000]	/* MoveDirectRelPt */
PUSHW[ ]	/* 1 value pushed */
10
MDAP[1]	/* MoveDirectAbsPt */
PUSHW[ ]	/* 2 values pushed */
48 3
MIRP[10100]	/* MoveIndirectRelPt */
NPUSHW[ ]	/* 33 values pushed */
6 48 22 48 38 48 54 48 70 48 86 48 102 48 118 48 134 48 150 48 166 48 182 48 198 48 214 48 230 48 246 48 16
DELTAP1[ ]	/* DeltaExceptionP1 */
NPUSHW[ ]	/* 9 values pushed */
6 48 22 48 38 48 54 48 4
DELTAP2[ ]	/* DeltaExceptionP2 */
NPUSHW[ ]	/* 5 values pushed */
69 48 85 48 2
DELTAP2[ ]	/* DeltaExceptionP2 */
PUSHW[ ]	/* 1 value pushed */
25
MDRP[10000]	/* MoveDirectRelPt */
PUSHW[ ]	/* 1 value pushed */
25
MDAP[1]	/* MoveDirectAbsPt */
PUSHW[ ]	/* 1 value pushed */
48
SRP0[ ]	/* SetRefPoint0 */
PUSHW[ ]	/* 1 value pushed */
45
MDRP[10000]	/* MoveDirectRelPt */
PUSHW[ ]	/* 1 value pushed */
45
MDAP[1]	/* MoveDirectAbsPt */
PUSHW[ ]	/* 1 value pushed */
0
SRP0[ ]	/* SetRefPoint0 */
PUSHW[ ]	/* 1 value pushed */
59
MDRP[11100]	/* MoveDirectRelPt */
SVTCA[0]	/* SetFreedomAndProjectionVectorToAxis */
PUSHW[ ]	/* 1 value pushed */
0
RCVT[ ]	/* ReadCVT */
IF[ ]	/* If */
PUSHW[ ]	/* 1 value pushed */
5
MDAP[1]	/* MoveDirectAbsPt */
ELSE[ ]	/* Else */
PUSHW[ ]	/* 2 values pushed */
5 5
MIAP[0]	/* MoveIndirectAbsPt */
EIF[ ]	/* EndIf */
PUSHW[ ]	/* 4 values pushed */
15 2 20 4
CALL[ ]	/* CallFunction */
PUSHW[ ]	/* 4 values pushed */
30 2 40 4
CALL[ ]	/* CallFunction */
PUSHW[ ]	/* 1 value pushed */
5
SRP0[ ]	/* SetRefPoint0 */
PUSHW[ ]	/* 2 values pushed */
53 2
MIRP[10100]	/* MoveIndirectRelPt */
NPUSHW[ ]	/* 33 values pushed */
7 53 23 53 39 53 55 53 71 53 87 53 103 53 119 53 135 53 151 53 167 53 183 53 199 53 215 53 231 53 247 53 16
DELTAP1[ ]	/* DeltaExceptionP1 */
NPUSHW[ ]	/* 31 values pushed */
7 53 23 53 39 53 55 53 71 53 87 53 103 53 119 53 135 53 151 53 167 53 183 53 199 53 215 53 231 53 15
DELTAP2[ ]	/* DeltaExceptionP2 */
NPUSHW[ ]	/* 3 values pushed */
246 53 1
DELTAP2[ ]	/* DeltaExceptionP2 */
NPUSHW[ ]	/* 3 values pushed */
6 53 1
DELTAP3[ ]	/* DeltaExceptionP3 */
IUP[0]	/* InterpolateUntPts */
IUP[1]	/* InterpolateUntPts */";
};
width = 550;
}
);
note = six;
unicode = 54;
},
{
glyphname = seven;
lastChange = "2025-05-29 09:07:02 +0000";
layers = (
{
layerId = m01;
shapes = (
{
closed = 1;
nodes = (
(474,603.667,o),
(471.833,614.833,o),
(467.5,624.5,cs),
(463.167,634.167,o),
(459.667,639,o),
(457,639,cs),
(99,639,ls),
(88.333,639,o),
(82,612,o),
(82,588,cs),
(82,580,o),
(84,576,o),
(88,576,cs),
(115.448,576,o),
(237.139,590,o),
(413,590,c),
(392.426,532.393,o),
(340.521,419.088,o),
(279,302,cs),
(211.194,172.949,o),
(147.11,68.716,o),
(101,13,cs),
(99.667,11,o),
(97.833,8.833,o),
(95.5,6.5,cs),
(93.167,4.167,o),
(92,2.333,o),
(92,1,cs),
(92,-8.333,o),
(113.667,-13,o),
(131,-13,cs),
(144.333,-13,o),
(154.667,-11,o),
(160,-3,cs),
(215.085,73.726,o),
(277.209,190.417,o),
(332.5,301,cs),
(394.14,424.28,o),
(435.166,515.044,o),
(454,551,cs),
(458.667,559.667,o),
(463.167,567.833,o),
(467.5,575.5,cs),
(471.833,583.167,o),
(474,588.333,o),
(474,591,cs)
);
}
);
userData = {
assembly = "SVTCA[0]	/* SetFreedomAndProjectionVectorToAxis */
PUSHW[ ]	/* 1 value pushed */
0
RCVT[ ]	/* ReadCVT */
IF[ ]	/* If */
PUSHW[ ]	/* 1 value pushed */
13
MDAP[1]	/* MoveDirectAbsPt */
ELSE[ ]	/* Else */
PUSHW[ ]	/* 2 values pushed */
13 5
MIAP[0]	/* MoveIndirectAbsPt */
EIF[ ]	/* EndIf */
PUSHW[ ]	/* 4 values pushed */
37 1 26 4
CALL[ ]	/* CallFunction */
IUP[0]	/* InterpolateUntPts */
IUP[1]	/* InterpolateUntPts */";
};
width = 550;
}
);
note = seven;
unicode = 55;
},
{
glyphname = eight;
lastChange = "2025-05-29 09:07:02 +0000";
layers = (
{
layerId = m01;
shapes = (
{
closed = 1;
nodes = (
(469,237.599,o),
(449.53,278.829,o),
(336,341,c),
(404.527,369.992,o),
(465,429.632,o),
(465,512,cs),
(465,601.819,o),
(383.368,652,o),
(285,652,cs),
(196.5,652,o),
(94,613.668,o),
(94,500,cs),
(94,430.667,o),
(139,374.667,o),
(211,336,c),
(105.667,298.667,o),
(47,241.667,o),
(47,151,cs),
(47,61.973,o),
(117.905,-13,o),
(240,-13,cs),
(391.267,-13,o),
(469,79.774,o),
(469,178,cs)
);
},
{
closed = 1;
nodes = (
(408,452,o),
(367.333,399.667,o),
(294,357,c),
(210.754,397.28,o),
(155,433.913,o),
(155,508,cs),
(155,588.231,o),
(219.759,619,o),
(282,619,cs),
(348.407,619,o),
(408,576.418,o),
(408,512,cs)
);
},
{
closed = 1;
nodes = (
(411,54.066,o),
(329.04,23,o),
(254,23,cs),
(144.406,23,o),
(107,100.906,o),
(107,157,cs),
(107,248.14,o),
(180.456,294.152,o),
(252,318,c),
(270.659,307.338,o),
(294.365,307.694,o),
(339,279,cs),
(376.333,255,o),
(411,215.333,o),
(411,154,cs)
);
}
);
userData = {
assembly = "PUSHW[ ]	/* 1 value pushed */
74
MDAP[1]	/* MoveDirectAbsPt */
PUSHW[ ]	/* 1 value pushed */
54
MDAP[1]	/* MoveDirectAbsPt */
NPUSHW[ ]	/* 5 values pushed */
74 54 90 54 2
DELTAP2[ ]	/* DeltaExceptionP2 */
NPUSHW[ ]	/* 33 values pushed */
9 54 25 54 41 54 57 54 73 54 89 54 105 54 121 54 137 54 153 54 169 54 185 54 201 54 217 54 233 54 249 54 16
DELTAP1[ ]	/* DeltaExceptionP1 */
NPUSHW[ ]	/* 9 values pushed */
9 54 25 54 41 54 57 54 4
DELTAP2[ ]	/* DeltaExceptionP2 */
PUSHW[ ]	/* 2 values pushed */
0 3
MIRP[10100]	/* MoveIndirectRelPt */
PUSHW[ ]	/* 1 value pushed */
74
SRP0[ ]	/* SetRefPoint0 */
PUSHW[ ]	/* 1 value pushed */
10
MDRP[10000]	/* MoveDirectRelPt */
PUSHW[ ]	/* 1 value pushed */
10
MDAP[1]	/* MoveDirectAbsPt */
PUSHW[ ]	/* 3 values pushed */
13 10 0
SRP1[ ]	/* SetRefPoint1 */
SRP2[ ]	/* SetRefPoint2 */
IP[ ]	/* InterpolatePts */
PUSHW[ ]	/* 1 value pushed */
0
SRP0[ ]	/* SetRefPoint0 */
PUSHW[ ]	/* 1 value pushed */
26
MDRP[10000]	/* MoveDirectRelPt */
PUSHW[ ]	/* 1 value pushed */
26
MDAP[1]	/* MoveDirectAbsPt */
PUSHW[ ]	/* 3 values pushed */
31 10 0
SRP1[ ]	/* SetRefPoint1 */
SRP2[ ]	/* SetRefPoint2 */
IP[ ]	/* InterpolatePts */
PUSHW[ ]	/* 1 value pushed */
54
SRP0[ ]	/* SetRefPoint0 */
PUSHW[ ]	/* 1 value pushed */
36
MDRP[10000]	/* MoveDirectRelPt */
PUSHW[ ]	/* 1 value pushed */
36
MDAP[1]	/* MoveDirectAbsPt */
PUSHW[ ]	/* 1 value pushed */
10
SRP0[ ]	/* SetRefPoint0 */
PUSHW[ ]	/* 2 values pushed */
64 3
MIRP[10100]	/* MoveIndirectRelPt */
NPUSHW[ ]	/* 33 values pushed */
6 64 22 64 38 64 54 64 70 64 86 64 102 64 118 64 134 64 150 64 166 64 182 64 198 64 214 64 230 64 246 64 16
DELTAP1[ ]	/* DeltaExceptionP1 */
NPUSHW[ ]	/* 9 values pushed */
6 64 22 64 38 64 54 64 4
DELTAP2[ ]	/* DeltaExceptionP2 */
NPUSHW[ ]	/* 5 values pushed */
69 64 85 64 2
DELTAP2[ ]	/* DeltaExceptionP2 */
PUSHW[ ]	/* 1 value pushed */
0
SRP0[ ]	/* SetRefPoint0 */
PUSHW[ ]	/* 1 value pushed */
75
MDRP[11100]	/* MoveDirectRelPt */
SVTCA[0]	/* SetFreedomAndProjectionVectorToAxis */
PUSHW[ ]	/* 1 value pushed */
0
RCVT[ ]	/* ReadCVT */
IF[ ]	/* If */
PUSHW[ ]	/* 1 value pushed */
5
MDAP[1]	/* MoveDirectAbsPt */
ELSE[ ]	/* Else */
PUSHW[ ]	/* 2 values pushed */
5 5
MIAP[0]	/* MoveIndirectAbsPt */
EIF[ ]	/* EndIf */
PUSHW[ ]	/* 4 values pushed */
21 2 41 4
CALL[ ]	/* CallFunction */
PUSHW[ ]	/* 1 value pushed */
5
SRP0[ ]	/* SetRefPoint0 */
PUSHW[ ]	/* 2 values pushed */
69 2
MIRP[10100]	/* MoveIndirectRelPt */
NPUSHW[ ]	/* 33 values pushed */
7 69 23 69 39 69 55 69 71 69 87 69 103 69 119 69 135 69 151 69 167 69 183 69 199 69 215 69 231 69 247 69 16
DELTAP1[ ]	/* DeltaExceptionP1 */
NPUSHW[ ]	/* 31 values pushed */
7 69 23 69 39 69 55 69 71 69 87 69 103 69 119 69 135 69 151 69 167 69 183 69 199 69 215 69 231 69 15
DELTAP2[ ]	/* DeltaExceptionP2 */
NPUSHW[ ]	/* 3 values pushed */
246 69 1
DELTAP2[ ]	/* DeltaExceptionP2 */
NPUSHW[ ]	/* 3 values pushed */
6 69 1
DELTAP3[ ]	/* DeltaExceptionP3 */
IUP[0]	/* InterpolateUntPts */
IUP[1]	/* InterpolateUntPts */";
};
width = 550;
}
);
note = eight;
unicode = 56;
},
{
glyphname = nine;
lastChange = "2025-05-29 09:07:02 +0000";
layers = (
{
layerId = m01;
shapes = (
{
closed = 1;
nodes = (
(482,549.267,o),
(418.267,652,o),
(271,652,cs),
(130.985,652,o),
(49,535.323,o),
(49,418,cs),
(49,310.982,o),
(113.145,221,o),
(254,221,cs),
(334.747,221,o),
(392.788,258.788,o),
(416,282,c),
(392,179.333,o),
(349.667,114.667,o),
(299,76,cs),
(248.333,37.333,o),
(190,24,o),
(134,24,cs),
(128,24,o),
(125,21,o),
(125,15,cs),
(125,4.333,o),
(137,-13,o),
(165,-13,cs),
(303.956,-13,o),
(482,111.82,o),
(482,398,cs)
);
},
{
closed = 1;
nodes = (
(422,392.667,o),
(421.667,374.667,o),
(419,368,cs),
(398.298,300.718,o),
(323.847,256,o),
(249,256,cs),
(175.393,256,o),
(109,304.036,o),
(109,421,cs),
(109,548.084,o),
(182.485,617,o),
(266,617,cs),
(392.834,617,o),
(422,495.391,o),
(422,406,cs)
);
}
);
userData = {
assembly = "PUSHW[ ]	/* 1 value pushed */
58
MDAP[1]	/* MoveDirectAbsPt */
PUSHW[ ]	/* 1 value pushed */
35
MDAP[1]	/* MoveDirectAbsPt */
NPUSHW[ ]	/* 5 values pushed */
74 35 90 35 2
DELTAP2[ ]	/* DeltaExceptionP2 */
NPUSHW[ ]	/* 33 values pushed */
9 35 25 35 41 35 57 35 73 35 89 35 105 35 121 35 137 35 153 35 169 35 185 35 201 35 217 35 233 35 249 35 16
DELTAP1[ ]	/* DeltaExceptionP1 */
NPUSHW[ ]	/* 9 values pushed */
9 35 25 35 41 35 57 35 4
DELTAP2[ ]	/* DeltaExceptionP2 */
PUSHW[ ]	/* 2 values pushed */
0 3
MIRP[10100]	/* MoveIndirectRelPt */
PUSHW[ ]	/* 1 value pushed */
35
SRP0[ ]	/* SetRefPoint0 */
PUSHW[ ]	/* 1 value pushed */
15
MDRP[10000]	/* MoveDirectRelPt */
PUSHW[ ]	/* 1 value pushed */
15
MDAP[1]	/* MoveDirectAbsPt */
PUSHW[ ]	/* 1 value pushed */
58
SRP0[ ]	/* SetRefPoint0 */
PUSHW[ ]	/* 1 value pushed */
25
MDRP[10000]	/* MoveDirectRelPt */
PUSHW[ ]	/* 1 value pushed */
25
MDAP[1]	/* MoveDirectAbsPt */
PUSHW[ ]	/* 2 values pushed */
45 3
MIRP[10100]	/* MoveIndirectRelPt */
NPUSHW[ ]	/* 33 values pushed */
6 45 22 45 38 45 54 45 70 45 86 45 102 45 118 45 134 45 150 45 166 45 182 45 198 45 214 45 230 45 246 45 16
DELTAP1[ ]	/* DeltaExceptionP1 */
NPUSHW[ ]	/* 9 values pushed */
6 45 22 45 38 45 54 45 4
DELTAP2[ ]	/* DeltaExceptionP2 */
NPUSHW[ ]	/* 5 values pushed */
69 45 85 45 2
DELTAP2[ ]	/* DeltaExceptionP2 */
PUSHW[ ]	/* 1 value pushed */
35
SRP0[ ]	/* SetRefPoint0 */
PUSHW[ ]	/* 1 value pushed */
55
MDRP[10000]	/* MoveDirectRelPt */
PUSHW[ ]	/* 1 value pushed */
55
MDAP[1]	/* MoveDirectAbsPt */
PUSHW[ ]	/* 1 value pushed */
0
SRP0[ ]	/* SetRefPoint0 */
PUSHW[ ]	/* 1 value pushed */
59
MDRP[11100]	/* MoveDirectRelPt */
SVTCA[0]	/* SetFreedomAndProjectionVectorToAxis */
PUSHW[ ]	/* 1 value pushed */
0
RCVT[ ]	/* ReadCVT */
IF[ ]	/* If */
PUSHW[ ]	/* 1 value pushed */
5
MDAP[1]	/* MoveDirectAbsPt */
ELSE[ ]	/* Else */
PUSHW[ ]	/* 2 values pushed */
5 5
MIAP[0]	/* MoveIndirectAbsPt */
EIF[ ]	/* EndIf */
PUSHW[ ]	/* 4 values pushed */
30 2 40 4
CALL[ ]	/* CallFunction */
PUSHW[ ]	/* 4 values pushed */
50 2 20 4
CALL[ ]	/* CallFunction */
PUSHW[ ]	/* 1 value pushed */
5
SRP0[ ]	/* SetRefPoint0 */
PUSHW[ ]	/* 2 values pushed */
10 2
MIRP[10100]	/* MoveIndirectRelPt */
NPUSHW[ ]	/* 33 values pushed */
7 10 23 10 39 10 55 10 71 10 87 10 103 10 119 10 135 10 151 10 167 10 183 10 199 10 215 10 231 10 247 10 16
DELTAP1[ ]	/* DeltaExceptionP1 */
NPUSHW[ ]	/* 31 values pushed */
7 10 23 10 39 10 55 10 71 10 87 10 103 10 119 10 135 10 151 10 167 10 183 10 199 10 215 10 231 10 15
DELTAP2[ ]	/* DeltaExceptionP2 */
NPUSHW[ ]	/* 3 values pushed */
246 10 1
DELTAP2[ ]	/* DeltaExceptionP2 */
NPUSHW[ ]	/* 3 values pushed */
6 10 1
DELTAP3[ ]	/* DeltaExceptionP3 */
IUP[0]	/* InterpolateUntPts */
IUP[1]	/* InterpolateUntPts */";
};
width = 550;
}
);
note = nine;
unicode = 57;
},
{
glyphname = colon;
lastChange = "2025-05-29 09:07:02 +0000";
layers = (
{
layerId = m01;
shapes = (
{
closed = 1;
nodes = (
(203,478.333,o),
(193,490,o),
(173,490,cs),
(146.333,490,o),
(130,471.333,o),
(130,450,cs),
(130,432.667,o),
(132.833,419.833,o),
(138.5,411.5,cs),
(144.167,403.167,o),
(150.333,399,o),
(157,399,cs),
(174.333,399,o),
(203,421.667,o),
(203,455,cs)
);
},
{
closed = 1;
nodes = (
(156.667,74.667,o),
(140.667,91,o),
(126,91,cs),
(110,91,o),
(81,68.333,o),
(81,35,cs),
(81,11,o),
(88.333,0,o),
(111,0,cs),
(137.667,0,o),
(152.667,18.667,o),
(154,40,cs)
);
}
);
userData = {
assembly = "PUSHW[ ]	/* 4 values pushed */
11 3 17 4
CALL[ ]	/* CallFunction */
NPUSHW[ ]	/* 33 values pushed */
6 11 22 11 38 11 54 11 70 11 86 11 102 11 118 11 134 11 150 11 166 11 182 11 198 11 214 11 230 11 246 11 16
DELTAP1[ ]	/* DeltaExceptionP1 */
NPUSHW[ ]	/* 9 values pushed */
6 11 22 11 38 11 54 11 4
DELTAP2[ ]	/* DeltaExceptionP2 */
NPUSHW[ ]	/* 5 values pushed */
69 11 85 11 2
DELTAP2[ ]	/* DeltaExceptionP2 */
SVTCA[0]	/* SetFreedomAndProjectionVectorToAxis */
PUSHW[ ]	/* 1 value pushed */
0
RCVT[ ]	/* ReadCVT */
IF[ ]	/* If */
PUSHW[ ]	/* 1 value pushed */
14
MDAP[1]	/* MoveDirectAbsPt */
ELSE[ ]	/* Else */
PUSHW[ ]	/* 2 values pushed */
14 5
MIAP[0]	/* MoveIndirectAbsPt */
EIF[ ]	/* EndIf */
PUSHW[ ]	/* 3 values pushed */
9 3 3
CALL[ ]	/* CallFunction */
PUSHW[ ]	/* 1 value pushed */
14
SRP0[ ]	/* SetRefPoint0 */
PUSHW[ ]	/* 1 value pushed */
20
MDRP[11100]	/* MoveDirectRelPt */
NPUSHW[ ]	/* 27 values pushed */
7 20 23 20 39 20 55 20 71 20 87 20 103 20 119 20 135 20 151 20 167 20 183 20 199 20 13
DELTAP1[ ]	/* DeltaExceptionP1 */
NPUSHW[ ]	/* 5 values pushed */
214 20 230 20 2
DELTAP1[ ]	/* DeltaExceptionP1 */
IUP[0]	/* InterpolateUntPts */
IUP[1]	/* InterpolateUntPts */";
};
width = 275;
}
);
note = colon;
unicode = 58;
},
{
glyphname = semicolon;
lastChange = "2025-05-29 09:07:02 +0000";
layers = (
{
layerId = m01;
shapes = (
{
closed = 1;
nodes = (
(204,478.333,o),
(194,490,o),
(174,490,cs),
(147.333,490,o),
(131,471.333,o),
(131,450,cs),
(131,415.333,o),
(144.333,399,o),
(159,399,cs),
(175,399,o),
(204,421.667,o),
(204,455,cs)
);
},
{
closed = 1;
nodes = (
(168,94.667,o),
(164.333,103.333,o),
(157,112,cs),
(151,118,o),
(144,121,o),
(136,121,cs),
(132.667,121,o),
(130.333,118.667,o),
(129,114,c),
(100.855,49.266,o),
(50.45,-38.462,o),
(41,-55,cs),
(33.667,-66.333,o),
(30,-72.333,o),
(30,-73,cs),
(30,-76.333,o),
(33.667,-78,o),
(41,-78,cs),
(52.333,-78,o),
(61,-75,o),
(67,-69,cs),
(101.868,-28.768,o),
(168,51.879,o),
(168,86,cs)
);
}
);
userData = {
assembly = "PUSHW[ ]	/* 4 values pushed */
0 3 6 4
CALL[ ]	/* CallFunction */
NPUSHW[ ]	/* 5 values pushed */
74 6 90 6 2
DELTAP2[ ]	/* DeltaExceptionP2 */
NPUSHW[ ]	/* 33 values pushed */
9 6 25 6 41 6 57 6 73 6 89 6 105 6 121 6 137 6 153 6 169 6 185 6 201 6 217 6 233 6 249 6 16
DELTAP1[ ]	/* DeltaExceptionP1 */
NPUSHW[ ]	/* 9 values pushed */
9 6 25 6 41 6 57 6 4
DELTAP2[ ]	/* DeltaExceptionP2 */
SVTCA[0]	/* SetFreedomAndProjectionVectorToAxis */
PUSHW[ ]	/* 1 value pushed */
0
RCVT[ ]	/* ReadCVT */
IF[ ]	/* If */
PUSHW[ ]	/* 1 value pushed */
18
MDAP[1]	/* MoveDirectAbsPt */
ELSE[ ]	/* Else */
PUSHW[ ]	/* 2 values pushed */
18 5
MIAP[0]	/* MoveIndirectAbsPt */
EIF[ ]	/* EndIf */
PUSHW[ ]	/* 1 value pushed */
0
RCVT[ ]	/* ReadCVT */
IF[ ]	/* If */
PUSHW[ ]	/* 1 value pushed */
20
MDAP[1]	/* MoveDirectAbsPt */
ELSE[ ]	/* Else */
PUSHW[ ]	/* 2 values pushed */
20 5
MIAP[0]	/* MoveIndirectAbsPt */
EIF[ ]	/* EndIf */
PUSHW[ ]	/* 3 values pushed */
9 3 3
CALL[ ]	/* CallFunction */
IUP[0]	/* InterpolateUntPts */
IUP[1]	/* InterpolateUntPts */";
};
width = 275;
}
);
note = semicolon;
unicode = 59;
},
{
glyphname = less;
lastChange = "2025-05-29 09:07:02 +0000";
layers = (
{
layerId = m01;
shapes = (
{
closed = 1;
nodes = (
(485,495,o),
(482.333,506,o),
(477,506,cs),
(475,506,o),
(472.167,505.667,o),
(468.5,505,cs),
(464.833,504.333,o),
(459.667,502.333,o),
(453,499,cs),
(99,345,ls),
(85,338.333,o),
(78,329.667,o),
(78,319,cs),
(78,289.667,o),
(81,281,o),
(97,273,cs),
(411,125,ls),
(417.667,121.667,o),
(422.167,119.5,o),
(424.5,118.5,cs),
(426.833,117.5,o),
(429,117,o),
(431,117,cs),
(443,117,o),
(443,131.333,o),
(443,150,cs),
(443,152.667,o),
(442.5,155.5,o),
(441.5,158.5,cs),
(440.5,161.5,o),
(436.333,164.667,o),
(429,168,cs),
(132,307,l),
(468,448,ls),
(485.333,456,o),
(485,481.667,o),
(485,487,cs)
);
}
);
userData = {
assembly = "SVTCA[0]	/* SetFreedomAndProjectionVectorToAxis */
PUSHW[ ]	/* 1 value pushed */
21
MDAP[1]	/* MoveDirectAbsPt */
PUSHW[ ]	/* 1 value pushed */
24
MDAP[1]	/* MoveDirectAbsPt */
PUSHW[ ]	/* 1 value pushed */
11
MDAP[1]	/* MoveDirectAbsPt */
PUSHW[ ]	/* 3 values pushed */
4 11 24
SRP1[ ]	/* SetRefPoint1 */
SRP2[ ]	/* SetRefPoint2 */
IP[ ]	/* InterpolatePts */
IUP[0]	/* InterpolateUntPts */
IUP[1]	/* InterpolateUntPts */";
};
width = 550;
}
);
note = less;
unicode = 60;
},
{
glyphname = equal;
lastChange = "2025-05-29 09:07:02 +0000";
layers = (
{
layerId = m01;
shapes = (
{
closed = 1;
nodes = (
(465,432,o),
(462.333,433,o),
(457,433,cs),
(118,433,ls),
(102,433,o),
(95,409.333,o),
(95,388,cs),
(95,378.667,o),
(97.667,378,o),
(103,378,cs),
(442,378,ls),
(458,378,o),
(465,402.667,o),
(465,424,cs)
);
},
{
closed = 1;
nodes = (
(453,276.333,o),
(451.333,277,o),
(446,277,cs),
(107,277,ls),
(89.667,277,o),
(84,252,o),
(84,232,cs),
(84,224,o),
(86.667,223,o),
(92,223,cs),
(431,223,ls),
(447,223,o),
(453,245.667,o),
(453,267,cs)
);
}
);
userData = {
assembly = "SVTCA[0]	/* SetFreedomAndProjectionVectorToAxis */
PUSHW[ ]	/* 4 values pushed */
25 1 17 4
CALL[ ]	/* CallFunction */
PUSHW[ ]	/* 4 values pushed */
11 1 3 4
CALL[ ]	/* CallFunction */
IUP[0]	/* InterpolateUntPts */
IUP[1]	/* InterpolateUntPts */";
};
width = 550;
}
);
note = equal;
unicode = 61;
},
{
glyphname = greater;
lastChange = "2025-05-29 09:07:02 +0000";
layers = (
{
layerId = m01;
shapes = (
{
closed = 1;
nodes = (
(472,332,o),
(470.333,341,o),
(453,349,cs),
(140,497,ls),
(128.667,502.333,o),
(121.667,505,o),
(119,505,cs),
(107,505,o),
(107,490.667,o),
(107,472,cs),
(107,469.333,o),
(107.5,466.667,o),
(108.5,464,cs),
(109.5,461.333,o),
(113.667,458.333,o),
(121,455,cs),
(418,315,l),
(82,174,ls),
(64.637,166.559,o),
(65,141.429,o),
(65,131,cs),
(65,123,o),
(67.667,116,o),
(73,116,cs),
(75,116,o),
(77.833,116.333,o),
(81.5,117,cs),
(85.167,117.667,o),
(90.333,119.667,o),
(97,123,cs),
(451,277,ls),
(465,283,o),
(472,292,o),
(472,304,cs)
);
}
);
userData = {
assembly = "SVTCA[0]	/* SetFreedomAndProjectionVectorToAxis */
PUSHW[ ]	/* 1 value pushed */
22
MDAP[1]	/* MoveDirectAbsPt */
PUSHW[ ]	/* 1 value pushed */
3
MDAP[1]	/* MoveDirectAbsPt */
PUSHW[ ]	/* 1 value pushed */
6
MDAP[1]	/* MoveDirectAbsPt */
PUSHW[ ]	/* 3 values pushed */
15 6 22
SRP1[ ]	/* SetRefPoint1 */
SRP2[ ]	/* SetRefPoint2 */
IP[ ]	/* InterpolatePts */
IUP[0]	/* InterpolateUntPts */
IUP[1]	/* InterpolateUntPts */";
};
width = 550;
}
);
note = greater;
unicode = 62;
},
{
glyphname = question;
lastChange = "2025-05-29 09:07:02 +0000";
layers = (
{
layerId = m01;
shapes = (
{
closed = 1;
nodes = (
(379,545.667,o),
(366.333,579.333,o),
(345,602,cs),
(313,636.667,o),
(261.667,652,o),
(203,652,cs),
(139,652,o),
(73.333,627.333,o),
(44,582,c),
(41.333,579.333,o),
(39,575,o),
(39,567,cs),
(39,556.333,o),
(40.5,547.667,o),
(43.5,541,cs),
(46.5,534.333,o),
(50,531,o),
(54,531,cs),
(55.333,531,o),
(58.333,533.833,o),
(63,539.5,cs),
(67.667,545.167,o),
(74.667,553,o),
(84,563,cs),
(106.667,587,o),
(148.667,615,o),
(218,615,cs),
(284.267,615,o),
(320,565.174,o),
(320,506,cs),
(320,426.367,o),
(232.301,361.726,o),
(170,315,cs),
(147.333,297.667,o),
(125,271.667,o),
(125,241,cs),
(125,227.667,o),
(125,207,o),
(137,207,cs),
(153.236,207,o),
(163.713,254.013,o),
(223,298,cs),
(286.969,345.977,o),
(379,411.202,o),
(379,503,cs)
);
},
{
closed = 1;
nodes = (
(188,74.667,o),
(174.667,91,o),
(160,91,cs),
(144,91,o),
(115,68.333,o),
(115,35,cs),
(115,11,o),
(122.333,0,o),
(145,0,cs),
(171.667,0,o),
(188,18.667,o),
(188,40,cs)
);
}
);
userData = {
assembly = "PUSHW[ ]	/* 4 values pushed */
0 3 21 4
CALL[ ]	/* CallFunction */
NPUSHW[ ]	/* 5 values pushed */
74 21 90 21 2
DELTAP2[ ]	/* DeltaExceptionP2 */
NPUSHW[ ]	/* 33 values pushed */
9 21 25 21 41 21 57 21 73 21 89 21 105 21 121 21 137 21 153 21 169 21 185 21 201 21 217 21 233 21 249 21 16
DELTAP1[ ]	/* DeltaExceptionP1 */
NPUSHW[ ]	/* 9 values pushed */
9 21 25 21 41 21 57 21 4
DELTAP2[ ]	/* DeltaExceptionP2 */
SVTCA[0]	/* SetFreedomAndProjectionVectorToAxis */
PUSHW[ ]	/* 1 value pushed */
0
RCVT[ ]	/* ReadCVT */
IF[ ]	/* If */
PUSHW[ ]	/* 1 value pushed */
50
MDAP[1]	/* MoveDirectAbsPt */
ELSE[ ]	/* Else */
PUSHW[ ]	/* 2 values pushed */
50 5
MIAP[0]	/* MoveIndirectAbsPt */
EIF[ ]	/* EndIf */
PUSHW[ ]	/* 4 values pushed */
41 2 26 4
CALL[ ]	/* CallFunction */
PUSHW[ ]	/* 1 value pushed */
50
SRP0[ ]	/* SetRefPoint0 */
PUSHW[ ]	/* 1 value pushed */
56
MDRP[11100]	/* MoveDirectRelPt */
NPUSHW[ ]	/* 27 values pushed */
7 56 23 56 39 56 55 56 71 56 87 56 103 56 119 56 135 56 151 56 167 56 183 56 199 56 13
DELTAP1[ ]	/* DeltaExceptionP1 */
NPUSHW[ ]	/* 5 values pushed */
214 56 230 56 2
DELTAP1[ ]	/* DeltaExceptionP1 */
IUP[0]	/* InterpolateUntPts */
IUP[1]	/* InterpolateUntPts */";
};
width = 447;
}
);
note = question;
unicode = 63;
},
{
glyphname = at;
lastChange = "2025-05-29 09:07:02 +0000";
layers = (
{
layerId = m01;
shapes = (
{
closed = 1;
nodes = (
(776,503.863,o),
(688.881,652,o),
(421,652,cs),
(174.673,652,o),
(38,467.912,o),
(38,208,cs),
(38,109.333,o),
(57,4,o),
(97,-108,cs),
(102.333,-122.667,o),
(115,-131,o),
(127,-131,cs),
(133.667,-131,o),
(137,-129,o),
(137,-125,cs),
(137,-121.667,o),
(135.833,-116.833,o),
(133.5,-110.5,cs),
(131.167,-104.167,o),
(129.333,-98.667,o),
(128,-94,cs),
(97.333,14,o),
(83,109,o),
(83,193,cs),
(83,327.667,o),
(120.833,430.5,o),
(181.5,500.5,cs),
(242.167,570.5,o),
(328,606,o),
(424,606,cs),
(631.304,606,o),
(734,506.166,o),
(734,351,cs),
(734,232.333,o),
(689,138.667,o),
(617,64,cs),
(602.333,49.333,o),
(592.333,42,o),
(587,42,cs),
(581.667,42,o),
(578,44.333,o),
(576,49,cs),
(574,53.667,o),
(573,65,o),
(573,83,cs),
(573,223.122,o),
(587,368.515,o),
(587,394,c),
(593.667,394,o),
(597,402.333,o),
(597,419,cs),
(597,423,o),
(595.667,425.333,o),
(593,426,cs),
(499.788,443.261,o),
(415.6,448,o),
(414,448,cs),
(358,448,o),
(304.667,414.667,o),
(262,356,cs),
(217.421,298.31,o),
(215,114.392,o),
(215,53,cs),
(215,33,o),
(216.333,20.333,o),
(219,15,cs),
(221.566,7.301,o),
(250.064,-13,o),
(262,-13,cs),
(286.267,-13,o),
(337.061,29.826,o),
(392,98.5,cs),
(449.354,170.193,o),
(491.114,232.533,o),
(528,304,c),
(521.218,236.176,o),
(516,95.47,o),
(516,53,cs),
(516,33,o),
(516.333,21.667,o),
(519,15,cs),
(521.699,6.903,o),
(552.76,-13,o),
(562,-13,cs),
(578,-13,o),
(606.667,4.333,o),
(636,35,cs),
(717.333,123,o),
(776,235.667,o),
(776,353,cs)
);
},
{
closed = 1;
nodes = (
(517.87,334.997,o),
(463.559,247.424,o),
(407.5,172,cs),
(342.623,84.711,o),
(297.069,42,o),
(286,42,cs),
(280.667,42,o),
(277,44.333,o),
(275,49,cs),
(273,53.667,o),
(272,65,o),
(272,83,cs),
(272,190.333,o),
(281.333,272,o),
(300,328,cs),
(318.667,384,o),
(346,412,o),
(382,412,cs),
(414,412,o),
(463,408.667,o),
(535,394,c)
);
}
);
userData = {
assembly = "PUSHW[ ]	/* 4 values pushed */
73 4 87 4
CALL[ ]	/* CallFunction */
PUSHW[ ]	/* 4 values pushed */
103 3 33 4
CALL[ ]	/* CallFunction */
PUSHW[ ]	/* 4 values pushed */
0 4 63 4
CALL[ ]	/* CallFunction */
PUSHW[ ]	/* 4 values pushed */
55 3 14 4
CALL[ ]	/* CallFunction */
NPUSHW[ ]	/* 5 values pushed */
74 14 90 14 2
DELTAP2[ ]	/* DeltaExceptionP2 */
NPUSHW[ ]	/* 33 values pushed */
9 14 25 14 41 14 57 14 73 14 89 14 105 14 121 14 137 14 153 14 169 14 185 14 201 14 217 14 233 14 249 14 16
DELTAP1[ ]	/* DeltaExceptionP1 */
NPUSHW[ ]	/* 9 values pushed */
9 14 25 14 41 14 57 14 4
DELTAP2[ ]	/* DeltaExceptionP2 */
PUSHW[ ]	/* 3 values pushed */
19 14 55
SRP1[ ]	/* SetRefPoint1 */
SRP2[ ]	/* SetRefPoint2 */
IP[ ]	/* InterpolatePts */
NPUSHW[ ]	/* 5 values pushed */
74 63 90 63 2
DELTAP2[ ]	/* DeltaExceptionP2 */
NPUSHW[ ]	/* 33 values pushed */
9 63 25 63 41 63 57 63 73 63 89 63 105 63 121 63 137 63 153 63 169 63 185 63 201 63 217 63 233 63 249 63 16
DELTAP1[ ]	/* DeltaExceptionP1 */
NPUSHW[ ]	/* 9 values pushed */
9 63 25 63 41 63 57 63 4
DELTAP2[ ]	/* DeltaExceptionP2 */
NPUSHW[ ]	/* 33 values pushed */
6 73 22 73 38 73 54 73 70 73 86 73 102 73 118 73 134 73 150 73 166 73 182 73 198 73 214 73 230 73 246 73 16
DELTAP1[ ]	/* DeltaExceptionP1 */
NPUSHW[ ]	/* 9 values pushed */
6 73 22 73 38 73 54 73 4
DELTAP2[ ]	/* DeltaExceptionP2 */
NPUSHW[ ]	/* 5 values pushed */
69 73 85 73 2
DELTAP2[ ]	/* DeltaExceptionP2 */
NPUSHW[ ]	/* 33 values pushed */
6 103 22 103 38 103 54 103 70 103 86 103 102 103 118 103 134 103 150 103 166 103 182 103 198 103 214 103 230 103 246 103 16
DELTAP1[ ]	/* DeltaExceptionP1 */
NPUSHW[ ]	/* 9 values pushed */
6 103 22 103 38 103 54 103 4
DELTAP2[ ]	/* DeltaExceptionP2 */
NPUSHW[ ]	/* 5 values pushed */
69 103 85 103 2
DELTAP2[ ]	/* DeltaExceptionP2 */
SVTCA[0]	/* SetFreedomAndProjectionVectorToAxis */
PUSHW[ ]	/* 1 value pushed */
0
RCVT[ ]	/* ReadCVT */
IF[ ]	/* If */
PUSHW[ ]	/* 1 value pushed */
79
MDAP[1]	/* MoveDirectAbsPt */
ELSE[ ]	/* Else */
PUSHW[ ]	/* 2 values pushed */
79 5
MIAP[0]	/* MoveIndirectAbsPt */
EIF[ ]	/* EndIf */
PUSHW[ ]	/* 1 value pushed */
0
RCVT[ ]	/* ReadCVT */
IF[ ]	/* If */
PUSHW[ ]	/* 1 value pushed */
81
MDAP[1]	/* MoveDirectAbsPt */
ELSE[ ]	/* Else */
PUSHW[ ]	/* 2 values pushed */
81 5
MIAP[0]	/* MoveIndirectAbsPt */
EIF[ ]	/* EndIf */
PUSHW[ ]	/* 1 value pushed */
0
RCVT[ ]	/* ReadCVT */
IF[ ]	/* If */
PUSHW[ ]	/* 1 value pushed */
6
MDAP[1]	/* MoveDirectAbsPt */
ELSE[ ]	/* Else */
PUSHW[ ]	/* 2 values pushed */
6 5
MIAP[0]	/* MoveIndirectAbsPt */
EIF[ ]	/* EndIf */
PUSHW[ ]	/* 1 value pushed */
0
RCVT[ ]	/* ReadCVT */
IF[ ]	/* If */
PUSHW[ ]	/* 1 value pushed */
26
MDAP[1]	/* MoveDirectAbsPt */
ELSE[ ]	/* Else */
PUSHW[ ]	/* 2 values pushed */
26 5
MIAP[0]	/* MoveIndirectAbsPt */
EIF[ ]	/* EndIf */
PUSHW[ ]	/* 4 values pushed */
92 1 68 4
CALL[ ]	/* CallFunction */
PUSHW[ ]	/* 4 values pushed */
41 2 100 4
CALL[ ]	/* CallFunction */
PUSHW[ ]	/* 1 value pushed */
6
SRP0[ ]	/* SetRefPoint0 */
PUSHW[ ]	/* 2 values pushed */
58 1
MIRP[10100]	/* MoveIndirectRelPt */
NPUSHW[ ]	/* 33 values pushed */
7 58 23 58 39 58 55 58 71 58 87 58 103 58 119 58 135 58 151 58 167 58 183 58 199 58 215 58 231 58 247 58 16
DELTAP1[ ]	/* DeltaExceptionP1 */
NPUSHW[ ]	/* 9 values pushed */
7 58 23 58 39 58 55 58 4
DELTAP2[ ]	/* DeltaExceptionP2 */
NPUSHW[ ]	/* 5 values pushed */
70 58 86 58 2
DELTAP2[ ]	/* DeltaExceptionP2 */
PUSHW[ ]	/* 1 value pushed */
106
MDRP[10000]	/* MoveDirectRelPt */
IUP[0]	/* InterpolateUntPts */
IUP[1]	/* InterpolateUntPts */";
};
width = 805;
}
);
note = at;
unicode = 64;
},
{
glyphname = A;
lastChange = "2025-05-29 09:07:02 +0000";
layers = (
{
layerId = m01;
shapes = (
{
closed = 1;
nodes = (
(567,-3,o),
(566.667,-1.167,o),
(566,0.5,cs),
(565.333,2.167,o),
(564.333,5.333,o),
(563,10,cs),
(548.628,51.321,o),
(514.406,158.245,o),
(456.5,329.5,cs),
(409.836,467.505,o),
(362.353,614.728,o),
(357,634,cs),
(354.333,642,o),
(331,652,o),
(307,652,cs),
(300.333,652,o),
(296.333,650,o),
(295,646,c),
(256.631,569.262,o),
(208.226,473.471,o),
(127,314.5,cs),
(52.976,169.624,o),
(-9.031,50.84,o),
(-25,26,cs),
(-27.667,22,o),
(-30,16.667,o),
(-30,14,cs),
(-30,-4.667,o),
(-10,-13,o),
(10,-13,cs),
(14,-13,o),
(17.333,-10,o),
(20,-4,cs),
(23.556,8.447,o),
(43.959,50.415,o),
(79,123,cs),
(107.608,182.26,o),
(137.334,240.001,o),
(142,247,c),
(174,248.333,o),
(233,251,o),
(285,251,cs),
(346.333,251,o),
(403.667,249.333,o),
(425,248,c),
(442.383,195.851,o),
(473.25,94.418,o),
(493,22,cs),
(494.333,16,o),
(495.833,11.667,o),
(497.5,9,cs),
(499.167,6.333,o),
(500.667,4.333,o),
(502,3,cs),
(510,-5,o),
(528,-13,o),
(556,-13,cs),
(566.667,-13,o),
(567,-10.333,o),
(567,-5,cs)
);
},
{
closed = 1;
nodes = (
(166.316,296.08,o),
(191.478,345.957,o),
(234,431,cs),
(267.762,498.524,o),
(296.791,551.23,o),
(314,578,c),
(319.152,563.831,o),
(339.887,506.34,o),
(362,440,cs),
(382.675,377.975,o),
(403.257,319.037,o),
(411,290,c),
(163,290,l),
(163,290,l)
);
}
);
userData = {
assembly = "SVTCA[0]	/* SetFreedomAndProjectionVectorToAxis */
PUSHW[ ]	/* 1 value pushed */
0
RCVT[ ]	/* ReadCVT */
IF[ ]	/* If */
PUSHW[ ]	/* 1 value pushed */
3
MDAP[1]	/* MoveDirectAbsPt */
ELSE[ ]	/* Else */
PUSHW[ ]	/* 2 values pushed */
3 5
MIAP[0]	/* MoveIndirectAbsPt */
EIF[ ]	/* EndIf */
PUSHW[ ]	/* 1 value pushed */
0
RCVT[ ]	/* ReadCVT */
IF[ ]	/* If */
PUSHW[ ]	/* 1 value pushed */
29
MDAP[1]	/* MoveDirectAbsPt */
ELSE[ ]	/* Else */
PUSHW[ ]	/* 2 values pushed */
29 5
MIAP[0]	/* MoveIndirectAbsPt */
EIF[ ]	/* EndIf */
PUSHW[ ]	/* 4 values pushed */
71 1 20 4
CALL[ ]	/* CallFunction */
PUSHW[ ]	/* 1 value pushed */
20
SRP0[ ]	/* SetRefPoint0 */
PUSHW[ ]	/* 1 value pushed */
14
MDRP[10000]	/* MoveDirectRelPt */
PUSHW[ ]	/* 1 value pushed */
14
MDAP[1]	/* MoveDirectAbsPt */
PUSHW[ ]	/* 1 value pushed */
20
SRP0[ ]	/* SetRefPoint0 */
PUSHW[ ]	/* 1 value pushed */
17
MDRP[10000]	/* MoveDirectRelPt */
PUSHW[ ]	/* 1 value pushed */
17
MDAP[1]	/* MoveDirectAbsPt */
IUP[0]	/* InterpolateUntPts */
IUP[1]	/* InterpolateUntPts */";
};
width = 602;
}
);
note = A;
unicode = 65;
},
{
glyphname = B;
lastChange = "2025-05-29 09:07:02 +0000";
layers = (
{
layerId = m01;
shapes = (
{
closed = 1;
nodes = (
(480,272.018,o),
(428.769,342.217,o),
(325,350,c),
(363.051,365.22,o),
(460,402.817,o),
(460,510,cs),
(460,594,o),
(399,639,o),
(275,639,cs),
(132,639,l),
(128.145,534.908,o),
(121.038,401.102,o),
(113.5,266.5,cs),
(106.714,145.329,o),
(98.878,27.339,o),
(96,0,c),
(254,0,ls),
(402,0,o),
(480,102.667,o),
(480,196,cs)
);
},
{
closed = 1;
nodes = (
(401,460.333,o),
(381,419.667,o),
(353,397,cs),
(310.551,365.163,o),
(270.067,357,o),
(174,357,c),
(179.333,461,o),
(186.333,550.667,o),
(193,596,c),
(211.667,598.667,o),
(248.333,602,o),
(267,602,cs),
(355,602,o),
(401,575,o),
(401,503,cs)
);
},
{
closed = 1;
nodes = (
(420,91,o),
(353.667,37,o),
(251,37,cs),
(176.261,37,o),
(162,41.772,o),
(162,82,cs),
(162,156.323,o),
(166.565,292.523,o),
(170,320,c),
(257,320,ls),
(318.764,320,o),
(420,304.114,o),
(420,199,cs)
);
}
);
userData = {
assembly = "PUSHW[ ]	/* 1 value pushed */
63
MDAP[1]	/* MoveDirectAbsPt */
PUSHW[ ]	/* 1 value pushed */
27
MDAP[1]	/* MoveDirectAbsPt */
PUSHW[ ]	/* 1 value pushed */
63
SRP0[ ]	/* SetRefPoint0 */
PUSHW[ ]	/* 1 value pushed */
13
MDRP[10000]	/* MoveDirectRelPt */
PUSHW[ ]	/* 1 value pushed */
13
MDAP[1]	/* MoveDirectAbsPt */
NPUSHW[ ]	/* 5 values pushed */
74 27 90 27 2
DELTAP2[ ]	/* DeltaExceptionP2 */
NPUSHW[ ]	/* 33 values pushed */
9 27 25 27 41 27 57 27 73 27 89 27 105 27 121 27 137 27 153 27 169 27 185 27 201 27 217 27 233 27 249 27 16
DELTAP1[ ]	/* DeltaExceptionP1 */
NPUSHW[ ]	/* 9 values pushed */
9 27 25 27 41 27 57 27 4
DELTAP2[ ]	/* DeltaExceptionP2 */
PUSHW[ ]	/* 1 value pushed */
27
SRP0[ ]	/* SetRefPoint0 */
PUSHW[ ]	/* 2 values pushed */
17 3
MIRP[10100]	/* MoveIndirectRelPt */
PUSHW[ ]	/* 3 values pushed */
22 13 17
SRP1[ ]	/* SetRefPoint1 */
SRP2[ ]	/* SetRefPoint2 */
IP[ ]	/* InterpolatePts */
PUSHW[ ]	/* 1 value pushed */
13
SRP0[ ]	/* SetRefPoint0 */
PUSHW[ ]	/* 2 values pushed */
36 4
MIRP[10100]	/* MoveIndirectRelPt */
PUSHW[ ]	/* 1 value pushed */
50
MDRP[10000]	/* MoveDirectRelPt */
PUSHW[ ]	/* 1 value pushed */
50
MDAP[1]	/* MoveDirectAbsPt */
PUSHW[ ]	/* 1 value pushed */
17
SRP0[ ]	/* SetRefPoint0 */
PUSHW[ ]	/* 1 value pushed */
64
MDRP[11100]	/* MoveDirectRelPt */
SVTCA[0]	/* SetFreedomAndProjectionVectorToAxis */
PUSHW[ ]	/* 1 value pushed */
0
RCVT[ ]	/* ReadCVT */
IF[ ]	/* If */
PUSHW[ ]	/* 1 value pushed */
5
MDAP[1]	/* MoveDirectAbsPt */
ELSE[ ]	/* Else */
PUSHW[ ]	/* 2 values pushed */
5 5
MIAP[0]	/* MoveIndirectAbsPt */
EIF[ ]	/* EndIf */
PUSHW[ ]	/* 4 values pushed */
14 2 30 4
CALL[ ]	/* CallFunction */
PUSHW[ ]	/* 4 values pushed */
36 2 50 4
CALL[ ]	/* CallFunction */
PUSHW[ ]	/* 1 value pushed */
36
SRP0[ ]	/* SetRefPoint0 */
PUSHW[ ]	/* 1 value pushed */
22
MDRP[10000]	/* MoveDirectRelPt */
PUSHW[ ]	/* 1 value pushed */
22
MDAP[1]	/* MoveDirectAbsPt */
PUSHW[ ]	/* 1 value pushed */
30
SRP0[ ]	/* SetRefPoint0 */
PUSHW[ ]	/* 1 value pushed */
33
MDRP[10000]	/* MoveDirectRelPt */
PUSHW[ ]	/* 1 value pushed */
33
MDAP[1]	/* MoveDirectAbsPt */
PUSHW[ ]	/* 1 value pushed */
5
SRP0[ ]	/* SetRefPoint0 */
PUSHW[ ]	/* 2 values pushed */
60 2
MIRP[10100]	/* MoveIndirectRelPt */
NPUSHW[ ]	/* 33 values pushed */
7 60 23 60 39 60 55 60 71 60 87 60 103 60 119 60 135 60 151 60 167 60 183 60 199 60 215 60 231 60 247 60 16
DELTAP1[ ]	/* DeltaExceptionP1 */
NPUSHW[ ]	/* 31 values pushed */
7 60 23 60 39 60 55 60 71 60 87 60 103 60 119 60 135 60 151 60 167 60 183 60 199 60 215 60 231 60 15
DELTAP2[ ]	/* DeltaExceptionP2 */
NPUSHW[ ]	/* 3 values pushed */
246 60 1
DELTAP2[ ]	/* DeltaExceptionP2 */
NPUSHW[ ]	/* 3 values pushed */
6 60 1
DELTAP3[ ]	/* DeltaExceptionP3 */
IUP[0]	/* InterpolateUntPts */
IUP[1]	/* InterpolateUntPts */";
};
width = 567;
}
);
note = B;
unicode = 66;
},
{
glyphname = C;
lastChange = "2025-05-29 09:07:02 +0000";
layers = (
{
layerId = m01;
shapes = (
{
closed = 1;
nodes = (
(619,599.333,o),
(618.5,602.833,o),
(617.5,606.5,cs),
(616.5,610.167,o),
(610.667,614.667,o),
(600,620,cs),
(558.667,640,o),
(495,652,o),
(387,652,cs),
(150.218,652,o),
(63,473.556,o),
(63,312,cs),
(63,62.647,o),
(237.003,-13,o),
(401,-13,cs),
(486.32,-13,o),
(575.155,7.493,o),
(606,26,cs),
(616.667,32.667,o),
(619,49.333,o),
(619,68,cs),
(619,77.333,o),
(618,82,o),
(616,82,cs),
(613.333,82,o),
(606.667,79.333,o),
(596,74,cs),
(562.667,56.667,o),
(488.333,32,o),
(391,32,cs),
(247.002,32,o),
(124,121.331,o),
(124,316,cs),
(124,514.13,o),
(246.846,613,o),
(399,613,cs),
(515.271,613,o),
(561.103,555,o),
(608,555,cs),
(614.667,555,o),
(619,581.333,o),
(619,596,cs)
);
}
);
userData = {
assembly = "PUSHW[ ]	/* 4 values pushed */
13 3 38 4
CALL[ ]	/* CallFunction */
NPUSHW[ ]	/* 33 values pushed */
6 13 22 13 38 13 54 13 70 13 86 13 102 13 118 13 134 13 150 13 166 13 182 13 198 13 214 13 230 13 246 13 16
DELTAP1[ ]	/* DeltaExceptionP1 */
NPUSHW[ ]	/* 9 values pushed */
6 13 22 13 38 13 54 13 4
DELTAP2[ ]	/* DeltaExceptionP2 */
NPUSHW[ ]	/* 5 values pushed */
69 13 85 13 2
DELTAP2[ ]	/* DeltaExceptionP2 */
SVTCA[0]	/* SetFreedomAndProjectionVectorToAxis */
PUSHW[ ]	/* 1 value pushed */
0
RCVT[ ]	/* ReadCVT */
IF[ ]	/* If */
PUSHW[ ]	/* 1 value pushed */
33
MDAP[1]	/* MoveDirectAbsPt */
ELSE[ ]	/* Else */
PUSHW[ ]	/* 2 values pushed */
33 5
MIAP[0]	/* MoveIndirectAbsPt */
EIF[ ]	/* EndIf */
PUSHW[ ]	/* 4 values pushed */
43 2 8 4
CALL[ ]	/* CallFunction */
PUSHW[ ]	/* 1 value pushed */
33
SRP0[ ]	/* SetRefPoint0 */
PUSHW[ ]	/* 2 values pushed */
18 1
MIRP[10100]	/* MoveIndirectRelPt */
NPUSHW[ ]	/* 33 values pushed */
7 18 23 18 39 18 55 18 71 18 87 18 103 18 119 18 135 18 151 18 167 18 183 18 199 18 215 18 231 18 247 18 16
DELTAP1[ ]	/* DeltaExceptionP1 */
NPUSHW[ ]	/* 9 values pushed */
7 18 23 18 39 18 55 18 4
DELTAP2[ ]	/* DeltaExceptionP2 */
NPUSHW[ ]	/* 5 values pushed */
70 18 86 18 2
DELTAP2[ ]	/* DeltaExceptionP2 */
IUP[0]	/* InterpolateUntPts */
IUP[1]	/* InterpolateUntPts */";
};
width = 629;
}
);
note = C;
unicode = 67;
},
{
glyphname = D;
lastChange = "2025-05-29 09:07:02 +0000";
layers = (
{
layerId = m01;
shapes = (
{
closed = 1;
nodes = (
(674,551.667,o),
(559.333,639,o),
(358,639,cs),
(132,639,l),
(128.916,555.732,o),
(120.065,383.056,o),
(112,252,cs),
(102.41,96.16,o),
(96.641,5.773,o),
(96,0,c),
(278,0,ls),
(416.667,0,o),
(516,39.833,o),
(580,104.5,cs),
(644,169.167,o),
(674,261,o),
(674,365,cs)
);
},
{
closed = 1;
nodes = (
(606,122.964,o),
(463.213,37,o),
(251,37,cs),
(176.261,37,o),
(162,41.772,o),
(162,82,cs),
(162,251.94,o),
(180.258,463.481,o),
(193,596,c),
(239.667,601.333,o),
(281.333,603,o),
(320,603,cs),
(514.173,603,o),
(606,535.654,o),
(606,349,cs)
);
}
);
userData = {
assembly = "PUSHW[ ]	/* 1 value pushed */
40
MDAP[1]	/* MoveDirectAbsPt */
PUSHW[ ]	/* 1 value pushed */
17
MDAP[1]	/* MoveDirectAbsPt */
NPUSHW[ ]	/* 5 values pushed */
74 17 90 17 2
DELTAP2[ ]	/* DeltaExceptionP2 */
NPUSHW[ ]	/* 33 values pushed */
9 17 25 17 41 17 57 17 73 17 89 17 105 17 121 17 137 17 153 17 169 17 185 17 201 17 217 17 233 17 249 17 16
DELTAP1[ ]	/* DeltaExceptionP1 */
NPUSHW[ ]	/* 9 values pushed */
9 17 25 17 41 17 57 17 4
DELTAP2[ ]	/* DeltaExceptionP2 */
PUSHW[ ]	/* 2 values pushed */
0 3
MIRP[10100]	/* MoveIndirectRelPt */
PUSHW[ ]	/* 1 value pushed */
40
SRP0[ ]	/* SetRefPoint0 */
PUSHW[ ]	/* 1 value pushed */
13
MDRP[10000]	/* MoveDirectRelPt */
PUSHW[ ]	/* 1 value pushed */
13
MDAP[1]	/* MoveDirectAbsPt */
PUSHW[ ]	/* 2 values pushed */
25 3
MIRP[10100]	/* MoveIndirectRelPt */
PUSHW[ ]	/* 1 value pushed */
0
SRP0[ ]	/* SetRefPoint0 */
PUSHW[ ]	/* 1 value pushed */
41
MDRP[11100]	/* MoveDirectRelPt */
SVTCA[0]	/* SetFreedomAndProjectionVectorToAxis */
PUSHW[ ]	/* 1 value pushed */
0
RCVT[ ]	/* ReadCVT */
IF[ ]	/* If */
PUSHW[ ]	/* 1 value pushed */
5
MDAP[1]	/* MoveDirectAbsPt */
ELSE[ ]	/* Else */
PUSHW[ ]	/* 2 values pushed */
5 5
MIAP[0]	/* MoveIndirectAbsPt */
EIF[ ]	/* EndIf */
PUSHW[ ]	/* 4 values pushed */
14 2 22 4
CALL[ ]	/* CallFunction */
PUSHW[ ]	/* 1 value pushed */
22
SRP0[ ]	/* SetRefPoint0 */
PUSHW[ ]	/* 1 value pushed */
25
MDRP[10000]	/* MoveDirectRelPt */
PUSHW[ ]	/* 1 value pushed */
25
MDAP[1]	/* MoveDirectAbsPt */
PUSHW[ ]	/* 1 value pushed */
5
SRP0[ ]	/* SetRefPoint0 */
PUSHW[ ]	/* 2 values pushed */
35 2
MIRP[10100]	/* MoveIndirectRelPt */
NPUSHW[ ]	/* 33 values pushed */
7 35 23 35 39 35 55 35 71 35 87 35 103 35 119 35 135 35 151 35 167 35 183 35 199 35 215 35 231 35 247 35 16
DELTAP1[ ]	/* DeltaExceptionP1 */
NPUSHW[ ]	/* 31 values pushed */
7 35 23 35 39 35 55 35 71 35 87 35 103 35 119 35 135 35 151 35 167 35 183 35 199 35 215 35 231 35 15
DELTAP2[ ]	/* DeltaExceptionP2 */
NPUSHW[ ]	/* 3 values pushed */
246 35 1
DELTAP2[ ]	/* DeltaExceptionP2 */
NPUSHW[ ]	/* 3 values pushed */
6 35 1
DELTAP3[ ]	/* DeltaExceptionP3 */
IUP[0]	/* InterpolateUntPts */
IUP[1]	/* InterpolateUntPts */";
};
width = 737;
}
);
note = D;
unicode = 68;
},
{
glyphname = E;
lastChange = "2025-05-29 09:07:02 +0000";
layers = (
{
layerId = m01;
shapes = (
{
closed = 1;
nodes = (
(497,53.333,o),
(495.333,58,o),
(492,58,cs),
(486.888,58,o),
(465.69,51.088,o),
(437.5,47.5,cs),
(400.833,42.833,o),
(342.667,37,o),
(252,37,cs),
(177.261,37,o),
(163,41.772,o),
(163,82,cs),
(163,150,o),
(164.667,228,o),
(170,312,c),
(210,312,ls),
(280.667,312,o),
(333.333,310.667,o),
(368,308,cs),
(402.667,305.333,o),
(421,304,o),
(423,304,cs),
(427,304,o),
(433,326.333,o),
(433,341,cs),
(433,350.333,o),
(431.333,355,o),
(428,355,cs),
(172,355,l),
(179.9,457.695,o),
(186.293,552.327,o),
(194,596,c),
(226,596,ls),
(296.667,596,o),
(349.5,594.5,o),
(384.5,591.5,cs),
(419.5,588.5,o),
(437.667,587,o),
(439,587,cs),
(443,587,o),
(449,610.333,o),
(449,625,cs),
(449,634.333,o),
(447.333,639,o),
(444,639,cs),
(133,639,l),
(129.145,534.908,o),
(122.038,401.102,o),
(114.5,266.5,cs),
(107.042,133.33,o),
(99.861,36.68,o),
(96,0,c),
(480,0,ls),
(486.667,0,o),
(497,25.333,o),
(497,44,cs)
);
}
);
userData = {
assembly = "PUSHW[ ]	/* 4 values pushed */
26 4 11 4
CALL[ ]	/* CallFunction */
PUSHW[ ]	/* 1 value pushed */
26
SRP0[ ]	/* SetRefPoint0 */
PUSHW[ ]	/* 1 value pushed */
36
MDRP[10000]	/* MoveDirectRelPt */
PUSHW[ ]	/* 1 value pushed */
36
MDAP[1]	/* MoveDirectAbsPt */
SVTCA[0]	/* SetFreedomAndProjectionVectorToAxis */
PUSHW[ ]	/* 1 value pushed */
0
RCVT[ ]	/* ReadCVT */
IF[ ]	/* If */
PUSHW[ ]	/* 1 value pushed */
3
MDAP[1]	/* MoveDirectAbsPt */
ELSE[ ]	/* Else */
PUSHW[ ]	/* 2 values pushed */
3 5
MIAP[0]	/* MoveIndirectAbsPt */
EIF[ ]	/* EndIf */
PUSHW[ ]	/* 4 values pushed */
11 1 21 4
CALL[ ]	/* CallFunction */
PUSHW[ ]	/* 4 values pushed */
26 1 36 4
CALL[ ]	/* CallFunction */
PUSHW[ ]	/* 1 value pushed */
3
SRP0[ ]	/* SetRefPoint0 */
PUSHW[ ]	/* 2 values pushed */
44 2
MIRP[10100]	/* MoveIndirectRelPt */
NPUSHW[ ]	/* 33 values pushed */
7 44 23 44 39 44 55 44 71 44 87 44 103 44 119 44 135 44 151 44 167 44 183 44 199 44 215 44 231 44 247 44 16
DELTAP1[ ]	/* DeltaExceptionP1 */
NPUSHW[ ]	/* 31 values pushed */
7 44 23 44 39 44 55 44 71 44 87 44 103 44 119 44 135 44 151 44 167 44 183 44 199 44 215 44 231 44 15
DELTAP2[ ]	/* DeltaExceptionP2 */
NPUSHW[ ]	/* 3 values pushed */
246 44 1
DELTAP2[ ]	/* DeltaExceptionP2 */
NPUSHW[ ]	/* 3 values pushed */
6 44 1
DELTAP3[ ]	/* DeltaExceptionP3 */
IUP[0]	/* InterpolateUntPts */
IUP[1]	/* InterpolateUntPts */";
};
width = 554;
}
);
note = E;
unicode = 69;
},
{
glyphname = F;
lastChange = "2025-05-29 09:07:02 +0000";
layers = (
{
layerId = m01;
shapes = (
{
closed = 1;
nodes = (
(447,634.333,o),
(445.333,639,o),
(442,639,cs),
(131,639,l),
(131,600.547,o),
(127.833,512.067,o),
(122.5,399,cs),
(117.048,283.41,o),
(110.765,180.264,o),
(105,113,cs),
(99.665,48.975,o),
(96,16.032,o),
(96,14,cs),
(96,-4.667,o),
(126.333,-13,o),
(149,-13,cs),
(155.667,-13,o),
(159,-10.333,o),
(159,-5,cs),
(159,30.762,o),
(160.662,169.225,o),
(166,292,c),
(207,292,ls),
(277.667,292,o),
(330.333,290.5,o),
(365,287.5,cs),
(399.667,284.5,o),
(417.667,283,o),
(419,283,cs),
(423,283,o),
(429,306.333,o),
(429,321,cs),
(429,330.333,o),
(427.333,335,o),
(424,335,cs),
(169,335,l),
(175.667,459,o),
(184.333,552,o),
(191,596,c),
(224,596,ls),
(294.667,596,o),
(347.333,594.5,o),
(382,591.5,cs),
(416.667,588.5,o),
(435,587,o),
(437,587,cs),
(441,587,o),
(447,610.333,o),
(447,625,cs)
);
}
);
userData = {
assembly = "PUSHW[ ]	/* 4 values pushed */
20 3 35 4
CALL[ ]	/* CallFunction */
PUSHW[ ]	/* 1 value pushed */
20
SRP0[ ]	/* SetRefPoint0 */
PUSHW[ ]	/* 1 value pushed */
10
MDRP[10000]	/* MoveDirectRelPt */
PUSHW[ ]	/* 1 value pushed */
10
MDAP[1]	/* MoveDirectAbsPt */
PUSHW[ ]	/* 1 value pushed */
20
SRP0[ ]	/* SetRefPoint0 */
PUSHW[ ]	/* 1 value pushed */
25
MDRP[10000]	/* MoveDirectRelPt */
PUSHW[ ]	/* 1 value pushed */
25
MDAP[1]	/* MoveDirectAbsPt */
SVTCA[0]	/* SetFreedomAndProjectionVectorToAxis */
PUSHW[ ]	/* 1 value pushed */
0
RCVT[ ]	/* ReadCVT */
IF[ ]	/* If */
PUSHW[ ]	/* 1 value pushed */
27
MDAP[1]	/* MoveDirectAbsPt */
ELSE[ ]	/* Else */
PUSHW[ ]	/* 2 values pushed */
27 5
MIAP[0]	/* MoveIndirectAbsPt */
EIF[ ]	/* EndIf */
PUSHW[ ]	/* 4 values pushed */
42 1 7 4
CALL[ ]	/* CallFunction */
PUSHW[ ]	/* 4 values pushed */
10 1 20 4
CALL[ ]	/* CallFunction */
IUP[0]	/* InterpolateUntPts */
IUP[1]	/* InterpolateUntPts */";
};
width = 471;
}
);
note = F;
unicode = 70;
},
{
glyphname = G;
lastChange = "2025-05-29 09:07:02 +0000";
layers = (
{
layerId = m01;
shapes = (
{
closed = 1;
nodes = (
(446,302,ls),
(438,302,o),
(431,282.667,o),
(431,264,cs),
(431,257.333,o),
(433.667,254,o),
(439,254,cs),
(441.911,254,o),
(454.077,256.002,o),
(470,256.5,cs),
(491.986,257.187,o),
(530.964,259,o),
(587,259,c),
(583.953,179.783,o),
(577.802,72.613,o),
(575,53,c),
(547,42.333,o),
(479.333,31,o),
(394,31,cs),
(251.675,31,o),
(124,108.12,o),
(124,319,cs),
(124,516.258,o),
(245.92,615,o),
(399,615,cs),
(480.825,615,o),
(550.023,585.909,o),
(584,565,cs),
(594.667,557.667,o),
(602.667,552.833,o),
(608,550.5,cs),
(613.333,548.167,o),
(618,547,o),
(622,547,cs),
(625.333,547,o),
(628.167,551.333,o),
(630.5,560,cs),
(632.833,568.667,o),
(634,578,o),
(634,588,cs),
(634,595.333,o),
(631,601.333,o),
(625,606,cs),
(595.253,630.789,o),
(501.05,652,o),
(387,652,cs),
(150.218,652,o),
(63,473.556,o),
(63,312,cs),
(63,121.349,o),
(179.038,-13,o),
(380,-13,cs),
(488,-13,o),
(566.333,0.333,o),
(629,23,c),
(631.667,69.667,o),
(634.333,116.167,o),
(637,162.5,cs),
(639.667,208.833,o),
(642.333,255.333,o),
(645,302,c),
(645,302,l),
(645,302,l)
);
}
);
userData = {
assembly = "PUSHW[ ]	/* 1 value pushed */
64
MDAP[1]	/* MoveDirectAbsPt */
PUSHW[ ]	/* 1 value pushed */
52
MDAP[1]	/* MoveDirectAbsPt */
PUSHW[ ]	/* 2 values pushed */
0 3
MIRP[10100]	/* MoveIndirectRelPt */
PUSHW[ ]	/* 1 value pushed */
64
SRP0[ ]	/* SetRefPoint0 */
PUSHW[ ]	/* 1 value pushed */
11
MDRP[10000]	/* MoveDirectRelPt */
PUSHW[ ]	/* 1 value pushed */
11
MDAP[1]	/* MoveDirectAbsPt */
PUSHW[ ]	/* 1 value pushed */
52
SRP0[ ]	/* SetRefPoint0 */
PUSHW[ ]	/* 1 value pushed */
29
MDRP[10000]	/* MoveDirectRelPt */
PUSHW[ ]	/* 1 value pushed */
29
MDAP[1]	/* MoveDirectAbsPt */
PUSHW[ ]	/* 1 value pushed */
11
SRP0[ ]	/* SetRefPoint0 */
PUSHW[ ]	/* 2 values pushed */
39 3
MIRP[10100]	/* MoveIndirectRelPt */
NPUSHW[ ]	/* 33 values pushed */
6 39 22 39 38 39 54 39 70 39 86 39 102 39 118 39 134 39 150 39 166 39 182 39 198 39 214 39 230 39 246 39 16
DELTAP1[ ]	/* DeltaExceptionP1 */
NPUSHW[ ]	/* 9 values pushed */
6 39 22 39 38 39 54 39 4
DELTAP2[ ]	/* DeltaExceptionP2 */
NPUSHW[ ]	/* 5 values pushed */
69 39 85 39 2
DELTAP2[ ]	/* DeltaExceptionP2 */
PUSHW[ ]	/* 1 value pushed */
0
SRP0[ ]	/* SetRefPoint0 */
PUSHW[ ]	/* 1 value pushed */
65
MDRP[11100]	/* MoveDirectRelPt */
SVTCA[0]	/* SetFreedomAndProjectionVectorToAxis */
PUSHW[ ]	/* 1 value pushed */
0
RCVT[ ]	/* ReadCVT */
IF[ ]	/* If */
PUSHW[ ]	/* 1 value pushed */
6
MDAP[1]	/* MoveDirectAbsPt */
ELSE[ ]	/* Else */
PUSHW[ ]	/* 2 values pushed */
6 5
MIAP[0]	/* MoveIndirectAbsPt */
EIF[ ]	/* EndIf */
PUSHW[ ]	/* 4 values pushed */
16 2 34 4
CALL[ ]	/* CallFunction */
PUSHW[ ]	/* 4 values pushed */
0 1 52 4
CALL[ ]	/* CallFunction */
PUSHW[ ]	/* 1 value pushed */
6
SRP0[ ]	/* SetRefPoint0 */
PUSHW[ ]	/* 2 values pushed */
44 1
MIRP[10100]	/* MoveIndirectRelPt */
NPUSHW[ ]	/* 33 values pushed */
7 44 23 44 39 44 55 44 71 44 87 44 103 44 119 44 135 44 151 44 167 44 183 44 199 44 215 44 231 44 247 44 16
DELTAP1[ ]	/* DeltaExceptionP1 */
NPUSHW[ ]	/* 9 values pushed */
7 44 23 44 39 44 55 44 4
DELTAP2[ ]	/* DeltaExceptionP2 */
NPUSHW[ ]	/* 5 values pushed */
70 44 86 44 2
DELTAP2[ ]	/* DeltaExceptionP2 */
PUSHW[ ]	/* 1 value pushed */
52
SRP0[ ]	/* SetRefPoint0 */
PUSHW[ ]	/* 1 value pushed */
57
MDRP[10000]	/* MoveDirectRelPt */
PUSHW[ ]	/* 1 value pushed */
57
MDAP[1]	/* MoveDirectAbsPt */
PUSHW[ ]	/* 1 value pushed */
0
SRP0[ ]	/* SetRefPoint0 */
PUSHW[ ]	/* 1 value pushed */
62
MDRP[10000]	/* MoveDirectRelPt */
IUP[0]	/* InterpolateUntPts */
IUP[1]	/* InterpolateUntPts */";
};
width = 746;
}
);
note = G;
unicode = 71;
},
{
glyphname = H;
lastChange = "2025-05-29 09:07:02 +0000";
layers = (
{
layerId = m01;
shapes = (
{
closed = 1;
nodes = (
(695,644.667,o),
(663.667,652,o),
(641,652,cs),
(631.667,652,o),
(631,650.333,o),
(631,645,cs),
(631,594.521,o),
(625.978,475.327,o),
(618,353,c),
(171,353,l),
(180.374,488.917,o),
(194,603.868,o),
(194,626,cs),
(194,644.667,o),
(163.667,652,o),
(141,652,cs),
(131.667,652,o),
(131,650.333,o),
(131,645,cs),
(129.378,601.196,o),
(123.673,475.986,o),
(112.5,293.5,cs),
(101.527,114.269,o),
(96,17.502,o),
(96,14,cs),
(96,-4.667,o),
(126.333,-13,o),
(149,-13,cs),
(155.667,-13,o),
(159,-10.333,o),
(159,-5,cs),
(159,108.333,o),
(162.333,213,o),
(169,309,c),
(247,313,o),
(324.667,315,o),
(402,315,cs),
(474,315,o),
(545.333,312.667,o),
(616,310,c),
(605.665,117.085,o),
(596,18.618,o),
(596,14,cs),
(596,-4.667,o),
(626.333,-13,o),
(649,-13,cs),
(656.333,-13,o),
(660,-10.333,o),
(660,-5,cs),
(660,156.333,o),
(668.833,310,o),
(677.5,426,cs),
(684.987,526.214,o),
(695,606.838,o),
(695,626,cs)
);
}
);
userData = {
assembly = "PUSHW[ ]	/* 1 value pushed */
58
MDAP[1]	/* MoveDirectAbsPt */
PUSHW[ ]	/* 1 value pushed */
52
MDAP[1]	/* MoveDirectAbsPt */
NPUSHW[ ]	/* 5 values pushed */
74 52 90 52 2
DELTAP2[ ]	/* DeltaExceptionP2 */
NPUSHW[ ]	/* 33 values pushed */
9 52 25 52 41 52 57 52 73 52 89 52 105 52 121 52 137 52 153 52 169 52 185 52 201 52 217 52 233 52 249 52 16
DELTAP1[ ]	/* DeltaExceptionP1 */
NPUSHW[ ]	/* 9 values pushed */
9 52 25 52 41 52 57 52 4
DELTAP2[ ]	/* DeltaExceptionP2 */
PUSHW[ ]	/* 2 values pushed */
0 3
MIRP[10100]	/* MoveIndirectRelPt */
PUSHW[ ]	/* 1 value pushed */
58
SRP0[ ]	/* SetRefPoint0 */
PUSHW[ ]	/* 1 value pushed */
28
MDRP[10000]	/* MoveDirectRelPt */
PUSHW[ ]	/* 1 value pushed */
28
MDAP[1]	/* MoveDirectAbsPt */
PUSHW[ ]	/* 2 values pushed */
23 3
MIRP[10100]	/* MoveIndirectRelPt */
NPUSHW[ ]	/* 33 values pushed */
6 23 22 23 38 23 54 23 70 23 86 23 102 23 118 23 134 23 150 23 166 23 182 23 198 23 214 23 230 23 246 23 16
DELTAP1[ ]	/* DeltaExceptionP1 */
NPUSHW[ ]	/* 9 values pushed */
6 23 22 23 38 23 54 23 4
DELTAP2[ ]	/* DeltaExceptionP2 */
NPUSHW[ ]	/* 5 values pushed */
69 23 85 23 2
DELTAP2[ ]	/* DeltaExceptionP2 */
PUSHW[ ]	/* 1 value pushed */
0
SRP0[ ]	/* SetRefPoint0 */
PUSHW[ ]	/* 1 value pushed */
59
MDRP[11100]	/* MoveDirectRelPt */
SVTCA[0]	/* SetFreedomAndProjectionVectorToAxis */
PUSHW[ ]	/* 1 value pushed */
0
RCVT[ ]	/* ReadCVT */
IF[ ]	/* If */
PUSHW[ ]	/* 1 value pushed */
7
MDAP[1]	/* MoveDirectAbsPt */
ELSE[ ]	/* Else */
PUSHW[ ]	/* 2 values pushed */
7 5
MIAP[0]	/* MoveIndirectAbsPt */
EIF[ ]	/* EndIf */
PUSHW[ ]	/* 1 value pushed */
0
RCVT[ ]	/* ReadCVT */
IF[ ]	/* If */
PUSHW[ ]	/* 1 value pushed */
25
MDAP[1]	/* MoveDirectAbsPt */
ELSE[ ]	/* Else */
PUSHW[ ]	/* 2 values pushed */
25 5
MIAP[0]	/* MoveIndirectAbsPt */
EIF[ ]	/* EndIf */
PUSHW[ ]	/* 4 values pushed */
46 1 20 4
CALL[ ]	/* CallFunction */
PUSHW[ ]	/* 1 value pushed */
20
SRP0[ ]	/* SetRefPoint0 */
PUSHW[ ]	/* 1 value pushed */
15
MDRP[10000]	/* MoveDirectRelPt */
PUSHW[ ]	/* 1 value pushed */
15
MDAP[1]	/* MoveDirectAbsPt */
PUSHW[ ]	/* 1 value pushed */
20
SRP0[ ]	/* SetRefPoint0 */
PUSHW[ ]	/* 1 value pushed */
18
MDRP[10000]	/* MoveDirectRelPt */
PUSHW[ ]	/* 1 value pushed */
18
MDAP[1]	/* MoveDirectAbsPt */
IUP[0]	/* InterpolateUntPts */
IUP[1]	/* InterpolateUntPts */";
};
width = 791;
}
);
note = H;
unicode = 72;
},
{
glyphname = I;
lastChange = "2025-05-29 09:07:02 +0000";
layers = (
{
layerId = m01;
shapes = (
{
closed = 1;
nodes = (
(194,644.667,o),
(163.667,652,o),
(141,652,cs),
(131.667,652,o),
(131,650.333,o),
(131,645,cs),
(129.378,601.196,o),
(123.673,475.986,o),
(112.5,293.5,cs),
(101.527,114.269,o),
(96,17.502,o),
(96,14,cs),
(96,-4.667,o),
(126.333,-13,o),
(149,-13,cs),
(155.667,-13,o),
(159,-10.333,o),
(159,-5,cs),
(159,156.333,o),
(167.833,310,o),
(176.5,426,cs),
(183.987,526.214,o),
(194,606.838,o),
(194,626,cs)
);
}
);
userData = {
assembly = "PUSHW[ ]	/* 4 values pushed */
5 3 10 4
CALL[ ]	/* CallFunction */
NPUSHW[ ]	/* 33 values pushed */
6 5 22 5 38 5 54 5 70 5 86 5 102 5 118 5 134 5 150 5 166 5 182 5 198 5 214 5 230 5 246 5 16
DELTAP1[ ]	/* DeltaExceptionP1 */
NPUSHW[ ]	/* 9 values pushed */
6 5 22 5 38 5 54 5 4
DELTAP2[ ]	/* DeltaExceptionP2 */
NPUSHW[ ]	/* 5 values pushed */
69 5 85 5 2
DELTAP2[ ]	/* DeltaExceptionP2 */
SVTCA[0]	/* SetFreedomAndProjectionVectorToAxis */
PUSHW[ ]	/* 1 value pushed */
0
RCVT[ ]	/* ReadCVT */
IF[ ]	/* If */
PUSHW[ ]	/* 1 value pushed */
7
MDAP[1]	/* MoveDirectAbsPt */
ELSE[ ]	/* Else */
PUSHW[ ]	/* 2 values pushed */
7 5
MIAP[0]	/* MoveIndirectAbsPt */
EIF[ ]	/* EndIf */
IUP[0]	/* InterpolateUntPts */
IUP[1]	/* InterpolateUntPts */";
};
width = 290;
}
);
note = I;
unicode = 73;
},
{
glyphname = J;
lastChange = "2025-05-29 09:07:02 +0000";
layers = (
{
layerId = m01;
shapes = (
{
closed = 1;
nodes = (
(218,644.667,o),
(187.667,652,o),
(165,652,cs),
(155.667,652,o),
(155,650.333,o),
(155,645,cs),
(155,449,o),
(150.333,308,o),
(141,212,cs),
(132.081,120.259,o),
(118.605,65.857,o),
(98,48,cs),
(81.333,33.333,o),
(62.667,26,o),
(42,26,cs),
(-3.017,26,o),
(-47.523,49,o),
(-59,49,cs),
(-65,49,o),
(-68,43,o),
(-68,31,cs),
(-68,12.333,o),
(-65,5.667,o),
(-53,-1,cs),
(-34.333,-10.333,o),
(-9.667,-13,o),
(33,-13,cs),
(97,-13,o),
(150.333,23,o),
(181,115,cs),
(195.521,158.562,o),
(204.02,262.857,o),
(210,371.5,cs),
(216.518,489.914,o),
(218,586.355,o),
(218,626,cs)
);
}
);
userData = {
assembly = "PUSHW[ ]	/* 4 values pushed */
0 3 30 4
CALL[ ]	/* CallFunction */
NPUSHW[ ]	/* 5 values pushed */
74 30 90 30 2
DELTAP2[ ]	/* DeltaExceptionP2 */
NPUSHW[ ]	/* 33 values pushed */
9 30 25 30 41 30 57 30 73 30 89 30 105 30 121 30 137 30 153 30 169 30 185 30 201 30 217 30 233 30 249 30 16
DELTAP1[ ]	/* DeltaExceptionP1 */
NPUSHW[ ]	/* 9 values pushed */
9 30 25 30 41 30 57 30 4
DELTAP2[ ]	/* DeltaExceptionP2 */
SVTCA[0]	/* SetFreedomAndProjectionVectorToAxis */
PUSHW[ ]	/* 1 value pushed */
0
RCVT[ ]	/* ReadCVT */
IF[ ]	/* If */
PUSHW[ ]	/* 1 value pushed */
10
MDAP[1]	/* MoveDirectAbsPt */
ELSE[ ]	/* Else */
PUSHW[ ]	/* 2 values pushed */
10 5
MIAP[0]	/* MoveIndirectAbsPt */
EIF[ ]	/* EndIf */
PUSHW[ ]	/* 2 values pushed */
23 2
MIRP[10100]	/* MoveIndirectRelPt */
NPUSHW[ ]	/* 33 values pushed */
7 23 23 23 39 23 55 23 71 23 87 23 103 23 119 23 135 23 151 23 167 23 183 23 199 23 215 23 231 23 247 23 16
DELTAP1[ ]	/* DeltaExceptionP1 */
NPUSHW[ ]	/* 31 values pushed */
7 23 23 23 39 23 55 23 71 23 87 23 103 23 119 23 135 23 151 23 167 23 183 23 199 23 215 23 231 23 15
DELTAP2[ ]	/* DeltaExceptionP2 */
NPUSHW[ ]	/* 3 values pushed */
246 23 1
DELTAP2[ ]	/* DeltaExceptionP2 */
NPUSHW[ ]	/* 3 values pushed */
6 23 1
DELTAP3[ ]	/* DeltaExceptionP3 */
IUP[0]	/* InterpolateUntPts */
IUP[1]	/* InterpolateUntPts */";
};
width = 302;
}
);
note = J;
unicode = 74;
},
{
glyphname = K;
lastChange = "2025-05-29 09:07:02 +0000";
layers = (
{
layerId = m01;
shapes = (
{
closed = 1;
nodes = (
(599,22,o),
(596.667,25,o),
(592,29,cs),
(530.222,76.242,o),
(435.372,155.538,o),
(377.5,206.5,cs),
(305.767,269.668,o),
(256.449,313.551,o),
(239,331,c),
(248.442,339.656,o),
(304.796,388.333,o),
(397,470,cs),
(490.429,552.751,o),
(523.319,582.622,o),
(579,633,cs),
(584.333,638.333,o),
(587,642,o),
(587,644,cs),
(587,646.667,o),
(583.833,648.667,o),
(577.5,650,cs),
(571.167,651.333,o),
(564.333,652,o),
(557,652,cs),
(538.333,652,o),
(530.667,650.667,o),
(520,640,cs),
(436.48,563.68,o),
(364.016,497.823,o),
(303,442,cs),
(240.333,384.667,o),
(190.333,340.667,o),
(169,322,c),
(178.474,473.578,o),
(194,600.681,o),
(194,626,cs),
(194,644.667,o),
(163.667,652,o),
(141,652,cs),
(131.667,652,o),
(131,650.333,o),
(131,645,cs),
(129.378,601.196,o),
(123.673,475.986,o),
(112.5,293.5,cs),
(101.527,114.269,o),
(96,17.502,o),
(96,14,cs),
(96,-4.667,o),
(126.333,-13,o),
(149,-13,cs),
(155.667,-13,o),
(159,-10.333,o),
(159,-5,cs),
(159,112.333,o),
(163.667,221.333,o),
(169,316,c),
(172.333,313.333,o),
(176.333,310,o),
(181,306,cs),
(185.667,302,o),
(191.333,297.333,o),
(198,292,cs),
(265.154,236.424,o),
(457.079,62.234,o),
(537,-8,cs),
(540.333,-11.333,o),
(545.667,-13,o),
(553,-13,cs),
(562.333,-13,o),
(577.333,-2.333,o),
(588,7,cs),
(595.333,14.333,o),
(599,18.667,o),
(599,20,cs)
);
}
);
userData = {
assembly = "PUSHW[ ]	/* 4 values pushed */
18 3 23 4
CALL[ ]	/* CallFunction */
NPUSHW[ ]	/* 33 values pushed */
6 18 22 18 38 18 54 18 70 18 86 18 102 18 118 18 134 18 150 18 166 18 182 18 198 18 214 18 230 18 246 18 16
DELTAP1[ ]	/* DeltaExceptionP1 */
NPUSHW[ ]	/* 9 values pushed */
6 18 22 18 38 18 54 18 4
DELTAP2[ ]	/* DeltaExceptionP2 */
NPUSHW[ ]	/* 5 values pushed */
69 18 85 18 2
DELTAP2[ ]	/* DeltaExceptionP2 */
SVTCA[0]	/* SetFreedomAndProjectionVectorToAxis */
PUSHW[ ]	/* 1 value pushed */
0
RCVT[ ]	/* ReadCVT */
IF[ ]	/* If */
PUSHW[ ]	/* 1 value pushed */
5
MDAP[1]	/* MoveDirectAbsPt */
ELSE[ ]	/* Else */
PUSHW[ ]	/* 2 values pushed */
5 5
MIAP[0]	/* MoveIndirectAbsPt */
EIF[ ]	/* EndIf */
PUSHW[ ]	/* 1 value pushed */
0
RCVT[ ]	/* ReadCVT */
IF[ ]	/* If */
PUSHW[ ]	/* 1 value pushed */
7
MDAP[1]	/* MoveDirectAbsPt */
ELSE[ ]	/* Else */
PUSHW[ ]	/* 2 values pushed */
7 5
MIAP[0]	/* MoveIndirectAbsPt */
EIF[ ]	/* EndIf */
PUSHW[ ]	/* 1 value pushed */
0
RCVT[ ]	/* ReadCVT */
IF[ ]	/* If */
PUSHW[ ]	/* 1 value pushed */
20
MDAP[1]	/* MoveDirectAbsPt */
ELSE[ ]	/* Else */
PUSHW[ ]	/* 2 values pushed */
20 5
MIAP[0]	/* MoveIndirectAbsPt */
EIF[ ]	/* EndIf */
IUP[0]	/* InterpolateUntPts */
IUP[1]	/* InterpolateUntPts */";
};
width = 599;
}
);
note = K;
unicode = 75;
},
{
glyphname = L;
lastChange = "2025-05-29 09:07:02 +0000";
layers = (
{
layerId = m01;
shapes = (
{
closed = 1;
nodes = (
(455,53.333,o),
(454,58,o),
(452,58,cs),
(430.819,58,o),
(328.498,37,o),
(251,37,cs),
(176.261,37,o),
(162,41.772,o),
(162,82,cs),
(162,204.729,o),
(170.528,346.727,o),
(178.5,441.5,cs),
(187.623,549.963,o),
(195,617.333,o),
(195,626,cs),
(195,644.667,o),
(164.667,652,o),
(142,652,cs),
(135.333,652,o),
(132,649.667,o),
(132,645,cs),
(127.822,532.204,o),
(122.525,404.829,o),
(114,269.5,cs),
(105.956,141.802,o),
(99.394,32.24,o),
(96,0,c),
(437,0,ls),
(445,0,o),
(455,25.333,o),
(455,44,cs)
);
}
);
userData = {
assembly = "PUSHW[ ]	/* 4 values pushed */
16 3 11 4
CALL[ ]	/* CallFunction */
NPUSHW[ ]	/* 33 values pushed */
6 16 22 16 38 16 54 16 70 16 86 16 102 16 118 16 134 16 150 16 166 16 182 16 198 16 214 16 230 16 246 16 16
DELTAP1[ ]	/* DeltaExceptionP1 */
NPUSHW[ ]	/* 9 values pushed */
6 16 22 16 38 16 54 16 4
DELTAP2[ ]	/* DeltaExceptionP2 */
NPUSHW[ ]	/* 5 values pushed */
69 16 85 16 2
DELTAP2[ ]	/* DeltaExceptionP2 */
SVTCA[0]	/* SetFreedomAndProjectionVectorToAxis */
PUSHW[ ]	/* 1 value pushed */
0
RCVT[ ]	/* ReadCVT */
IF[ ]	/* If */
PUSHW[ ]	/* 1 value pushed */
3
MDAP[1]	/* MoveDirectAbsPt */
ELSE[ ]	/* Else */
PUSHW[ ]	/* 2 values pushed */
3 5
MIAP[0]	/* MoveIndirectAbsPt */
EIF[ ]	/* EndIf */
PUSHW[ ]	/* 2 values pushed */
28 2
MIRP[10100]	/* MoveIndirectRelPt */
NPUSHW[ ]	/* 33 values pushed */
7 28 23 28 39 28 55 28 71 28 87 28 103 28 119 28 135 28 151 28 167 28 183 28 199 28 215 28 231 28 247 28 16
DELTAP1[ ]	/* DeltaExceptionP1 */
NPUSHW[ ]	/* 31 values pushed */
7 28 23 28 39 28 55 28 71 28 87 28 103 28 119 28 135 28 151 28 167 28 183 28 199 28 215 28 231 28 15
DELTAP2[ ]	/* DeltaExceptionP2 */
NPUSHW[ ]	/* 3 values pushed */
246 28 1
DELTAP2[ ]	/* DeltaExceptionP2 */
NPUSHW[ ]	/* 3 values pushed */
6 28 1
DELTAP3[ ]	/* DeltaExceptionP3 */
IUP[0]	/* InterpolateUntPts */
IUP[1]	/* InterpolateUntPts */";
};
width = 461;
}
);
note = L;
unicode = 76;
},
{
glyphname = M;
lastChange = "2025-05-29 09:07:02 +0000";
layers = (
{
layerId = m01;
shapes = (
{
closed = 1;
nodes = (
(883,211.667,o),
(880.667,410.333,o),
(878,625,cs),
(878,644.32,o),
(843.653,652,o),
(821,652,cs),
(811.667,652,o),
(810,650.667,o),
(806,644,cs),
(785.643,608.838,o),
(740.381,520.866,o),
(675,401,cs),
(607.691,277.601,o),
(564.682,195.745,o),
(497,76,c),
(434.217,210.984,o),
(329.222,461.321,o),
(264,628,cs),
(257.333,644,o),
(233.667,652,o),
(203,652,cs),
(192.333,652,o),
(190.333,650.333,o),
(189,637,cs),
(175.62,521.041,o),
(159.929,399.25,o),
(138.5,251.5,cs),
(116.977,103.105,o),
(104,17.328,o),
(104,14,cs),
(104,-4.667,o),
(131,-13,o),
(151,-13,cs),
(156.333,-13,o),
(159,-10.333,o),
(159,-5,cs),
(159,19.898,o),
(169.15,109.079,o),
(184,230,cs),
(198.931,351.585,o),
(213.977,462.157,o),
(227,562,c),
(248.112,515.937,o),
(288.253,418.711,o),
(339.5,295.5,cs),
(400.009,150.022,o),
(441.898,48.662,o),
(461,5,cs),
(465,-4.333,o),
(476.333,-13,o),
(491,-13,cs),
(496.333,-13,o),
(499.333,-8,o),
(502,-4,cs),
(552.437,87.174,o),
(615.321,199.661,o),
(681.5,319,cs),
(750.478,443.386,o),
(798.615,528.884,o),
(825,576,c),
(825,524.065,o),
(828,445.277,o),
(828,281,cs),
(828,174.047,o),
(823,104.489,o),
(823,14,cs),
(823,-4.667,o),
(851.667,-13,o),
(873,-13,cs),
(879.667,-13,o),
(883,-9.667,o),
(883,-3,cs)
);
}
);
userData = {
assembly = "PUSHW[ ]	/* 4 values pushed */
0 3 5 4
CALL[ ]	/* CallFunction */
NPUSHW[ ]	/* 5 values pushed */
74 5 90 5 2
DELTAP2[ ]	/* DeltaExceptionP2 */
NPUSHW[ ]	/* 33 values pushed */
9 5 25 5 41 5 57 5 73 5 89 5 105 5 121 5 137 5 153 5 169 5 185 5 201 5 217 5 233 5 249 5 16
DELTAP1[ ]	/* DeltaExceptionP1 */
NPUSHW[ ]	/* 9 values pushed */
9 5 25 5 41 5 57 5 4
DELTAP2[ ]	/* DeltaExceptionP2 */
PUSHW[ ]	/* 1 value pushed */
5
SRP0[ ]	/* SetRefPoint0 */
PUSHW[ ]	/* 1 value pushed */
10
MDRP[10000]	/* MoveDirectRelPt */
PUSHW[ ]	/* 1 value pushed */
10
MDAP[1]	/* MoveDirectAbsPt */
PUSHW[ ]	/* 1 value pushed */
5
SRP0[ ]	/* SetRefPoint0 */
PUSHW[ ]	/* 1 value pushed */
15
MDRP[10000]	/* MoveDirectRelPt */
PUSHW[ ]	/* 1 value pushed */
15
MDAP[1]	/* MoveDirectAbsPt */
PUSHW[ ]	/* 1 value pushed */
0
SRP0[ ]	/* SetRefPoint0 */
PUSHW[ ]	/* 1 value pushed */
80
MDRP[10000]	/* MoveDirectRelPt */
PUSHW[ ]	/* 1 value pushed */
80
MDAP[1]	/* MoveDirectAbsPt */
SVTCA[0]	/* SetFreedomAndProjectionVectorToAxis */
PUSHW[ ]	/* 1 value pushed */
0
RCVT[ ]	/* ReadCVT */
IF[ ]	/* If */
PUSHW[ ]	/* 1 value pushed */
2
MDAP[1]	/* MoveDirectAbsPt */
ELSE[ ]	/* Else */
PUSHW[ ]	/* 2 values pushed */
2 5
MIAP[0]	/* MoveIndirectAbsPt */
EIF[ ]	/* EndIf */
PUSHW[ ]	/* 1 value pushed */
0
RCVT[ ]	/* ReadCVT */
IF[ ]	/* If */
PUSHW[ ]	/* 1 value pushed */
25
MDAP[1]	/* MoveDirectAbsPt */
ELSE[ ]	/* Else */
PUSHW[ ]	/* 2 values pushed */
25 5
MIAP[0]	/* MoveIndirectAbsPt */
EIF[ ]	/* EndIf */
PUSHW[ ]	/* 1 value pushed */
0
RCVT[ ]	/* ReadCVT */
IF[ ]	/* If */
PUSHW[ ]	/* 1 value pushed */
44
MDAP[1]	/* MoveDirectAbsPt */
ELSE[ ]	/* Else */
PUSHW[ ]	/* 2 values pushed */
44 5
MIAP[0]	/* MoveIndirectAbsPt */
EIF[ ]	/* EndIf */
IUP[0]	/* InterpolateUntPts */
IUP[1]	/* InterpolateUntPts */";
};
width = 1036;
}
);
note = M;
unicode = 77;
},
{
glyphname = N;
lastChange = "2025-05-29 09:07:02 +0000";
layers = (
{
layerId = m01;
shapes = (
{
closed = 1;
nodes = (
(763,644.667,o),
(736.667,652,o),
(714,652,cs),
(704.667,652,o),
(704,651.333,o),
(704,642,cs),
(704,466,o),
(699.333,326.333,o),
(694,229,cs),
(689.633,149.307,o),
(683,87.58,o),
(683,77,c),
(657.155,101.122,o),
(524.354,245.721,o),
(425.5,358,cs),
(323.449,473.91,o),
(210.378,605.471,o),
(185,641,cs),
(181,646.333,o),
(174,652,o),
(170,652,cs),
(160.662,652,o),
(130,629.929,o),
(130,621,cs),
(130,565.751,o),
(122.118,439.557,o),
(113,280,cs),
(103.53,114.276,o),
(96,25.708,o),
(96,14,cs),
(96,-4.667,o),
(121.333,-13,o),
(144,-13,cs),
(150.667,-13,o),
(154,-9.667,o),
(154,-3,cs),
(154,75.227,o),
(158.01,200.052,o),
(163.5,334,cs),
(169.249,474.285,o),
(174,550.569,o),
(174,563,c),
(208.292,517.277,o),
(276.12,441.365,o),
(392,311,cs),
(496.24,193.73,o),
(632.54,42.344,o),
(674,-1,cs),
(676.667,-3.667,o),
(679.333,-6.333,o),
(682,-9,cs),
(684.667,-11.667,o),
(687,-13,o),
(689,-13,cs),
(696.614,-13,o),
(729,10.939,o),
(729,19,cs),
(729,74.249,o),
(736.882,200.443,o),
(746,360,cs),
(755.47,525.724,o),
(763,614.292,o),
(763,626,cs)
);
}
);
userData = {
assembly = "PUSHW[ ]	/* 1 value pushed */
71
MDAP[1]	/* MoveDirectAbsPt */
PUSHW[ ]	/* 1 value pushed */
65
MDAP[1]	/* MoveDirectAbsPt */
NPUSHW[ ]	/* 5 values pushed */
74 65 90 65 2
DELTAP2[ ]	/* DeltaExceptionP2 */
NPUSHW[ ]	/* 33 values pushed */
9 65 25 65 41 65 57 65 73 65 89 65 105 65 121 65 137 65 153 65 169 65 185 65 201 65 217 65 233 65 249 65 16
DELTAP1[ ]	/* DeltaExceptionP1 */
NPUSHW[ ]	/* 9 values pushed */
9 65 25 65 41 65 57 65 4
DELTAP2[ ]	/* DeltaExceptionP2 */
PUSHW[ ]	/* 2 values pushed */
0 3
MIRP[10100]	/* MoveIndirectRelPt */
PUSHW[ ]	/* 1 value pushed */
71
SRP0[ ]	/* SetRefPoint0 */
PUSHW[ ]	/* 1 value pushed */
36
MDRP[10000]	/* MoveDirectRelPt */
PUSHW[ ]	/* 1 value pushed */
36
MDAP[1]	/* MoveDirectAbsPt */
PUSHW[ ]	/* 2 values pushed */
31 3
MIRP[10100]	/* MoveIndirectRelPt */
NPUSHW[ ]	/* 33 values pushed */
6 31 22 31 38 31 54 31 70 31 86 31 102 31 118 31 134 31 150 31 166 31 182 31 198 31 214 31 230 31 246 31 16
DELTAP1[ ]	/* DeltaExceptionP1 */
NPUSHW[ ]	/* 9 values pushed */
6 31 22 31 38 31 54 31 4
DELTAP2[ ]	/* DeltaExceptionP2 */
NPUSHW[ ]	/* 5 values pushed */
69 31 85 31 2
DELTAP2[ ]	/* DeltaExceptionP2 */
PUSHW[ ]	/* 1 value pushed */
0
SRP0[ ]	/* SetRefPoint0 */
PUSHW[ ]	/* 1 value pushed */
72
MDRP[11100]	/* MoveDirectRelPt */
SVTCA[0]	/* SetFreedomAndProjectionVectorToAxis */
PUSHW[ ]	/* 1 value pushed */
0
RCVT[ ]	/* ReadCVT */
IF[ ]	/* If */
PUSHW[ ]	/* 1 value pushed */
12
MDAP[1]	/* MoveDirectAbsPt */
ELSE[ ]	/* Else */
PUSHW[ ]	/* 2 values pushed */
12 5
MIAP[0]	/* MoveIndirectAbsPt */
EIF[ ]	/* EndIf */
PUSHW[ ]	/* 1 value pushed */
0
RCVT[ ]	/* ReadCVT */
IF[ ]	/* If */
PUSHW[ ]	/* 1 value pushed */
33
MDAP[1]	/* MoveDirectAbsPt */
ELSE[ ]	/* Else */
PUSHW[ ]	/* 2 values pushed */
33 5
MIAP[0]	/* MoveIndirectAbsPt */
EIF[ ]	/* EndIf */
IUP[0]	/* InterpolateUntPts */
IUP[1]	/* InterpolateUntPts */";
};
width = 859;
}
);
note = N;
unicode = 78;
},
{
glyphname = O;
lastChange = "2025-05-29 09:07:02 +0000";
layers = (
{
layerId = m01;
shapes = (
{
closed = 1;
nodes = (
(685,524.088,o),
(600.06,652,o),
(378,652,cs),
(163.551,652,o),
(63,508.54,o),
(63,291,cs),
(63,112.482,o),
(152.231,-13,o),
(370,-13,cs),
(585.177,-13,o),
(685,133.089,o),
(685,349,cs)
);
},
{
closed = 1;
nodes = (
(624,153.56,o),
(543.581,24,o),
(371,24,cs),
(196.327,24,o),
(124,134.903,o),
(124,294,cs),
(124,482.835,o),
(202.62,615,o),
(377,615,cs),
(552.275,615,o),
(624,505.694,o),
(624,346,cs)
);
}
);
userData = {
assembly = "PUSHW[ ]	/* 1 value pushed */
40
MDAP[1]	/* MoveDirectAbsPt */
PUSHW[ ]	/* 1 value pushed */
20
MDAP[1]	/* MoveDirectAbsPt */
NPUSHW[ ]	/* 5 values pushed */
74 20 90 20 2
DELTAP2[ ]	/* DeltaExceptionP2 */
NPUSHW[ ]	/* 33 values pushed */
9 20 25 20 41 20 57 20 73 20 89 20 105 20 121 20 137 20 153 20 169 20 185 20 201 20 217 20 233 20 249 20 16
DELTAP1[ ]	/* DeltaExceptionP1 */
NPUSHW[ ]	/* 9 values pushed */
9 20 25 20 41 20 57 20 4
DELTAP2[ ]	/* DeltaExceptionP2 */
PUSHW[ ]	/* 2 values pushed */
0 3
MIRP[10100]	/* MoveIndirectRelPt */
PUSHW[ ]	/* 1 value pushed */
40
SRP0[ ]	/* SetRefPoint0 */
PUSHW[ ]	/* 1 value pushed */
10
MDRP[10000]	/* MoveDirectRelPt */
PUSHW[ ]	/* 1 value pushed */
10
MDAP[1]	/* MoveDirectAbsPt */
PUSHW[ ]	/* 2 values pushed */
30 3
MIRP[10100]	/* MoveIndirectRelPt */
NPUSHW[ ]	/* 33 values pushed */
6 30 22 30 38 30 54 30 70 30 86 30 102 30 118 30 134 30 150 30 166 30 182 30 198 30 214 30 230 30 246 30 16
DELTAP1[ ]	/* DeltaExceptionP1 */
NPUSHW[ ]	/* 9 values pushed */
6 30 22 30 38 30 54 30 4
DELTAP2[ ]	/* DeltaExceptionP2 */
NPUSHW[ ]	/* 5 values pushed */
69 30 85 30 2
DELTAP2[ ]	/* DeltaExceptionP2 */
PUSHW[ ]	/* 1 value pushed */
0
SRP0[ ]	/* SetRefPoint0 */
PUSHW[ ]	/* 1 value pushed */
41
MDRP[11100]	/* MoveDirectRelPt */
SVTCA[0]	/* SetFreedomAndProjectionVectorToAxis */
PUSHW[ ]	/* 1 value pushed */
0
RCVT[ ]	/* ReadCVT */
IF[ ]	/* If */
PUSHW[ ]	/* 1 value pushed */
5
MDAP[1]	/* MoveDirectAbsPt */
ELSE[ ]	/* Else */
PUSHW[ ]	/* 2 values pushed */
5 5
MIAP[0]	/* MoveIndirectAbsPt */
EIF[ ]	/* EndIf */
PUSHW[ ]	/* 4 values pushed */
15 2 25 4
CALL[ ]	/* CallFunction */
PUSHW[ ]	/* 1 value pushed */
5
SRP0[ ]	/* SetRefPoint0 */
PUSHW[ ]	/* 2 values pushed */
35 2
MIRP[10100]	/* MoveIndirectRelPt */
NPUSHW[ ]	/* 33 values pushed */
7 35 23 35 39 35 55 35 71 35 87 35 103 35 119 35 135 35 151 35 167 35 183 35 199 35 215 35 231 35 247 35 16
DELTAP1[ ]	/* DeltaExceptionP1 */
NPUSHW[ ]	/* 31 values pushed */
7 35 23 35 39 35 55 35 71 35 87 35 103 35 119 35 135 35 151 35 167 35 183 35 199 35 215 35 231 35 15
DELTAP2[ ]	/* DeltaExceptionP2 */
NPUSHW[ ]	/* 3 values pushed */
246 35 1
DELTAP2[ ]	/* DeltaExceptionP2 */
NPUSHW[ ]	/* 3 values pushed */
6 35 1
DELTAP3[ ]	/* DeltaExceptionP3 */
IUP[0]	/* InterpolateUntPts */
IUP[1]	/* InterpolateUntPts */";
};
width = 748;
}
);
note = O;
unicode = 79;
},
{
glyphname = P;
lastChange = "2025-05-29 09:07:02 +0000";
layers = (
{
layerId = m01;
shapes = (
{
closed = 1;
nodes = (
(492,575.333,o),
(419.333,639,o),
(266,639,cs),
(131,639,l),
(129.11,584.183,o),
(120.946,449.653,o),
(112,287.5,cs),
(102.23,110.423,o),
(96,19.312,o),
(96,14,cs),
(96,-4.667,o),
(126.333,-13,o),
(149,-13,cs),
(155.667,-13,o),
(159,-10.333,o),
(159,-5,cs),
(159,87,o),
(161,173.667,o),
(165,251,c),
(168.333,247.667,o),
(173.833,245.667,o),
(181.5,245,cs),
(189.167,244.333,o),
(202,244,o),
(220,244,cs),
(381.955,244,o),
(492,343.324,o),
(492,470,cs)
);
},
{
closed = 1;
nodes = (
(432,401,o),
(410,360.333,o),
(378,331,cs),
(313.589,271.742,o),
(214.995,268.354,o),
(166,277,c),
(170.667,355,o),
(175.667,421.667,o),
(181,477,cs),
(186.333,532.333,o),
(189.667,572,o),
(191,596,c),
(208.333,598.667,o),
(224.333,602,o),
(251,602,cs),
(391.143,602,o),
(432,540.665,o),
(432,457,cs)
);
}
);
userData = {
assembly = "PUSHW[ ]	/* 1 value pushed */
46
MDAP[1]	/* MoveDirectAbsPt */
PUSHW[ ]	/* 1 value pushed */
27
MDAP[1]	/* MoveDirectAbsPt */
NPUSHW[ ]	/* 5 values pushed */
74 27 90 27 2
DELTAP2[ ]	/* DeltaExceptionP2 */
NPUSHW[ ]	/* 33 values pushed */
9 27 25 27 41 27 57 27 73 27 89 27 105 27 121 27 137 27 153 27 169 27 185 27 201 27 217 27 233 27 249 27 16
DELTAP1[ ]	/* DeltaExceptionP1 */
NPUSHW[ ]	/* 9 values pushed */
9 27 25 27 41 27 57 27 4
DELTAP2[ ]	/* DeltaExceptionP2 */
PUSHW[ ]	/* 2 values pushed */
0 3
MIRP[10100]	/* MoveIndirectRelPt */
PUSHW[ ]	/* 1 value pushed */
46
SRP0[ ]	/* SetRefPoint0 */
PUSHW[ ]	/* 1 value pushed */
23
MDRP[10000]	/* MoveDirectRelPt */
PUSHW[ ]	/* 1 value pushed */
23
MDAP[1]	/* MoveDirectAbsPt */
PUSHW[ ]	/* 2 values pushed */
35 3
MIRP[10100]	/* MoveIndirectRelPt */
PUSHW[ ]	/* 3 values pushed */
8 23 35
SRP1[ ]	/* SetRefPoint1 */
SRP2[ ]	/* SetRefPoint2 */
IP[ ]	/* InterpolatePts */
PUSHW[ ]	/* 1 value pushed */
0
SRP0[ ]	/* SetRefPoint0 */
PUSHW[ ]	/* 1 value pushed */
47
MDRP[11100]	/* MoveDirectRelPt */
SVTCA[0]	/* SetFreedomAndProjectionVectorToAxis */
PUSHW[ ]	/* 1 value pushed */
0
RCVT[ ]	/* ReadCVT */
IF[ ]	/* If */
PUSHW[ ]	/* 1 value pushed */
13
MDAP[1]	/* MoveDirectAbsPt */
ELSE[ ]	/* Else */
PUSHW[ ]	/* 2 values pushed */
13 5
MIAP[0]	/* MoveIndirectAbsPt */
EIF[ ]	/* EndIf */
PUSHW[ ]	/* 4 values pushed */
24 2 32 4
CALL[ ]	/* CallFunction */
PUSHW[ ]	/* 1 value pushed */
32
SRP0[ ]	/* SetRefPoint0 */
PUSHW[ ]	/* 1 value pushed */
35
MDRP[10000]	/* MoveDirectRelPt */
PUSHW[ ]	/* 1 value pushed */
35
MDAP[1]	/* MoveDirectAbsPt */
IUP[0]	/* InterpolateUntPts */
IUP[1]	/* InterpolateUntPts */";
};
width = 537;
}
);
note = P;
unicode = 80;
},
{
glyphname = Q;
lastChange = "2025-05-29 09:07:02 +0000";
layers = (
{
layerId = m01;
shapes = (
{
closed = 1;
nodes = (
(739,-37.333,o),
(736.333,-35,o),
(731,-35,cs),
(692.333,-35,o),
(648.833,-31.333,o),
(600.5,-24,cs),
(552.167,-16.667,o),
(503,-9.667,o),
(453,-3,c),
(598.84,29.409,o),
(685,169.331,o),
(685,349,cs),
(685,524.088,o),
(600.06,652,o),
(378,652,cs),
(163.551,652,o),
(63,508.54,o),
(63,291,cs),
(63,139,o),
(128,30.667,o),
(280,-4,cs),
(378.533,-27.46,o),
(583.766,-70.679,o),
(656,-80,cs),
(669.333,-81.333,o),
(679.667,-82.5,o),
(687,-83.5,cs),
(694.333,-84.5,o),
(700.333,-85,o),
(705,-85,cs),
(724.293,-85,o),
(739,-61.877,o),
(739,-42,cs)
);
},
{
closed = 1;
nodes = (
(624,153.56,o),
(543.581,24,o),
(371,24,cs),
(196.327,24,o),
(124,134.903,o),
(124,294,cs),
(124,482.835,o),
(202.62,615,o),
(377,615,cs),
(552.275,615,o),
(624,505.694,o),
(624,346,cs)
);
}
);
userData = {
assembly = "PUSHW[ ]	/* 1 value pushed */
56
MDAP[1]	/* MoveDirectAbsPt */
PUSHW[ ]	/* 1 value pushed */
36
MDAP[1]	/* MoveDirectAbsPt */
PUSHW[ ]	/* 1 value pushed */
56
SRP0[ ]	/* SetRefPoint0 */
PUSHW[ ]	/* 1 value pushed */
16
MDRP[10000]	/* MoveDirectRelPt */
PUSHW[ ]	/* 1 value pushed */
16
MDAP[1]	/* MoveDirectAbsPt */
NPUSHW[ ]	/* 5 values pushed */
74 36 90 36 2
DELTAP2[ ]	/* DeltaExceptionP2 */
NPUSHW[ ]	/* 33 values pushed */
9 36 25 36 41 36 57 36 73 36 89 36 105 36 121 36 137 36 153 36 169 36 185 36 201 36 217 36 233 36 249 36 16
DELTAP1[ ]	/* DeltaExceptionP1 */
NPUSHW[ ]	/* 9 values pushed */
9 36 25 36 41 36 57 36 4
DELTAP2[ ]	/* DeltaExceptionP2 */
PUSHW[ ]	/* 1 value pushed */
36
SRP0[ ]	/* SetRefPoint0 */
PUSHW[ ]	/* 2 values pushed */
26 3
MIRP[10100]	/* MoveIndirectRelPt */
PUSHW[ ]	/* 3 values pushed */
31 16 26
SRP1[ ]	/* SetRefPoint1 */
SRP2[ ]	/* SetRefPoint2 */
IP[ ]	/* InterpolatePts */
PUSHW[ ]	/* 1 value pushed */
16
SRP0[ ]	/* SetRefPoint0 */
PUSHW[ ]	/* 2 values pushed */
46 3
MIRP[10100]	/* MoveIndirectRelPt */
NPUSHW[ ]	/* 33 values pushed */
6 46 22 46 38 46 54 46 70 46 86 46 102 46 118 46 134 46 150 46 166 46 182 46 198 46 214 46 230 46 246 46 16
DELTAP1[ ]	/* DeltaExceptionP1 */
NPUSHW[ ]	/* 9 values pushed */
6 46 22 46 38 46 54 46 4
DELTAP2[ ]	/* DeltaExceptionP2 */
NPUSHW[ ]	/* 5 values pushed */
69 46 85 46 2
DELTAP2[ ]	/* DeltaExceptionP2 */
PUSHW[ ]	/* 1 value pushed */
26
SRP0[ ]	/* SetRefPoint0 */
PUSHW[ ]	/* 1 value pushed */
57
MDRP[11100]	/* MoveDirectRelPt */
SVTCA[0]	/* SetFreedomAndProjectionVectorToAxis */
PUSHW[ ]	/* 1 value pushed */
0
RCVT[ ]	/* ReadCVT */
IF[ ]	/* If */
PUSHW[ ]	/* 1 value pushed */
5
MDAP[1]	/* MoveDirectAbsPt */
ELSE[ ]	/* Else */
PUSHW[ ]	/* 2 values pushed */
5 5
MIAP[0]	/* MoveIndirectAbsPt */
EIF[ ]	/* EndIf */
PUSHW[ ]	/* 1 value pushed */
0
RCVT[ ]	/* ReadCVT */
IF[ ]	/* If */
PUSHW[ ]	/* 1 value pushed */
8
MDAP[1]	/* MoveDirectAbsPt */
ELSE[ ]	/* Else */
PUSHW[ ]	/* 2 values pushed */
8 5
MIAP[0]	/* MoveIndirectAbsPt */
EIF[ ]	/* EndIf */
PUSHW[ ]	/* 4 values pushed */
21 2 41 4
CALL[ ]	/* CallFunction */
IUP[0]	/* InterpolateUntPts */
IUP[1]	/* InterpolateUntPts */";
};
width = 748;
}
);
note = Q;
unicode = 81;
},
{
glyphname = R;
lastChange = "2025-05-29 09:07:02 +0000";
layers = (
{
layerId = m01;
shapes = (
{
closed = 1;
nodes = (
(564,15.333,o),
(563.5,17,o),
(562.5,19,cs),
(561.5,21,o),
(559.333,23.667,o),
(556,27,cs),
(548.938,32.297,o),
(505.821,75.179,o),
(426,155,cs),
(345.309,235.691,o),
(295.649,286.351,o),
(276,306,c),
(398.195,313.8,o),
(481,404.229,o),
(481,491,cs),
(481,569.357,o),
(416.89,639,o),
(280,639,cs),
(134,639,l),
(129.972,582.608,o),
(123.012,458.868,o),
(112.5,289.5,cs),
(101.516,112.531,o),
(96,17.897,o),
(96,14,cs),
(96,-4.667,o),
(126.333,-13,o),
(149,-13,cs),
(155.667,-13,o),
(159,-10.333,o),
(159,-5,cs),
(159,113.667,o),
(162,217.667,o),
(168,307,c),
(171.333,302.333,o),
(176.833,299.167,o),
(184.5,297.5,cs),
(192.167,295.833,o),
(198,294.333,o),
(202,293,c),
(250.593,254.637,o),
(391.014,116.885,o),
(490,8,cs),
(500.667,-4,o),
(510.333,-13,o),
(521,-13,cs),
(535.211,-13,o),
(564,5.199,o),
(564,14,cs)
);
},
{
closed = 1;
nodes = (
(421,440,o),
(405,410.667,o),
(381,388,cs),
(327.448,337.126,o),
(231.27,323.341,o),
(170,331,c),
(177.174,469.705,o),
(188.87,568.092,o),
(193,597,c),
(209,599.667,o),
(223.667,602,o),
(249,602,cs),
(383.995,602,o),
(421,553.535,o),
(421,480,cs)
);
}
);
userData = {
assembly = "PUSHW[ ]	/* 1 value pushed */
72
MDAP[1]	/* MoveDirectAbsPt */
PUSHW[ ]	/* 1 value pushed */
51
MDAP[1]	/* MoveDirectAbsPt */
PUSHW[ ]	/* 1 value pushed */
72
SRP0[ ]	/* SetRefPoint0 */
PUSHW[ ]	/* 1 value pushed */
23
MDRP[10000]	/* MoveDirectRelPt */
PUSHW[ ]	/* 1 value pushed */
23
MDAP[1]	/* MoveDirectAbsPt */
NPUSHW[ ]	/* 5 values pushed */
74 51 90 51 2
DELTAP2[ ]	/* DeltaExceptionP2 */
NPUSHW[ ]	/* 33 values pushed */
9 51 25 51 41 51 57 51 73 51 89 51 105 51 121 51 137 51 153 51 169 51 185 51 201 51 217 51 233 51 249 51 16
DELTAP1[ ]	/* DeltaExceptionP1 */
NPUSHW[ ]	/* 9 values pushed */
9 51 25 51 41 51 57 51 4
DELTAP2[ ]	/* DeltaExceptionP2 */
PUSHW[ ]	/* 1 value pushed */
51
SRP0[ ]	/* SetRefPoint0 */
PUSHW[ ]	/* 2 values pushed */
36 3
MIRP[10100]	/* MoveIndirectRelPt */
PUSHW[ ]	/* 3 values pushed */
16 23 36
SRP1[ ]	/* SetRefPoint1 */
SRP2[ ]	/* SetRefPoint2 */
IP[ ]	/* InterpolatePts */
PUSHW[ ]	/* 1 value pushed */
23
SRP0[ ]	/* SetRefPoint0 */
PUSHW[ ]	/* 2 values pushed */
18 3
MIRP[10100]	/* MoveIndirectRelPt */
NPUSHW[ ]	/* 33 values pushed */
6 18 22 18 38 18 54 18 70 18 86 18 102 18 118 18 134 18 150 18 166 18 182 18 198 18 214 18 230 18 246 18 16
DELTAP1[ ]	/* DeltaExceptionP1 */
NPUSHW[ ]	/* 9 values pushed */
6 18 22 18 38 18 54 18 4
DELTAP2[ ]	/* DeltaExceptionP2 */
NPUSHW[ ]	/* 5 values pushed */
69 18 85 18 2
DELTAP2[ ]	/* DeltaExceptionP2 */
PUSHW[ ]	/* 3 values pushed */
41 23 36
SRP1[ ]	/* SetRefPoint1 */
SRP2[ ]	/* SetRefPoint2 */
IP[ ]	/* InterpolatePts */
PUSHW[ ]	/* 1 value pushed */
36
SRP0[ ]	/* SetRefPoint0 */
PUSHW[ ]	/* 1 value pushed */
73
MDRP[11100]	/* MoveDirectRelPt */
SVTCA[0]	/* SetFreedomAndProjectionVectorToAxis */
PUSHW[ ]	/* 1 value pushed */
0
RCVT[ ]	/* ReadCVT */
IF[ ]	/* If */
PUSHW[ ]	/* 1 value pushed */
5
MDAP[1]	/* MoveDirectAbsPt */
ELSE[ ]	/* Else */
PUSHW[ ]	/* 2 values pushed */
5 5
MIAP[0]	/* MoveIndirectAbsPt */
EIF[ ]	/* EndIf */
PUSHW[ ]	/* 1 value pushed */
0
RCVT[ ]	/* ReadCVT */
IF[ ]	/* If */
PUSHW[ ]	/* 1 value pushed */
20
MDAP[1]	/* MoveDirectAbsPt */
ELSE[ ]	/* Else */
PUSHW[ ]	/* 2 values pushed */
20 5
MIAP[0]	/* MoveIndirectAbsPt */
EIF[ ]	/* EndIf */
PUSHW[ ]	/* 4 values pushed */
31 2 56 4
CALL[ ]	/* CallFunction */
PUSHW[ ]	/* 1 value pushed */
56
SRP0[ ]	/* SetRefPoint0 */
PUSHW[ ]	/* 1 value pushed */
59
MDRP[10000]	/* MoveDirectRelPt */
PUSHW[ ]	/* 1 value pushed */
59
MDAP[1]	/* MoveDirectAbsPt */
IUP[0]	/* InterpolateUntPts */
IUP[1]	/* InterpolateUntPts */";
};
width = 580;
}
);
note = R;
unicode = 82;
},
{
glyphname = S;
lastChange = "2025-05-29 09:07:02 +0000";
layers = (
{
layerId = m01;
shapes = (
{
closed = 1;
nodes = (
(386,578.667,o),
(384.667,586.333,o),
(378,593,cs),
(342,631.667,o),
(282.667,652,o),
(232,652,cs),
(109.863,652,o),
(57,570.35,o),
(57,487,cs),
(57,433.667,o),
(80,397.667,o),
(112,367,cs),
(155.727,325.702,o),
(246.944,273.829,o),
(283,235,cs),
(307,208.333,o),
(323,179.667,o),
(323,141,cs),
(323,61.882,o),
(250.803,29,o),
(208,29,cs),
(138.494,29,o),
(85.371,62.299,o),
(56,89,cs),
(46.667,97,o),
(39.833,103.667,o),
(35.5,109,cs),
(31.167,114.333,o),
(28,117,o),
(26,117,cs),
(15.489,117,o),
(11,77.565,o),
(11,68,cs),
(11,62.667,o),
(12.333,51.667,o),
(19,45,cs),
(49.667,14.333,o),
(102,-13,o),
(186,-13,cs),
(273.519,-13,o),
(379,59.571,o),
(379,175,cs),
(379,217.667,o),
(361,251.333,o),
(329,282,cs),
(291.712,319.288,o),
(199.449,371.551,o),
(162,409,cs),
(131.333,439.667,o),
(116,473.333,o),
(116,510,cs),
(116,583.656,o),
(169.165,613,o),
(208,613,cs),
(279.778,613,o),
(320.548,575.452,o),
(346,550,cs),
(352,544,o),
(356.833,539,o),
(360.5,535,cs),
(364.167,531,o),
(367.667,529,o),
(371,529,cs),
(381,529,o),
(386,543.333,o),
(386,572,cs)
);
}
);
userData = {
assembly = "PUSHW[ ]	/* 1 value pushed */
76
MDAP[1]	/* MoveDirectAbsPt */
PUSHW[ ]	/* 1 value pushed */
54
MDAP[1]	/* MoveDirectAbsPt */
NPUSHW[ ]	/* 5 values pushed */
74 54 90 54 2
DELTAP2[ ]	/* DeltaExceptionP2 */
NPUSHW[ ]	/* 33 values pushed */
9 54 25 54 41 54 57 54 73 54 89 54 105 54 121 54 137 54 153 54 169 54 185 54 201 54 217 54 233 54 249 54 16
DELTAP1[ ]	/* DeltaExceptionP1 */
NPUSHW[ ]	/* 9 values pushed */
9 54 25 54 41 54 57 54 4
DELTAP2[ ]	/* DeltaExceptionP2 */
PUSHW[ ]	/* 2 values pushed */
25 3
MIRP[10100]	/* MoveIndirectRelPt */
PUSHW[ ]	/* 1 value pushed */
0
MDRP[10000]	/* MoveDirectRelPt */
PUSHW[ ]	/* 1 value pushed */
0
MDAP[1]	/* MoveDirectAbsPt */
PUSHW[ ]	/* 1 value pushed */
76
SRP0[ ]	/* SetRefPoint0 */
PUSHW[ ]	/* 1 value pushed */
65
MDRP[10000]	/* MoveDirectRelPt */
PUSHW[ ]	/* 1 value pushed */
65
MDAP[1]	/* MoveDirectAbsPt */
PUSHW[ ]	/* 2 values pushed */
15 3
MIRP[10100]	/* MoveIndirectRelPt */
NPUSHW[ ]	/* 33 values pushed */
6 15 22 15 38 15 54 15 70 15 86 15 102 15 118 15 134 15 150 15 166 15 182 15 198 15 214 15 230 15 246 15 16
DELTAP1[ ]	/* DeltaExceptionP1 */
NPUSHW[ ]	/* 9 values pushed */
6 15 22 15 38 15 54 15 4
DELTAP2[ ]	/* DeltaExceptionP2 */
NPUSHW[ ]	/* 5 values pushed */
69 15 85 15 2
DELTAP2[ ]	/* DeltaExceptionP2 */
PUSHW[ ]	/* 1 value pushed */
54
SRP0[ ]	/* SetRefPoint0 */
PUSHW[ ]	/* 1 value pushed */
22
MDRP[10000]	/* MoveDirectRelPt */
PUSHW[ ]	/* 1 value pushed */
22
MDAP[1]	/* MoveDirectAbsPt */
PUSHW[ ]	/* 1 value pushed */
65
SRP0[ ]	/* SetRefPoint0 */
PUSHW[ ]	/* 1 value pushed */
44
MDRP[10000]	/* MoveDirectRelPt */
PUSHW[ ]	/* 1 value pushed */
44
MDAP[1]	/* MoveDirectAbsPt */
PUSHW[ ]	/* 1 value pushed */
15
SRP0[ ]	/* SetRefPoint0 */
PUSHW[ ]	/* 1 value pushed */
62
MDRP[10000]	/* MoveDirectRelPt */
PUSHW[ ]	/* 1 value pushed */
62
MDAP[1]	/* MoveDirectAbsPt */
PUSHW[ ]	/* 1 value pushed */
25
SRP0[ ]	/* SetRefPoint0 */
PUSHW[ ]	/* 1 value pushed */
73
MDRP[10000]	/* MoveDirectRelPt */
PUSHW[ ]	/* 1 value pushed */
73
MDAP[1]	/* MoveDirectAbsPt */
PUSHW[ ]	/* 1 value pushed */
25
SRP0[ ]	/* SetRefPoint0 */
PUSHW[ ]	/* 1 value pushed */
77
MDRP[11100]	/* MoveDirectRelPt */
SVTCA[0]	/* SetFreedomAndProjectionVectorToAxis */
PUSHW[ ]	/* 1 value pushed */
0
RCVT[ ]	/* ReadCVT */
IF[ ]	/* If */
PUSHW[ ]	/* 1 value pushed */
30
MDAP[1]	/* MoveDirectAbsPt */
ELSE[ ]	/* Else */
PUSHW[ ]	/* 2 values pushed */
30 5
MIAP[0]	/* MoveIndirectAbsPt */
EIF[ ]	/* EndIf */
PUSHW[ ]	/* 4 values pushed */
70 2 10 4
CALL[ ]	/* CallFunction */
PUSHW[ ]	/* 1 value pushed */
30
SRP0[ ]	/* SetRefPoint0 */
PUSHW[ ]	/* 2 values pushed */
49 1
MIRP[10100]	/* MoveIndirectRelPt */
NPUSHW[ ]	/* 33 values pushed */
7 49 23 49 39 49 55 49 71 49 87 49 103 49 119 49 135 49 151 49 167 49 183 49 199 49 215 49 231 49 247 49 16
DELTAP1[ ]	/* DeltaExceptionP1 */
NPUSHW[ ]	/* 9 values pushed */
7 49 23 49 39 49 55 49 4
DELTAP2[ ]	/* DeltaExceptionP2 */
NPUSHW[ ]	/* 5 values pushed */
70 49 86 49 2
DELTAP2[ ]	/* DeltaExceptionP2 */
IUP[0]	/* InterpolateUntPts */
IUP[1]	/* InterpolateUntPts */";
};
width = 433;
}
);
note = S;
unicode = 83;
},
{
glyphname = T;
lastChange = "2025-05-29 09:07:02 +0000";
layers = (
{
layerId = m01;
shapes = (
{
closed = 1;
nodes = (
(496,638,o),
(494.333,639,o),
(489,639,cs),
(6,639,ls),
(0.667,639,o),
(-3.167,634.833,o),
(-5.5,626.5,cs),
(-7.833,618.167,o),
(-9,608.333,o),
(-9,597,cs),
(-9,591,o),
(-6.333,588,o),
(-1,588,cs),
(10.755,588,o),
(80.744,596,o),
(210,596,c),
(207.975,474.479,o),
(198.887,320.229,o),
(192,219.5,cs),
(182.881,86.13,o),
(178,17.647,o),
(178,14,cs),
(178,-4.667,o),
(207.333,-13,o),
(230,-13,cs),
(237.333,-13,o),
(241,-10.333,o),
(241,-5,cs),
(241,129.667,o),
(246.333,259.5,o),
(253,365.5,cs),
(259.667,471.5,o),
(267,554.667,o),
(271,596,c),
(339.667,596,o),
(390.5,594.667,o),
(423.5,592,cs),
(456.5,589.333,o),
(475.667,588,o),
(481,588,cs),
(486.333,588,o),
(490.167,592.167,o),
(492.5,600.5,cs),
(494.833,608.833,o),
(496,618.667,o),
(496,630,cs)
);
}
);
userData = {
assembly = "PUSHW[ ]	/* 4 values pushed */
11 3 16 4
CALL[ ]	/* CallFunction */
NPUSHW[ ]	/* 33 values pushed */
6 11 22 11 38 11 54 11 70 11 86 11 102 11 118 11 134 11 150 11 166 11 182 11 198 11 214 11 230 11 246 11 16
DELTAP1[ ]	/* DeltaExceptionP1 */
NPUSHW[ ]	/* 9 values pushed */
6 11 22 11 38 11 54 11 4
DELTAP2[ ]	/* DeltaExceptionP2 */
NPUSHW[ ]	/* 5 values pushed */
69 11 85 11 2
DELTAP2[ ]	/* DeltaExceptionP2 */
SVTCA[0]	/* SetFreedomAndProjectionVectorToAxis */
PUSHW[ ]	/* 1 value pushed */
0
RCVT[ ]	/* ReadCVT */
IF[ ]	/* If */
PUSHW[ ]	/* 1 value pushed */
13
MDAP[1]	/* MoveDirectAbsPt */
ELSE[ ]	/* Else */
PUSHW[ ]	/* 2 values pushed */
13 5
MIAP[0]	/* MoveIndirectAbsPt */
EIF[ ]	/* EndIf */
PUSHW[ ]	/* 4 values pushed */
34 1 6 4
CALL[ ]	/* CallFunction */
PUSHW[ ]	/* 1 value pushed */
6
SRP0[ ]	/* SetRefPoint0 */
PUSHW[ ]	/* 1 value pushed */
23
MDRP[10000]	/* MoveDirectRelPt */
IUP[0]	/* InterpolateUntPts */
IUP[1]	/* InterpolateUntPts */";
};
width = 487;
}
);
note = T;
unicode = 84;
},
{
glyphname = U;
lastChange = "2025-05-29 09:07:02 +0000";
layers = (
{
layerId = m01;
shapes = (
{
closed = 1;
nodes = (
(649,644.667,o),
(627.333,652,o),
(606,652,cs),
(596.667,652,o),
(596,650.333,o),
(596,645,cs),
(596,469,o),
(588.167,343.333,o),
(571.5,254,cs),
(554.833,164.667,o),
(530.333,111,o),
(497,79,cs),
(462.333,44.333,o),
(404.333,27,o),
(355,27,cs),
(293.667,27,o),
(239,41.333,o),
(203,80,cs),
(160.333,125.333,o),
(144,211,o),
(144,307,cs),
(144,456.677,o),
(162,630.517,o),
(162,626,cs),
(162,644.667,o),
(131.667,652,o),
(109,652,cs),
(99.667,652,o),
(99,650.333,o),
(99,645,cs),
(99,616.464,o),
(83,458.677,o),
(83,298,cs),
(83,198.394,o),
(96.933,103.067,o),
(147,53,cs),
(189.667,10.333,o),
(262.667,-13,o),
(336,-13,cs),
(417.333,-13,o),
(480.333,7.333,o),
(525,48,cs),
(573,92,o),
(603.167,158.167,o),
(622.5,253.5,cs),
(641.833,348.833,o),
(649,471.333,o),
(649,626,cs)
);
}
);
userData = {
assembly = "PUSHW[ ]	/* 1 value pushed */
51
MDAP[1]	/* MoveDirectAbsPt */
PUSHW[ ]	/* 1 value pushed */
45
MDAP[1]	/* MoveDirectAbsPt */
NPUSHW[ ]	/* 5 values pushed */
74 45 90 45 2
DELTAP2[ ]	/* DeltaExceptionP2 */
NPUSHW[ ]	/* 33 values pushed */
9 45 25 45 41 45 57 45 73 45 89 45 105 45 121 45 137 45 153 45 169 45 185 45 201 45 217 45 233 45 249 45 16
DELTAP1[ ]	/* DeltaExceptionP1 */
NPUSHW[ ]	/* 9 values pushed */
9 45 25 45 41 45 57 45 4
DELTAP2[ ]	/* DeltaExceptionP2 */
PUSHW[ ]	/* 2 values pushed */
0 4
MIRP[10100]	/* MoveIndirectRelPt */
PUSHW[ ]	/* 1 value pushed */
51
SRP0[ ]	/* SetRefPoint0 */
PUSHW[ ]	/* 1 value pushed */
15
MDRP[10000]	/* MoveDirectRelPt */
PUSHW[ ]	/* 1 value pushed */
15
MDAP[1]	/* MoveDirectAbsPt */
PUSHW[ ]	/* 2 values pushed */
31 3
MIRP[10100]	/* MoveIndirectRelPt */
NPUSHW[ ]	/* 33 values pushed */
6 31 22 31 38 31 54 31 70 31 86 31 102 31 118 31 134 31 150 31 166 31 182 31 198 31 214 31 230 31 246 31 16
DELTAP1[ ]	/* DeltaExceptionP1 */
NPUSHW[ ]	/* 9 values pushed */
6 31 22 31 38 31 54 31 4
DELTAP2[ ]	/* DeltaExceptionP2 */
NPUSHW[ ]	/* 5 values pushed */
69 31 85 31 2
DELTAP2[ ]	/* DeltaExceptionP2 */
PUSHW[ ]	/* 1 value pushed */
10
MDRP[10000]	/* MoveDirectRelPt */
PUSHW[ ]	/* 1 value pushed */
10
MDAP[1]	/* MoveDirectAbsPt */
PUSHW[ ]	/* 1 value pushed */
0
SRP0[ ]	/* SetRefPoint0 */
PUSHW[ ]	/* 1 value pushed */
52
MDRP[11100]	/* MoveDirectRelPt */
SVTCA[0]	/* SetFreedomAndProjectionVectorToAxis */
PUSHW[ ]	/* 1 value pushed */
0
RCVT[ ]	/* ReadCVT */
IF[ ]	/* If */
PUSHW[ ]	/* 1 value pushed */
7
MDAP[1]	/* MoveDirectAbsPt */
ELSE[ ]	/* Else */
PUSHW[ ]	/* 2 values pushed */
7 5
MIAP[0]	/* MoveIndirectAbsPt */
EIF[ ]	/* EndIf */
PUSHW[ ]	/* 2 values pushed */
37 1
MIRP[10100]	/* MoveIndirectRelPt */
NPUSHW[ ]	/* 33 values pushed */
7 37 23 37 39 37 55 37 71 37 87 37 103 37 119 37 135 37 151 37 167 37 183 37 199 37 215 37 231 37 247 37 16
DELTAP1[ ]	/* DeltaExceptionP1 */
NPUSHW[ ]	/* 9 values pushed */
7 37 23 37 39 37 55 37 4
DELTAP2[ ]	/* DeltaExceptionP2 */
NPUSHW[ ]	/* 5 values pushed */
70 37 86 37 2
DELTAP2[ ]	/* DeltaExceptionP2 */
IUP[0]	/* InterpolateUntPts */
IUP[1]	/* InterpolateUntPts */";
};
width = 700;
}
);
note = U;
unicode = 85;
},
{
glyphname = V;
lastChange = "2025-05-29 09:07:02 +0000";
layers = (
{
layerId = m01;
shapes = (
{
closed = 1;
nodes = (
(560,640.667,o),
(537.333,652,o),
(516,652,cs),
(510.667,652,o),
(507.333,649.333,o),
(506,644,cs),
(491.781,601.342,o),
(439.185,478.407,o),
(373.5,339.5,cs),
(305.66,196.034,o),
(255.229,92.357,o),
(237,64,c),
(218.41,104.897,o),
(173.119,240.845,o),
(133.5,365.5,cs),
(82.995,524.407,o),
(55.345,611.965,o),
(50,628,cs),
(48.667,632.667,o),
(43.667,637.833,o),
(35,643.5,cs),
(26.333,649.167,o),
(12.333,652,o),
(-7,652,cs),
(-17.667,652,o),
(-18,650.333,o),
(-18,645,cs),
(-18,643,o),
(-17.667,641.167,o),
(-17,639.5,cs),
(-16.333,637.833,o),
(-15.333,634.667,o),
(-14,630,cs),
(-0.615,586.02,o),
(38.751,465.362,o),
(90,310.5,cs),
(134.874,174.903,o),
(174.242,59.275,o),
(192,6,cs),
(194.667,-3.333,o),
(215,-13,o),
(239,-13,cs),
(247,-13,o),
(249.333,-11.333,o),
(252,-6,cs),
(280.436,47.081,o),
(341.928,173.016,o),
(416.5,325.5,cs),
(482.451,460.354,o),
(549.329,599.767,o),
(555,613,c),
(557.667,617,o),
(560,623.333,o),
(560,626,cs)
);
}
);
userData = {
assembly = "SVTCA[0]	/* SetFreedomAndProjectionVectorToAxis */
PUSHW[ ]	/* 1 value pushed */
0
RCVT[ ]	/* ReadCVT */
IF[ ]	/* If */
PUSHW[ ]	/* 1 value pushed */
10
MDAP[1]	/* MoveDirectAbsPt */
ELSE[ ]	/* Else */
PUSHW[ ]	/* 2 values pushed */
10 5
MIAP[0]	/* MoveIndirectAbsPt */
EIF[ ]	/* EndIf */
PUSHW[ ]	/* 1 value pushed */
0
RCVT[ ]	/* ReadCVT */
IF[ ]	/* If */
PUSHW[ ]	/* 1 value pushed */
13
MDAP[1]	/* MoveDirectAbsPt */
ELSE[ ]	/* Else */
PUSHW[ ]	/* 2 values pushed */
13 5
MIAP[0]	/* MoveIndirectAbsPt */
EIF[ ]	/* EndIf */
IUP[0]	/* InterpolateUntPts */
IUP[1]	/* InterpolateUntPts */";
};
width = 511;
}
);
note = V;
unicode = 86;
},
{
glyphname = W;
lastChange = "2025-05-29 09:07:02 +0000";
layers = (
{
layerId = m01;
shapes = (
{
closed = 1;
nodes = (
(956,644.667,o),
(929,652,o),
(909,652,cs),
(901,652,o),
(901,650.333,o),
(901,645,cs),
(901,618.988,o),
(882.657,538.663,o),
(848,403.5,cs),
(819.095,290.772,o),
(786.243,171.16,o),
(759,69,c),
(729.224,130.537,o),
(690.783,228.443,o),
(643.5,350.5,cs),
(593.652,479.178,o),
(552.722,587.636,o),
(532,635,cs),
(528,644.333,o),
(514.667,652,o),
(500,652,cs),
(494.667,652,o),
(491.333,646.667,o),
(490,644,cs),
(424.661,479.345,o),
(324.002,248.491,o),
(224,69,c),
(210.708,133.562,o),
(192.714,255.72,o),
(175,393,cs),
(157.666,527.337,o),
(147,613.354,o),
(147,626,cs),
(147,643.333,o),
(115,652,o),
(95,652,cs),
(87,652,o),
(83,648.667,o),
(83,642,cs),
(83,640,o),
(83,637.333,o),
(83,634,cs),
(83,630.667,o),
(83.333,627,o),
(84,623,cs),
(86.978,588.748,o),
(104.494,471.761,o),
(122,357,cs),
(139.877,239.804,o),
(158.222,111.185,o),
(170,15,cs),
(172.667,-5,o),
(203.667,-13,o),
(225,-13,cs),
(233,-13,o),
(236,-12,o),
(240,-4,cs),
(252.68,21.361,o),
(287.15,89.311,o),
(341,201,cs),
(385.275,292.83,o),
(457.306,444.431,o),
(504,550,c),
(527.31,485.899,o),
(572.168,376.773,o),
(624.5,246.5,cs),
(681.264,105.194,o),
(711.932,31.227,o),
(718,11,cs),
(722,-3.667,o),
(747.333,-13,o),
(778,-13,cs),
(788.667,-13,o),
(790.667,-10.333,o),
(792,3,cs),
(795.149,31.341,o),
(834.179,173.763,o),
(876,328.5,cs),
(928.435,522.509,o),
(956,621.421,o),
(956,626,cs)
);
}
);
userData = {
assembly = "PUSHW[ ]	/* 1 value pushed */
88
MDAP[1]	/* MoveDirectAbsPt */
PUSHW[ ]	/* 1 value pushed */
82
MDAP[1]	/* MoveDirectAbsPt */
NPUSHW[ ]	/* 5 values pushed */
74 82 90 82 2
DELTAP2[ ]	/* DeltaExceptionP2 */
NPUSHW[ ]	/* 33 values pushed */
9 82 25 82 41 82 57 82 73 82 89 82 105 82 121 82 137 82 153 82 169 82 185 82 201 82 217 82 233 82 249 82 16
DELTAP1[ ]	/* DeltaExceptionP1 */
NPUSHW[ ]	/* 9 values pushed */
9 82 25 82 41 82 57 82 4
DELTAP2[ ]	/* DeltaExceptionP2 */
PUSHW[ ]	/* 2 values pushed */
0 3
MIRP[10100]	/* MoveIndirectRelPt */
PUSHW[ ]	/* 1 value pushed */
88
SRP0[ ]	/* SetRefPoint0 */
PUSHW[ ]	/* 1 value pushed */
45
MDRP[10000]	/* MoveDirectRelPt */
PUSHW[ ]	/* 1 value pushed */
45
MDAP[1]	/* MoveDirectAbsPt */
PUSHW[ ]	/* 3 values pushed */
22 45 0
SRP1[ ]	/* SetRefPoint1 */
SRP2[ ]	/* SetRefPoint2 */
IP[ ]	/* InterpolatePts */
PUSHW[ ]	/* 1 value pushed */
42
MDRP[10000]	/* MoveDirectRelPt */
PUSHW[ ]	/* 1 value pushed */
42
MDAP[1]	/* MoveDirectAbsPt */
PUSHW[ ]	/* 1 value pushed */
45
SRP0[ ]	/* SetRefPoint0 */
PUSHW[ ]	/* 2 values pushed */
50 3
MIRP[10100]	/* MoveIndirectRelPt */
NPUSHW[ ]	/* 33 values pushed */
6 50 22 50 38 50 54 50 70 50 86 50 102 50 118 50 134 50 150 50 166 50 182 50 198 50 214 50 230 50 246 50 16
DELTAP1[ ]	/* DeltaExceptionP1 */
NPUSHW[ ]	/* 9 values pushed */
6 50 22 50 38 50 54 50 4
DELTAP2[ ]	/* DeltaExceptionP2 */
NPUSHW[ ]	/* 5 values pushed */
69 50 85 50 2
DELTAP2[ ]	/* DeltaExceptionP2 */
PUSHW[ ]	/* 3 values pushed */
57 45 0
SRP1[ ]	/* SetRefPoint1 */
SRP2[ ]	/* SetRefPoint2 */
IP[ ]	/* InterpolatePts */
PUSHW[ ]	/* 3 values pushed */
75 45 0
SRP1[ ]	/* SetRefPoint1 */
SRP2[ ]	/* SetRefPoint2 */
IP[ ]	/* InterpolatePts */
PUSHW[ ]	/* 1 value pushed */
0
SRP0[ ]	/* SetRefPoint0 */
PUSHW[ ]	/* 1 value pushed */
89
MDRP[11100]	/* MoveDirectRelPt */
SVTCA[0]	/* SetFreedomAndProjectionVectorToAxis */
PUSHW[ ]	/* 1 value pushed */
0
RCVT[ ]	/* ReadCVT */
IF[ ]	/* If */
PUSHW[ ]	/* 1 value pushed */
12
MDAP[1]	/* MoveDirectAbsPt */
ELSE[ ]	/* Else */
PUSHW[ ]	/* 2 values pushed */
12 5
MIAP[0]	/* MoveIndirectAbsPt */
EIF[ ]	/* EndIf */
PUSHW[ ]	/* 1 value pushed */
0
RCVT[ ]	/* ReadCVT */
IF[ ]	/* If */
PUSHW[ ]	/* 1 value pushed */
32
MDAP[1]	/* MoveDirectAbsPt */
ELSE[ ]	/* Else */
PUSHW[ ]	/* 2 values pushed */
32 5
MIAP[0]	/* MoveIndirectAbsPt */
EIF[ ]	/* EndIf */
IUP[0]	/* InterpolateUntPts */
IUP[1]	/* InterpolateUntPts */";
};
width = 1020;
}
);
note = W;
unicode = 87;
},
{
glyphname = X;
lastChange = "2025-05-29 09:07:02 +0000";
layers = (
{
layerId = m01;
shapes = (
{
closed = 1;
nodes = (
(483,622,o),
(470.333,652,o),
(457,652,cs),
(455,652,o),
(452.667,649.333,o),
(450,644,cs),
(429.185,591.962,o),
(338.47,455.156,o),
(271,366,c),
(207.657,453.369,o),
(120.448,593.084,o),
(88,645,cs),
(84.667,649.667,o),
(78.667,652,o),
(70,652,cs),
(48.667,652,o),
(23,636,o),
(23,628,cs),
(23,626.667,o),
(23.333,625.167,o),
(24,623.5,cs),
(24.667,621.833,o),
(26.667,618.667,o),
(30,614,cs),
(40.667,598.667,o),
(62.833,568.167,o),
(96.5,522.5,cs),
(130.167,476.833,o),
(172.667,414,o),
(224,334,c),
(149.333,242,o),
(74.333,156,o),
(-19,52,cs),
(-24.333,46.667,o),
(-27,42,o),
(-27,38,cs),
(-27,19.169,o),
(-18.718,-13,o),
(-3,-13,cs),
(-1,-13,o),
(0.833,-12.5,o),
(2.5,-11.5,cs),
(4.167,-10.5,o),
(7.667,-6.333,o),
(13,1,cs),
(74.333,86.333,o),
(147,174.333,o),
(247,297,c),
(268.489,264.766,o),
(305.797,209.805,o),
(358,131.5,cs),
(403.609,63.087,o),
(436.534,13.377,o),
(448,0,cs),
(456,-10.667,o),
(458.333,-13,o),
(465,-13,cs),
(477,-13,o),
(497,-4.667,o),
(509,6,cs),
(513,9.333,o),
(515,12,o),
(515,14,cs),
(515,14.667,o),
(511.333,20.333,o),
(504,31,cs),
(484.426,57.099,o),
(367.925,212.571,o),
(293,331,c),
(355.667,409.667,o),
(409.333,483.667,o),
(476,577,cs),
(480.667,584.333,o),
(483,591.333,o),
(483,598,cs)
);
}
);
userData = {
assembly = "SVTCA[0]	/* SetFreedomAndProjectionVectorToAxis */
PUSHW[ ]	/* 1 value pushed */
0
RCVT[ ]	/* ReadCVT */
IF[ ]	/* If */
PUSHW[ ]	/* 1 value pushed */
17
MDAP[1]	/* MoveDirectAbsPt */
ELSE[ ]	/* Else */
PUSHW[ ]	/* 2 values pushed */
17 5
MIAP[0]	/* MoveIndirectAbsPt */
EIF[ ]	/* EndIf */
PUSHW[ ]	/* 1 value pushed */
0
RCVT[ ]	/* ReadCVT */
IF[ ]	/* If */
PUSHW[ ]	/* 1 value pushed */
33
MDAP[1]	/* MoveDirectAbsPt */
ELSE[ ]	/* Else */
PUSHW[ ]	/* 2 values pushed */
33 5
MIAP[0]	/* MoveIndirectAbsPt */
EIF[ ]	/* EndIf */
IUP[0]	/* InterpolateUntPts */
IUP[1]	/* InterpolateUntPts */";
};
width = 503;
}
);
note = X;
unicode = 88;
},
{
glyphname = Y;
lastChange = "2025-05-29 09:07:02 +0000";
layers = (
{
layerId = m01;
shapes = (
{
closed = 1;
nodes = (
(476,626,o),
(465.667,652,o),
(451,652,cs),
(447,652,o),
(444,650,o),
(442,646,cs),
(436.569,635.138,o),
(410.844,589.501,o),
(362.5,510.5,cs),
(313.173,429.892,o),
(292.04,393.664,o),
(246,320,c),
(219.293,365.197,o),
(152.243,498.019,o),
(68,630,cs),
(55.63,649.792,o),
(27.194,652,o),
(7,652,cs),
(-0.333,652,o),
(-5,651.333,o),
(-7,650,cs),
(-9,648.667,o),
(-10,646.333,o),
(-10,643,cs),
(-10,637.667,o),
(-2.333,626,o),
(3,618,cs),
(21.239,589.339,o),
(31.284,580.25,o),
(69,521.5,cs),
(103.667,467.5,o),
(151,388.333,o),
(211,275,c),
(202.381,180.196,o),
(193,23.335,o),
(193,14,cs),
(193,-4.667,o),
(223.333,-13,o),
(246,-13,cs),
(255.333,-13,o),
(256,-10.333,o),
(256,-5,cs),
(257.333,40.333,o),
(258.833,85.167,o),
(260.5,129.5,cs),
(262.167,173.833,o),
(263.667,218.667,o),
(265,264,c),
(325.132,369.946,o),
(421.149,514.098,o),
(466,590,cs),
(470,597.333,o),
(472.667,602.667,o),
(474,606,cs),
(475.333,609.333,o),
(476,612,o),
(476,614,cs)
);
}
);
userData = {
assembly = "PUSHW[ ]	/* 4 values pushed */
11 3 17 4
CALL[ ]	/* CallFunction */
NPUSHW[ ]	/* 33 values pushed */
6 11 22 11 38 11 54 11 70 11 86 11 102 11 118 11 134 11 150 11 166 11 182 11 198 11 214 11 230 11 246 11 16
DELTAP1[ ]	/* DeltaExceptionP1 */
NPUSHW[ ]	/* 9 values pushed */
6 11 22 11 38 11 54 11 4
DELTAP2[ ]	/* DeltaExceptionP2 */
NPUSHW[ ]	/* 5 values pushed */
69 11 85 11 2
DELTAP2[ ]	/* DeltaExceptionP2 */
PUSHW[ ]	/* 3 values pushed */
43 17 11
SRP1[ ]	/* SetRefPoint1 */
SRP2[ ]	/* SetRefPoint2 */
IP[ ]	/* InterpolatePts */
SVTCA[0]	/* SetFreedomAndProjectionVectorToAxis */
PUSHW[ ]	/* 1 value pushed */
0
RCVT[ ]	/* ReadCVT */
IF[ ]	/* If */
PUSHW[ ]	/* 1 value pushed */
14
MDAP[1]	/* MoveDirectAbsPt */
ELSE[ ]	/* Else */
PUSHW[ ]	/* 2 values pushed */
14 5
MIAP[0]	/* MoveIndirectAbsPt */
EIF[ ]	/* EndIf */
IUP[0]	/* InterpolateUntPts */
IUP[1]	/* InterpolateUntPts */";
};
width = 476;
}
);
note = Y;
unicode = 89;
},
{
glyphname = Z;
lastChange = "2025-05-29 09:07:02 +0000";
layers = (
{
layerId = m01;
shapes = (
{
closed = 1;
nodes = (
(432,619.667,o),
(423.333,639,o),
(414,639,cs),
(42,639,ls),
(32.667,639,o),
(24,616.667,o),
(24,594,cs),
(24,583.333,o),
(26,578,o),
(30,578,cs),
(35.852,578,o),
(52.553,583.198,o),
(74.5,586,cs),
(109.992,590.531,o),
(176.712,594,o),
(271,594,cs),
(364,594,l),
(331.646,537.381,o),
(260.841,436.276,o),
(185,329.5,cs),
(102.023,212.677,o),
(19.999,103.651,o),
(-15,58,cs),
(-23,47.333,o),
(-23,44.667,o),
(-23,38,cs),
(-23,23.333,o),
(-15.333,0,o),
(-6,0,cs),
(417,0,ls),
(423.667,0,o),
(434,23,o),
(434,43,cs),
(434,48.333,o),
(433.5,52.667,o),
(432.5,56,cs),
(431.5,59.333,o),
(429.667,61,o),
(427,61,cs),
(422.802,61,o),
(403.159,55.841,o),
(376,53.5,cs),
(331.713,49.682,o),
(252.244,46,o),
(139,46,cs),
(45,46,l),
(47.709,52.772,o),
(115.076,149.547,o),
(231,311.5,cs),
(349.867,477.564,o),
(413.769,566.461,o),
(423,578,cs),
(431,588.667,o),
(432,598.333,o),
(432,605,cs)
);
}
);
userData = {
assembly = "SVTCA[0]	/* SetFreedomAndProjectionVectorToAxis */
PUSHW[ ]	/* 1 value pushed */
0
RCVT[ ]	/* ReadCVT */
IF[ ]	/* If */
PUSHW[ ]	/* 1 value pushed */
24
MDAP[1]	/* MoveDirectAbsPt */
ELSE[ ]	/* Else */
PUSHW[ ]	/* 2 values pushed */
24 5
MIAP[0]	/* MoveIndirectAbsPt */
EIF[ ]	/* EndIf */
PUSHW[ ]	/* 4 values pushed */
50 1 38 4
CALL[ ]	/* CallFunction */
PUSHW[ ]	/* 1 value pushed */
24
SRP0[ ]	/* SetRefPoint0 */
PUSHW[ ]	/* 2 values pushed */
12 1
MIRP[10100]	/* MoveIndirectRelPt */
IUP[0]	/* InterpolateUntPts */
IUP[1]	/* InterpolateUntPts */";
};
width = 411;
}
);
note = Z;
unicode = 90;
},
{
glyphname = bracketleft;
lastChange = "2025-05-29 09:07:02 +0000";
layers = (
{
layerId = m01;
shapes = (
{
closed = 1;
nodes = (
(327,754,o),
(324.667,756,o),
(318,756,cs),
(134,756,l),
(131.355,652.848,o),
(118.841,423.011,o),
(106.5,199.5,cs),
(91.847,-65.876,o),
(84,-227.298,o),
(84,-244,c),
(261,-244,ls),
(277,-244,o),
(283,-227.667,o),
(283,-205,cs),
(283,-199,o),
(281,-196,o),
(277,-196,cs),
(266.279,-196,o),
(215.714,-201.197,o),
(140,-203,c),
(140,-83.721,o),
(149.42,107.957,o),
(161.5,321,cs),
(174.464,549.629,o),
(183.364,680.273,o),
(187,713,c),
(233.667,712.333,o),
(266.333,711.333,o),
(285,710,cs),
(303.667,708.667,o),
(314,708,o),
(316,708,cs),
(321.333,708,o),
(327,727.333,o),
(327,742,cs)
);
}
);
userData = {
assembly = "PUSHW[ ]	/* 4 values pushed */
13 3 24 4
CALL[ ]	/* CallFunction */
PUSHW[ ]	/* 1 value pushed */
13
SRP0[ ]	/* SetRefPoint0 */
PUSHW[ ]	/* 1 value pushed */
33
MDRP[10000]	/* MoveDirectRelPt */
PUSHW[ ]	/* 1 value pushed */
33
MDAP[1]	/* MoveDirectAbsPt */
SVTCA[0]	/* SetFreedomAndProjectionVectorToAxis */
PUSHW[ ]	/* 4 values pushed */
13 1 24 4
CALL[ ]	/* CallFunction */
PUSHW[ ]	/* 4 values pushed */
33 1 6 4
CALL[ ]	/* CallFunction */
PUSHW[ ]	/* 1 value pushed */
6
SRP0[ ]	/* SetRefPoint0 */
PUSHW[ ]	/* 1 value pushed */
3
MDRP[10000]	/* MoveDirectRelPt */
PUSHW[ ]	/* 1 value pushed */
3
MDAP[1]	/* MoveDirectAbsPt */
PUSHW[ ]	/* 1 value pushed */
13
SRP0[ ]	/* SetRefPoint0 */
PUSHW[ ]	/* 1 value pushed */
18
MDRP[10000]	/* MoveDirectRelPt */
PUSHW[ ]	/* 1 value pushed */
18
MDAP[1]	/* MoveDirectAbsPt */
IUP[0]	/* InterpolateUntPts */
IUP[1]	/* InterpolateUntPts */";
};
width = 311;
}
);
note = bracketleft;
unicode = 91;
},
{
glyphname = backslash;
lastChange = "2025-05-29 09:07:02 +0000";
layers = (
{
layerId = m01;
shapes = (
{
closed = 1;
nodes = (
(455,-12,o),
(453.667,-7.667,o),
(451,-1,cs),
(349.667,217.667,o),
(247.667,436.667,o),
(145,656,cs),
(138.333,670.667,o),
(132.667,675,o),
(122,675,cs),
(103.333,675,o),
(82,665.667,o),
(82,655,cs),
(82,653,o),
(83.333,648.667,o),
(86,642,cs),
(103.202,604.157,o),
(157.429,494.619,o),
(231.5,338.5,cs),
(302.22,189.445,o),
(363.387,57.487,o),
(392,-15,cs),
(398.667,-29.667,o),
(404.333,-34,o),
(415,-34,cs),
(433.667,-34,o),
(455,-24.667,o),
(455,-14,cs)
);
}
);
userData = {
assembly = "SVTCA[0]	/* SetFreedomAndProjectionVectorToAxis */
PUSHW[ ]	/* 1 value pushed */
0
RCVT[ ]	/* ReadCVT */
IF[ ]	/* If */
PUSHW[ ]	/* 1 value pushed */
3
MDAP[1]	/* MoveDirectAbsPt */
ELSE[ ]	/* Else */
PUSHW[ ]	/* 2 values pushed */
3 5
MIAP[0]	/* MoveIndirectAbsPt */
EIF[ ]	/* EndIf */
IUP[0]	/* InterpolateUntPts */
IUP[1]	/* InterpolateUntPts */";
};
width = 537;
}
);
note = backslash;
unicode = 92;
},
{
glyphname = bracketright;
lastChange = "2025-05-29 09:07:02 +0000";
layers = (
{
layerId = m01;
shapes = (
{
closed = 1;
nodes = (
(32,756,ls),
(14.667,756,o),
(9,739.667,o),
(9,717,cs),
(9,711,o),
(11,708,o),
(15,708,cs),
(18.365,708,o),
(64.181,711.934,o),
(153,714,c),
(151.093,590.038,o),
(142.255,392.678,o),
(129,179.5,cs),
(115.872,-31.637,o),
(106.708,-164.091,o),
(104,-202,c),
(57.333,-200.667,o),
(24.833,-199.333,o),
(6.5,-198,cs),
(-11.833,-196.667,o),
(-22,-196,o),
(-24,-196,cs),
(-29.333,-196,o),
(-35,-215.333,o),
(-35,-230,cs),
(-35,-242,o),
(-33.667,-244,o),
(-27,-244,cs),
(158,-244,l),
(159.333,-196,o),
(162.667,-110.5,o),
(168,-8.5,cs),
(173.18,90.565,o),
(177.955,201.6,o),
(184.5,324.5,cs),
(190.97,445.991,o),
(197.107,545.287,o),
(201,622.5,cs),
(205.359,708.952,o),
(208,753.435,o),
(208,756,c),
(208,756,l),
(208,756,l)
);
}
);
userData = {
assembly = "PUSHW[ ]	/* 4 values pushed */
0 3 26 4
CALL[ ]	/* CallFunction */
PUSHW[ ]	/* 1 value pushed */
26
SRP0[ ]	/* SetRefPoint0 */
PUSHW[ ]	/* 1 value pushed */
9
MDRP[10000]	/* MoveDirectRelPt */
PUSHW[ ]	/* 1 value pushed */
9
MDAP[1]	/* MoveDirectAbsPt */
SVTCA[0]	/* SetFreedomAndProjectionVectorToAxis */
PUSHW[ ]	/* 4 values pushed */
19 1 9 4
CALL[ ]	/* CallFunction */
PUSHW[ ]	/* 4 values pushed */
0 1 26 4
CALL[ ]	/* CallFunction */
PUSHW[ ]	/* 1 value pushed */
19
SRP0[ ]	/* SetRefPoint0 */
PUSHW[ ]	/* 1 value pushed */
16
MDRP[10000]	/* MoveDirectRelPt */
PUSHW[ ]	/* 1 value pushed */
16
MDAP[1]	/* MoveDirectAbsPt */
PUSHW[ ]	/* 1 value pushed */
26
SRP0[ ]	/* SetRefPoint0 */
PUSHW[ ]	/* 1 value pushed */
31
MDRP[10000]	/* MoveDirectRelPt */
PUSHW[ ]	/* 1 value pushed */
31
MDAP[1]	/* MoveDirectAbsPt */
PUSHW[ ]	/* 1 value pushed */
0
SRP0[ ]	/* SetRefPoint0 */
PUSHW[ ]	/* 1 value pushed */
36
MDRP[10000]	/* MoveDirectRelPt */
IUP[0]	/* InterpolateUntPts */
IUP[1]	/* InterpolateUntPts */";
};
width = 311;
}
);
note = bracketright;
unicode = 93;
},
{
glyphname = asciicircum;
lastChange = "2025-05-29 09:07:02 +0000";
layers = (
{
layerId = m01;
shapes = (
{
closed = 1;
nodes = (
(469,421.667,o),
(463.333,438,o),
(458,446,cs),
(433.837,483.343,o),
(393.022,548.046,o),
(323,645,cs),
(317.667,651.667,o),
(312,652,o),
(308,652,cs),
(304,652,o),
(299.667,651.667,o),
(293,645,cs),
(286.835,639.863,o),
(242.779,598.779,o),
(187,543,cs),
(125.343,481.343,o),
(94.346,449.519,o),
(86,437,cs),
(82,429.667,o),
(80,423,o),
(80,417,cs),
(80,398.333,o),
(95,384,o),
(99,380,c),
(114.149,402.724,o),
(235.801,522.615,o),
(305,579,c),
(346.738,526.828,o),
(431.946,404.872,o),
(443,380,c),
(450.318,387.318,o),
(469,399,o),
(469,411,cs)
);
}
);
userData = {
assembly = "SVTCA[0]	/* SetFreedomAndProjectionVectorToAxis */
PUSHW[ ]	/* 1 value pushed */
27
MDAP[1]	/* MoveDirectAbsPt */
PUSHW[ ]	/* 1 value pushed */
30
MDAP[1]	/* MoveDirectAbsPt */
PUSHW[ ]	/* 1 value pushed */
33
MDAP[1]	/* MoveDirectAbsPt */
PUSHW[ ]	/* 1 value pushed */
5
MDAP[1]	/* MoveDirectAbsPt */
PUSHW[ ]	/* 1 value pushed */
15
MDAP[1]	/* MoveDirectAbsPt */
IUP[0]	/* InterpolateUntPts */
IUP[1]	/* InterpolateUntPts */";
};
width = 550;
}
);
note = asciicircum;
unicode = 94;
},
{
glyphname = underscore;
lastChange = "2025-05-29 09:07:02 +0000";
layers = (
{
layerId = m01;
shapes = (
{
closed = 1;
nodes = (
(504,-315,l),
(-4,-315,l),
(-4,-360,l),
(504,-360,l),
(504,-360,l)
);
}
);
userData = {
assembly = "SVTCA[0]	/* SetFreedomAndProjectionVectorToAxis */
PUSHW[ ]	/* 4 values pushed */
1 1 0 4
CALL[ ]	/* CallFunction */
IUP[0]	/* InterpolateUntPts */
IUP[1]	/* InterpolateUntPts */";
};
width = 500;
}
);
note = underscore;
unicode = 95;
},
{
glyphname = grave;
lastChange = "2025-05-29 09:07:02 +0000";
layers = (
{
layerId = m01;
shapes = (
{
closed = 1;
nodes = (
(149,640.333,o),
(143,653.333,o),
(139,660,cs),
(108.432,709.673,o),
(77.923,752.378,o),
(43,800,cs),
(39,805.333,o),
(36.667,806,o),
(26,806,cs),
(19.333,806,o),
(0,790,o),
(0,778,cs),
(0,772.667,o),
(7.667,764.333,o),
(13,759,cs),
(93.03,670.078,o),
(120.854,607,o),
(127,607,c),
(129.667,608.333,o),
(149,620.333,o),
(149,631,cs)
);
}
);
userData = {
assembly = "SVTCA[0]	/* SetFreedomAndProjectionVectorToAxis */
PUSHW[ ]	/* 1 value pushed */
14
MDAP[1]	/* MoveDirectAbsPt */
PUSHW[ ]	/* 1 value pushed */
17
MDAP[1]	/* MoveDirectAbsPt */
PUSHW[ ]	/* 1 value pushed */
3
MDAP[1]	/* MoveDirectAbsPt */
IUP[0]	/* InterpolateUntPts */
IUP[1]	/* InterpolateUntPts */";
};
width = 149;
}
);
note = grave;
unicode = 96;
},
{
glyphname = a;
lastChange = "2025-05-29 09:07:02 +0000";
layers = (
{
layerId = m01;
shapes = (
{
closed = 1;
nodes = (
(654,154.333,o),
(644,170,o),
(640,170,cs),
(638.667,170,o),
(637.5,169.333,o),
(636.5,168,cs),
(635.5,166.667,o),
(634.333,165.333,o),
(633,164,cs),
(598.912,117.13,o),
(525.105,41,o),
(511,41,cs),
(505,41,o),
(500.833,43.833,o),
(498.5,49.5,cs),
(496.167,55.167,o),
(495,68.333,o),
(495,89,cs),
(495,254.277,o),
(511,431.289,o),
(511,460,c),
(513.667,460,o),
(516.333,462.667,o),
(519,468,cs),
(521.667,473.333,o),
(523,480.667,o),
(523,490,cs),
(523,494,o),
(521.667,496,o),
(519,496,c),
(429.934,514.428,o),
(340.254,524,o),
(320,524,cs),
(252,524,o),
(191.333,485,o),
(142,417,cs),
(91.106,347.356,o),
(88,141.657,o),
(88,63,cs),
(88,39.667,o),
(89.333,25.333,o),
(92,20,cs),
(97.679,8.643,o),
(131.66,-13,o),
(142,-13,cs),
(172.759,-13,o),
(226.799,36.418,o),
(293,116.5,cs),
(352.325,188.264,o),
(412.569,278.138,o),
(451,355,c),
(447.931,301.297,o),
(438,163.706,o),
(438,63,cs),
(438,51.667,o),
(438.167,42.5,o),
(438.5,35.5,cs),
(438.833,28.5,o),
(439.667,23.333,o),
(441,20,cs),
(446.679,8.643,o),
(480.66,-13,o),
(491,-13,cs),
(532.127,-13,o),
(618.832,88.109,o),
(651,131,cs),
(653,133,o),
(654,136.333,o),
(654,141,cs)
);
},
{
closed = 1;
nodes = (
(439.067,393.395,o),
(381.973,296.427,o),
(307.5,197.5,cs),
(236.134,102.701,o),
(176.816,41,o),
(161,41,cs),
(155,41,o),
(150.833,43.833,o),
(148.5,49.5,cs),
(146.167,55.167,o),
(145,68.333,o),
(145,89,cs),
(145,340.671,o),
(198.735,481,o),
(282,481,cs),
(320.667,481,o),
(376,476,o),
(460,460,c)
);
}
);
userData = {
assembly = "PUSHW[ ]	/* 1 value pushed */
89
MDAP[1]	/* MoveDirectAbsPt */
PUSHW[ ]	/* 1 value pushed */
20
MDAP[1]	/* MoveDirectAbsPt */
NPUSHW[ ]	/* 5 values pushed */
74 20 90 20 2
DELTAP2[ ]	/* DeltaExceptionP2 */
NPUSHW[ ]	/* 33 values pushed */
9 20 25 20 41 20 57 20 73 20 89 20 105 20 121 20 137 20 153 20 169 20 185 20 201 20 217 20 233 20 249 20 16
DELTAP1[ ]	/* DeltaExceptionP1 */
NPUSHW[ ]	/* 9 values pushed */
9 20 25 20 41 20 57 20 4
DELTAP2[ ]	/* DeltaExceptionP2 */
PUSHW[ ]	/* 1 value pushed */
89
SRP0[ ]	/* SetRefPoint0 */
PUSHW[ ]	/* 1 value pushed */
34
MDRP[10000]	/* MoveDirectRelPt */
PUSHW[ ]	/* 1 value pushed */
34
MDAP[1]	/* MoveDirectAbsPt */
PUSHW[ ]	/* 2 values pushed */
79 3
MIRP[10100]	/* MoveIndirectRelPt */
NPUSHW[ ]	/* 33 values pushed */
6 79 22 79 38 79 54 79 70 79 86 79 102 79 118 79 134 79 150 79 166 79 182 79 198 79 214 79 230 79 246 79 16
DELTAP1[ ]	/* DeltaExceptionP1 */
NPUSHW[ ]	/* 9 values pushed */
6 79 22 79 38 79 54 79 4
DELTAP2[ ]	/* DeltaExceptionP2 */
NPUSHW[ ]	/* 5 values pushed */
69 79 85 79 2
DELTAP2[ ]	/* DeltaExceptionP2 */
PUSHW[ ]	/* 1 value pushed */
27
MDRP[10000]	/* MoveDirectRelPt */
PUSHW[ ]	/* 1 value pushed */
27
MDAP[1]	/* MoveDirectAbsPt */
PUSHW[ ]	/* 1 value pushed */
34
SRP0[ ]	/* SetRefPoint0 */
PUSHW[ ]	/* 1 value pushed */
32
MDRP[10000]	/* MoveDirectRelPt */
PUSHW[ ]	/* 1 value pushed */
32
MDAP[1]	/* MoveDirectAbsPt */
PUSHW[ ]	/* 1 value pushed */
79
SRP0[ ]	/* SetRefPoint0 */
PUSHW[ ]	/* 1 value pushed */
39
MDRP[10000]	/* MoveDirectRelPt */
PUSHW[ ]	/* 1 value pushed */
39
MDAP[1]	/* MoveDirectAbsPt */
PUSHW[ ]	/* 1 value pushed */
20
SRP0[ ]	/* SetRefPoint0 */
PUSHW[ ]	/* 2 values pushed */
52 3
MIRP[10100]	/* MoveIndirectRelPt */
PUSHW[ ]	/* 1 value pushed */
60
MDRP[10000]	/* MoveDirectRelPt */
PUSHW[ ]	/* 1 value pushed */
52
SRP0[ ]	/* SetRefPoint0 */
PUSHW[ ]	/* 1 value pushed */
90
MDRP[11100]	/* MoveDirectRelPt */
SVTCA[0]	/* SetFreedomAndProjectionVectorToAxis */
PUSHW[ ]	/* 1 value pushed */
0
RCVT[ ]	/* ReadCVT */
IF[ ]	/* If */
PUSHW[ ]	/* 1 value pushed */
7
MDAP[1]	/* MoveDirectAbsPt */
ELSE[ ]	/* Else */
PUSHW[ ]	/* 2 values pushed */
7 5
MIAP[0]	/* MoveIndirectAbsPt */
EIF[ ]	/* EndIf */
PUSHW[ ]	/* 1 value pushed */
0
RCVT[ ]	/* ReadCVT */
IF[ ]	/* If */
PUSHW[ ]	/* 1 value pushed */
27
MDAP[1]	/* MoveDirectAbsPt */
ELSE[ ]	/* Else */
PUSHW[ ]	/* 2 values pushed */
27 5
MIAP[0]	/* MoveIndirectAbsPt */
EIF[ ]	/* EndIf */
PUSHW[ ]	/* 4 values pushed */
42 1 74 4
CALL[ ]	/* CallFunction */
PUSHW[ ]	/* 1 value pushed */
7
SRP0[ ]	/* SetRefPoint0 */
PUSHW[ ]	/* 2 values pushed */
60 1
MIRP[10100]	/* MoveIndirectRelPt */
NPUSHW[ ]	/* 33 values pushed */
7 60 23 60 39 60 55 60 71 60 87 60 103 60 119 60 135 60 151 60 167 60 183 60 199 60 215 60 231 60 247 60 16
DELTAP1[ ]	/* DeltaExceptionP1 */
NPUSHW[ ]	/* 9 values pushed */
7 60 23 60 39 60 55 60 4
DELTAP2[ ]	/* DeltaExceptionP2 */
NPUSHW[ ]	/* 5 values pushed */
70 60 86 60 2
DELTAP2[ ]	/* DeltaExceptionP2 */
PUSHW[ ]	/* 1 value pushed */
82
MDRP[10000]	/* MoveDirectRelPt */
IUP[0]	/* InterpolateUntPts */
IUP[1]	/* InterpolateUntPts */";
};
width = 645;
}
);
note = a;
unicode = 97;
},
{
glyphname = b;
lastChange = "2025-05-29 09:07:02 +0000";
layers = (
{
layerId = m01;
shapes = (
{
closed = 1;
nodes = (
(519,385.667,o),
(518.333,423.833,o),
(517,447.5,cs),
(515.667,471.167,o),
(513.333,485.667,o),
(510,491,cs),
(502.323,501.236,o),
(472.416,524,o),
(458,524,cs),
(425.713,524,o),
(369.613,470.083,o),
(314.5,399.5,cs),
(252.806,320.489,o),
(199.066,233.648,o),
(169,166,c),
(172.933,223.028,o),
(181.051,332.041,o),
(191.5,476,cs),
(202.364,625.679,o),
(208,712.404,o),
(208,729,cs),
(208,747.667,o),
(180.333,756,o),
(159,756,cs),
(151,756,o),
(150,753.333,o),
(150,748,cs),
(147.62,655.191,o),
(141.597,564.543,o),
(132,399,cs),
(123.618,254.419,o),
(115.603,122.97,o),
(110,52,c),
(107.333,52,o),
(104.667,49.167,o),
(102,43.5,cs),
(99.333,37.833,o),
(98,30.333,o),
(98,21,cs),
(98,17,o),
(99.333,15,o),
(102,15,c),
(171.116,0.189,o),
(276.128,-13,o),
(307,-13,cs),
(375,-13,o),
(433.333,27.333,o),
(480,94,cs),
(512.412,139.917,o),
(519,258.63,o),
(519,333,cs)
);
},
{
closed = 1;
nodes = (
(463,241,o),
(452.333,164.167,o),
(431,110.5,cs),
(409.667,56.833,o),
(380.333,30,o),
(343,30,cs),
(304.333,30,o),
(248,34.667,o),
(164,52,c),
(181.138,118.646,o),
(234.529,216.065,o),
(303.5,313.5,cs),
(370.797,408.57,o),
(425.833,470,o),
(442,470,cs),
(452,470,o),
(458,460.667,o),
(460,442,cs),
(462,423.333,o),
(463,389.667,o),
(463,341,cs)
);
}
);
userData = {
assembly = "SVTCA[0]	/* SetFreedomAndProjectionVectorToAxis */
PUSHW[ ]	/* 1 value pushed */
0
RCVT[ ]	/* ReadCVT */
IF[ ]	/* If */
PUSHW[ ]	/* 1 value pushed */
8
MDAP[1]	/* MoveDirectAbsPt */
ELSE[ ]	/* Else */
PUSHW[ ]	/* 2 values pushed */
8 5
MIAP[0]	/* MoveIndirectAbsPt */
EIF[ ]	/* EndIf */
IUP[0]	/* InterpolateUntPts */
IUP[1]	/* InterpolateUntPts */";
};
width = 602;
}
);
note = b;
unicode = 98;
},
{
glyphname = c;
lastChange = "2025-05-29 09:07:02 +0000";
layers = (
{
layerId = m01;
shapes = (
{
closed = 1;
nodes = (
(402,472,o),
(397.333,480.333,o),
(388,489,cs),
(360,514.333,o),
(331.333,524,o),
(270,524,cs),
(224.667,524,o),
(173.167,505.833,o),
(132.5,458.5,cs),
(91.833,411.167,o),
(63,335.333,o),
(63,222,cs),
(63,57.718,o),
(135.67,-13,o),
(237,-13,cs),
(311.667,-13,o),
(368.333,15.333,o),
(411,62,cs),
(417.667,68.667,o),
(418,70.333,o),
(418,77,cs),
(418,89,o),
(412.667,103,o),
(406,103,cs),
(404,103,o),
(402,102,o),
(400,100,cs),
(398,98,o),
(393.667,94,o),
(387,88,cs),
(365.939,69.571,o),
(319.99,30,o),
(258,30,cs),
(169.189,30,o),
(125,109.047,o),
(125,227,cs),
(125,385.665,o),
(188.174,489,o),
(258,489,cs),
(300.667,489,o),
(330.667,478.667,o),
(364,440,cs),
(373.333,429.333,o),
(377,426,o),
(385,426,cs),
(394.333,426,o),
(402,448,o),
(402,464,cs)
);
}
);
userData = {
assembly = "PUSHW[ ]	/* 4 values pushed */
14 3 41 4
CALL[ ]	/* CallFunction */
NPUSHW[ ]	/* 33 values pushed */
6 14 22 14 38 14 54 14 70 14 86 14 102 14 118 14 134 14 150 14 166 14 182 14 198 14 214 14 230 14 246 14 16
DELTAP1[ ]	/* DeltaExceptionP1 */
NPUSHW[ ]	/* 9 values pushed */
6 14 22 14 38 14 54 14 4
DELTAP2[ ]	/* DeltaExceptionP2 */
NPUSHW[ ]	/* 5 values pushed */
69 14 85 14 2
DELTAP2[ ]	/* DeltaExceptionP2 */
SVTCA[0]	/* SetFreedomAndProjectionVectorToAxis */
PUSHW[ ]	/* 1 value pushed */
0
RCVT[ ]	/* ReadCVT */
IF[ ]	/* If */
PUSHW[ ]	/* 1 value pushed */
36
MDAP[1]	/* MoveDirectAbsPt */
ELSE[ ]	/* Else */
PUSHW[ ]	/* 2 values pushed */
36 5
MIAP[0]	/* MoveIndirectAbsPt */
EIF[ ]	/* EndIf */
PUSHW[ ]	/* 4 values pushed */
46 2 9 4
CALL[ ]	/* CallFunction */
PUSHW[ ]	/* 1 value pushed */
36
SRP0[ ]	/* SetRefPoint0 */
PUSHW[ ]	/* 2 values pushed */
19 1
MIRP[10100]	/* MoveIndirectRelPt */
NPUSHW[ ]	/* 33 values pushed */
7 19 23 19 39 19 55 19 71 19 87 19 103 19 119 19 135 19 151 19 167 19 183 19 199 19 215 19 231 19 247 19 16
DELTAP1[ ]	/* DeltaExceptionP1 */
NPUSHW[ ]	/* 9 values pushed */
7 19 23 19 39 19 55 19 4
DELTAP2[ ]	/* DeltaExceptionP2 */
NPUSHW[ ]	/* 5 values pushed */
70 19 86 19 2
DELTAP2[ ]	/* DeltaExceptionP2 */
IUP[0]	/* InterpolateUntPts */
IUP[1]	/* InterpolateUntPts */";
};
width = 409;
}
);
note = c;
unicode = 99;
},
{
glyphname = d;
lastChange = "2025-05-29 09:07:02 +0000";
layers = (
{
layerId = m01;
shapes = (
{
closed = 1;
nodes = (
(654,154.333,o),
(643.667,170,o),
(641,170,cs),
(639,170,o),
(637.5,169.333,o),
(636.5,168,cs),
(635.5,166.667,o),
(634.333,165.333,o),
(633,164,cs),
(579.038,89.802,o),
(517.589,42,o),
(511,42,cs),
(505,42,o),
(500.833,44.667,o),
(498.5,50,cs),
(496.167,55.333,o),
(495,68.333,o),
(495,89,cs),
(495,254.277,o),
(511,431.289,o),
(511,460,c),
(513.667,460,o),
(516.333,462.667,o),
(519,468,cs),
(521.667,473.333,o),
(523,480.667,o),
(523,490,cs),
(523,494.667,o),
(521.667,497,o),
(519,497,cs),
(515,497,l),
(519.667,565,o),
(523.333,618.167,o),
(526,656.5,cs),
(528.667,694.833,o),
(530,719,o),
(530,729,cs),
(530,747.667,o),
(503.667,756,o),
(481,756,cs),
(475,756,o),
(472,753.333,o),
(472,748,cs),
(472,684.323,o),
(467.869,576.471,o),
(462,508,c),
(383.996,521,o),
(326.736,524,o),
(320,524,cs),
(252,524,o),
(191.333,485,o),
(142,417,cs),
(91.106,347.356,o),
(88,141.657,o),
(88,63,cs),
(88,39.667,o),
(89.333,25.333,o),
(92,20,cs),
(97.679,8.643,o),
(131.66,-13,o),
(142,-13,cs),
(172.759,-13,o),
(226.799,36.418,o),
(293,116.5,cs),
(352.325,188.264,o),
(412.569,278.138,o),
(451,355,c),
(447.931,301.297,o),
(438,163.706,o),
(438,63,cs),
(438,51.667,o),
(438.167,42.5,o),
(438.5,35.5,cs),
(438.833,28.5,o),
(439.667,23.333,o),
(441,20,cs),
(446.679,8.643,o),
(480.66,-13,o),
(491,-13,cs),
(532.127,-13,o),
(618.832,88.109,o),
(651,131,cs),
(653,133,o),
(654,136.333,o),
(654,141,cs)
);
},
{
closed = 1;
nodes = (
(437.459,388.28,o),
(380.304,295.21,o),
(307.5,198.5,cs),
(236.134,103.701,o),
(176.816,42,o),
(161,42,cs),
(155,42,o),
(150.833,44.667,o),
(148.5,50,cs),
(146.167,55.333,o),
(145,68.333,o),
(145,89,cs),
(145,340.671,o),
(198.735,481,o),
(282,481,cs),
(320.667,481,o),
(376,476,o),
(460,460,c)
);
}
);
userData = {
assembly = "PUSHW[ ]	/* 1 value pushed */
103
MDAP[1]	/* MoveDirectAbsPt */
PUSHW[ ]	/* 1 value pushed */
20
MDAP[1]	/* MoveDirectAbsPt */
NPUSHW[ ]	/* 5 values pushed */
74 20 90 20 2
DELTAP2[ ]	/* DeltaExceptionP2 */
NPUSHW[ ]	/* 33 values pushed */
9 20 25 20 41 20 57 20 73 20 89 20 105 20 121 20 137 20 153 20 169 20 185 20 201 20 217 20 233 20 249 20 16
DELTAP1[ ]	/* DeltaExceptionP1 */
NPUSHW[ ]	/* 9 values pushed */
9 20 25 20 41 20 57 20 4
DELTAP2[ ]	/* DeltaExceptionP2 */
PUSHW[ ]	/* 1 value pushed */
103
SRP0[ ]	/* SetRefPoint0 */
PUSHW[ ]	/* 1 value pushed */
34
MDRP[10000]	/* MoveDirectRelPt */
PUSHW[ ]	/* 1 value pushed */
34
MDAP[1]	/* MoveDirectAbsPt */
PUSHW[ ]	/* 2 values pushed */
93 3
MIRP[10100]	/* MoveIndirectRelPt */
NPUSHW[ ]	/* 33 values pushed */
6 93 22 93 38 93 54 93 70 93 86 93 102 93 118 93 134 93 150 93 166 93 182 93 198 93 214 93 230 93 246 93 16
DELTAP1[ ]	/* DeltaExceptionP1 */
NPUSHW[ ]	/* 9 values pushed */
6 93 22 93 38 93 54 93 4
DELTAP2[ ]	/* DeltaExceptionP2 */
NPUSHW[ ]	/* 5 values pushed */
69 93 85 93 2
DELTAP2[ ]	/* DeltaExceptionP2 */
PUSHW[ ]	/* 1 value pushed */
27
MDRP[10000]	/* MoveDirectRelPt */
PUSHW[ ]	/* 1 value pushed */
27
MDAP[1]	/* MoveDirectAbsPt */
PUSHW[ ]	/* 1 value pushed */
34
SRP0[ ]	/* SetRefPoint0 */
PUSHW[ ]	/* 1 value pushed */
32
MDRP[10000]	/* MoveDirectRelPt */
PUSHW[ ]	/* 1 value pushed */
32
MDAP[1]	/* MoveDirectAbsPt */
PUSHW[ ]	/* 1 value pushed */
93
SRP0[ ]	/* SetRefPoint0 */
PUSHW[ ]	/* 1 value pushed */
39
MDRP[10000]	/* MoveDirectRelPt */
PUSHW[ ]	/* 1 value pushed */
39
MDAP[1]	/* MoveDirectAbsPt */
PUSHW[ ]	/* 1 value pushed */
20
SRP0[ ]	/* SetRefPoint0 */
PUSHW[ ]	/* 2 values pushed */
66 3
MIRP[10100]	/* MoveIndirectRelPt */
PUSHW[ ]	/* 1 value pushed */
60
MDRP[10000]	/* MoveDirectRelPt */
PUSHW[ ]	/* 1 value pushed */
60
MDAP[1]	/* MoveDirectAbsPt */
PUSHW[ ]	/* 1 value pushed */
66
SRP0[ ]	/* SetRefPoint0 */
PUSHW[ ]	/* 1 value pushed */
74
MDRP[10000]	/* MoveDirectRelPt */
PUSHW[ ]	/* 1 value pushed */
66
SRP0[ ]	/* SetRefPoint0 */
PUSHW[ ]	/* 1 value pushed */
104
MDRP[11100]	/* MoveDirectRelPt */
SVTCA[0]	/* SetFreedomAndProjectionVectorToAxis */
PUSHW[ ]	/* 1 value pushed */
0
RCVT[ ]	/* ReadCVT */
IF[ ]	/* If */
PUSHW[ ]	/* 1 value pushed */
7
MDAP[1]	/* MoveDirectAbsPt */
ELSE[ ]	/* Else */
PUSHW[ ]	/* 2 values pushed */
7 5
MIAP[0]	/* MoveIndirectAbsPt */
EIF[ ]	/* EndIf */
PUSHW[ ]	/* 1 value pushed */
0
RCVT[ ]	/* ReadCVT */
IF[ ]	/* If */
PUSHW[ ]	/* 1 value pushed */
27
MDAP[1]	/* MoveDirectAbsPt */
ELSE[ ]	/* Else */
PUSHW[ ]	/* 2 values pushed */
27 5
MIAP[0]	/* MoveIndirectAbsPt */
EIF[ ]	/* EndIf */
PUSHW[ ]	/* 4 values pushed */
42 1 88 4
CALL[ ]	/* CallFunction */
PUSHW[ ]	/* 1 value pushed */
7
SRP0[ ]	/* SetRefPoint0 */
PUSHW[ ]	/* 2 values pushed */
74 1
MIRP[10100]	/* MoveIndirectRelPt */
NPUSHW[ ]	/* 33 values pushed */
7 74 23 74 39 74 55 74 71 74 87 74 103 74 119 74 135 74 151 74 167 74 183 74 199 74 215 74 231 74 247 74 16
DELTAP1[ ]	/* DeltaExceptionP1 */
NPUSHW[ ]	/* 9 values pushed */
7 74 23 74 39 74 55 74 4
DELTAP2[ ]	/* DeltaExceptionP2 */
NPUSHW[ ]	/* 5 values pushed */
70 74 86 74 2
DELTAP2[ ]	/* DeltaExceptionP2 */
PUSHW[ ]	/* 1 value pushed */
96
MDRP[10000]	/* MoveDirectRelPt */
IUP[0]	/* InterpolateUntPts */
IUP[1]	/* InterpolateUntPts */";
};
width = 645;
}
);
note = d;
unicode = 100;
},
{
glyphname = e;
lastChange = "2025-05-29 09:07:02 +0000";
layers = (
{
layerId = m01;
shapes = (
{
closed = 1;
nodes = (
(416,473.668,o),
(375.68,524,o),
(280,524,cs),
(224,524,o),
(170.167,505.833,o),
(129.5,458.5,cs),
(88.833,411.167,o),
(63,335.333,o),
(63,222,cs),
(63,57.718,o),
(135.67,-13,o),
(237,-13,cs),
(311.667,-13,o),
(368.333,15.333,o),
(411,62,cs),
(417.667,68.667,o),
(418,70.333,o),
(418,77,cs),
(418,89,o),
(412.667,103,o),
(406,103,cs),
(404,103,o),
(402,102,o),
(400,100,cs),
(398,98,o),
(393.667,94,o),
(387,88,cs),
(362.355,66.436,o),
(311.415,30,o),
(253,30,cs),
(164.199,30,o),
(123,109.03,o),
(123,227,cs),
(123,236.333,o),
(123,247,o),
(123,259,cs),
(123,271,o),
(123.667,278.667,o),
(125,282,c),
(151.667,275.333,o),
(190.333,271,o),
(233,271,cs),
(316.615,271,o),
(416,312.484,o),
(416,413,cs)
);
},
{
closed = 1;
nodes = (
(351,348,o),
(308.333,310,o),
(231,310,cs),
(207.667,310,o),
(186.667,312.833,o),
(168,318.5,cs),
(149.333,324.167,o),
(138.667,329,o),
(136,333,c),
(154.667,441,o),
(207,492,o),
(267,492,cs),
(327,492,o),
(351,456,o),
(351,416,cs)
);
}
);
userData = {
assembly = "SVTCA[0]	/* SetFreedomAndProjectionVectorToAxis */
PUSHW[ ]	/* 1 value pushed */
0
RCVT[ ]	/* ReadCVT */
IF[ ]	/* If */
PUSHW[ ]	/* 1 value pushed */
33
MDAP[1]	/* MoveDirectAbsPt */
ELSE[ ]	/* Else */
PUSHW[ ]	/* 2 values pushed */
33 5
MIAP[0]	/* MoveIndirectAbsPt */
EIF[ ]	/* EndIf */
IUP[0]	/* InterpolateUntPts */
IUP[1]	/* InterpolateUntPts */";
};
width = 462;
}
);
note = e;
unicode = 101;
},
{
glyphname = f;
lastChange = "2025-05-29 09:07:02 +0000";
layers = (
{
layerId = m01;
shapes = (
{
closed = 1;
nodes = (
(438,709,o),
(436,713.667,o),
(432,717,cs),
(406.667,734.333,o),
(356.667,756,o),
(314,756,cs),
(272.667,756,o),
(234.667,736.333,o),
(200,703,cs),
(156,661.667,o),
(135,606.667,o),
(135,504,cs),
(135,499,l),
(61,499,ls),
(45,499,o),
(39,478.333,o),
(39,461,cs),
(39,455.667,o),
(41.333,453,o),
(46,453,cs),
(140,453,l),
(140,40,ls),
(140,-64,o),
(131.833,-123,o),
(112.5,-155,cs),
(93.167,-187,o),
(64,-193,o),
(24,-193,cs),
(-43.638,-193,o),
(-125.463,-164.724,o),
(-168,-147,cs),
(-171.333,-145.667,o),
(-174.333,-144.333,o),
(-177,-143,cs),
(-179.667,-141.667,o),
(-181.667,-141,o),
(-183,-141,cs),
(-184.333,-141,o),
(-185.833,-142.5,o),
(-187.5,-145.5,cs),
(-189.167,-148.5,o),
(-190,-154.667,o),
(-190,-164,cs),
(-190,-174.667,o),
(-186.667,-185,o),
(-180,-189,cs),
(-158.332,-205.251,o),
(-48.451,-244,o),
(21,-244,cs),
(54.333,-244,o),
(96.667,-224.667,o),
(134,-190,cs),
(171.333,-155.333,o),
(199,-100,o),
(199,-28,cs),
(199,453,l),
(398,453,ls),
(414,453,o),
(421,473.667,o),
(421,491,cs),
(421,496.333,o),
(418.333,499,o),
(413,499,cs),
(199,499,l),
(202,571,ls),
(206,668.333,o),
(239.333,704,o),
(290,704,cs),
(321.333,704,o),
(347.833,701.167,o),
(369.5,695.5,cs),
(391.167,689.833,o),
(403.667,686.333,o),
(407,685,cs),
(409.667,683.667,o),
(422.667,678,o),
(428,678,cs),
(434.667,678,o),
(438,691,o),
(438,703,cs)
);
}
);
userData = {
assembly = "PUSHW[ ]	/* 4 values pushed */
63 3 52 4
CALL[ ]	/* CallFunction */
PUSHW[ ]	/* 1 value pushed */
63
SRP0[ ]	/* SetRefPoint0 */
PUSHW[ ]	/* 1 value pushed */
12
MDRP[10000]	/* MoveDirectRelPt */
PUSHW[ ]	/* 1 value pushed */
12
MDAP[1]	/* MoveDirectAbsPt */
PUSHW[ ]	/* 1 value pushed */
63
SRP0[ ]	/* SetRefPoint0 */
PUSHW[ ]	/* 1 value pushed */
20
MDRP[10000]	/* MoveDirectRelPt */
PUSHW[ ]	/* 1 value pushed */
20
MDAP[1]	/* MoveDirectAbsPt */
PUSHW[ ]	/* 1 value pushed */
52
SRP0[ ]	/* SetRefPoint0 */
PUSHW[ ]	/* 1 value pushed */
59
MDRP[10000]	/* MoveDirectRelPt */
PUSHW[ ]	/* 1 value pushed */
59
MDAP[1]	/* MoveDirectAbsPt */
SVTCA[0]	/* SetFreedomAndProjectionVectorToAxis */
PUSHW[ ]	/* 4 values pushed */
46 1 27 4
CALL[ ]	/* CallFunction */
PUSHW[ ]	/* 4 values pushed */
66 1 9 4
CALL[ ]	/* CallFunction */
PUSHW[ ]	/* 4 values pushed */
14 1 19 4
CALL[ ]	/* CallFunction */
PUSHW[ ]	/* 1 value pushed */
19
SRP0[ ]	/* SetRefPoint0 */
PUSHW[ ]	/* 1 value pushed */
52
MDRP[10000]	/* MoveDirectRelPt */
PUSHW[ ]	/* 1 value pushed */
14
SRP0[ ]	/* SetRefPoint0 */
PUSHW[ ]	/* 1 value pushed */
58
MDRP[10000]	/* MoveDirectRelPt */
IUP[0]	/* InterpolateUntPts */
IUP[1]	/* InterpolateUntPts */";
};
width = 305;
}
);
note = f;
unicode = 102;
},
{
glyphname = g;
lastChange = "2025-05-29 09:07:02 +0000";
layers = (
{
layerId = m01;
shapes = (
{
closed = 1;
nodes = (
(523,494,o),
(521.667,496,o),
(519,496,c),
(429.934,514.428,o),
(340.254,524,o),
(320,524,cs),
(252,524,o),
(191.333,485,o),
(142,417,cs),
(91.106,347.356,o),
(88,141.657,o),
(88,63,cs),
(88,39.667,o),
(89.333,25.333,o),
(92,20,cs),
(97.679,8.643,o),
(131.66,-13,o),
(142,-13,cs),
(172.759,-13,o),
(226.799,36.418,o),
(293,116.5,cs),
(352.325,188.264,o),
(412.569,278.138,o),
(451,355,c),
(442.059,256.65,o),
(442,112.519,o),
(442,45,cs),
(442,-59,o),
(433.667,-118.667,o),
(415,-152,cs),
(396.333,-185.333,o),
(367,-193,o),
(327,-193,cs),
(205.758,-193,o),
(92.198,-128,o),
(85,-128,cs),
(79.667,-128,o),
(77,-135,o),
(77,-149,cs),
(77,-159.667,o),
(80.333,-171.333,o),
(87,-174,c),
(131.828,-199.216,o),
(231.402,-244,o),
(319,-244,cs),
(351,-244,o),
(397,-227.667,o),
(433,-193,cs),
(470.333,-157,o),
(497,-104,o),
(497,-28,cs),
(497,312.495,o),
(496.673,394.098,o),
(511,460,c),
(513.667,460,o),
(516.333,462.667,o),
(519,468,cs),
(521.667,473.333,o),
(523,480.667,o),
(523,490,cs)
);
},
{
closed = 1;
nodes = (
(437.459,388.28,o),
(380.304,295.21,o),
(307.5,198.5,cs),
(236.134,103.701,o),
(176.816,42,o),
(161,42,cs),
(155,42,o),
(150.833,44.667,o),
(148.5,50,cs),
(146.167,55.333,o),
(145,68.333,o),
(145,89,cs),
(145,340.671,o),
(198.735,481,o),
(282,481,cs),
(320.667,481,o),
(376,476,o),
(460,460,c)
);
}
);
userData = {
assembly = "PUSHW[ ]	/* 1 value pushed */
86
MDAP[1]	/* MoveDirectAbsPt */
PUSHW[ ]	/* 1 value pushed */
34
MDAP[1]	/* MoveDirectAbsPt */
NPUSHW[ ]	/* 5 values pushed */
74 34 90 34 2
DELTAP2[ ]	/* DeltaExceptionP2 */
NPUSHW[ ]	/* 33 values pushed */
9 34 25 34 41 34 57 34 73 34 89 34 105 34 121 34 137 34 153 34 169 34 185 34 201 34 217 34 233 34 249 34 16
DELTAP1[ ]	/* DeltaExceptionP1 */
NPUSHW[ ]	/* 9 values pushed */
9 34 25 34 41 34 57 34 4
DELTAP2[ ]	/* DeltaExceptionP2 */
PUSHW[ ]	/* 2 values pushed */
8 3
MIRP[10100]	/* MoveIndirectRelPt */
PUSHW[ ]	/* 1 value pushed */
86
SRP0[ ]	/* SetRefPoint0 */
PUSHW[ ]	/* 1 value pushed */
53
MDRP[10000]	/* MoveDirectRelPt */
PUSHW[ ]	/* 1 value pushed */
53
MDAP[1]	/* MoveDirectAbsPt */
PUSHW[ ]	/* 1 value pushed */
19
MDRP[10000]	/* MoveDirectRelPt */
PUSHW[ ]	/* 1 value pushed */
19
MDAP[1]	/* MoveDirectAbsPt */
PUSHW[ ]	/* 1 value pushed */
53
SRP0[ ]	/* SetRefPoint0 */
PUSHW[ ]	/* 1 value pushed */
24
MDRP[10000]	/* MoveDirectRelPt */
PUSHW[ ]	/* 1 value pushed */
24
MDAP[1]	/* MoveDirectAbsPt */
PUSHW[ ]	/* 3 values pushed */
39 34 8
SRP1[ ]	/* SetRefPoint1 */
SRP2[ ]	/* SetRefPoint2 */
IP[ ]	/* InterpolatePts */
PUSHW[ ]	/* 1 value pushed */
53
SRP0[ ]	/* SetRefPoint0 */
PUSHW[ ]	/* 2 values pushed */
76 3
MIRP[10100]	/* MoveIndirectRelPt */
NPUSHW[ ]	/* 33 values pushed */
6 76 22 76 38 76 54 76 70 76 86 76 102 76 118 76 134 76 150 76 166 76 182 76 198 76 214 76 230 76 246 76 16
DELTAP1[ ]	/* DeltaExceptionP1 */
NPUSHW[ ]	/* 9 values pushed */
6 76 22 76 38 76 54 76 4
DELTAP2[ ]	/* DeltaExceptionP2 */
NPUSHW[ ]	/* 5 values pushed */
69 76 85 76 2
DELTAP2[ ]	/* DeltaExceptionP2 */
PUSHW[ ]	/* 1 value pushed */
46
MDRP[10000]	/* MoveDirectRelPt */
PUSHW[ ]	/* 1 value pushed */
46
MDAP[1]	/* MoveDirectAbsPt */
PUSHW[ ]	/* 1 value pushed */
53
SRP0[ ]	/* SetRefPoint0 */
PUSHW[ ]	/* 1 value pushed */
51
MDRP[10000]	/* MoveDirectRelPt */
PUSHW[ ]	/* 1 value pushed */
51
MDAP[1]	/* MoveDirectAbsPt */
PUSHW[ ]	/* 1 value pushed */
76
SRP0[ ]	/* SetRefPoint0 */
PUSHW[ ]	/* 1 value pushed */
58
MDRP[10000]	/* MoveDirectRelPt */
PUSHW[ ]	/* 1 value pushed */
58
MDAP[1]	/* MoveDirectAbsPt */
PUSHW[ ]	/* 1 value pushed */
8
SRP0[ ]	/* SetRefPoint0 */
PUSHW[ ]	/* 1 value pushed */
87
MDRP[11100]	/* MoveDirectRelPt */
SVTCA[0]	/* SetFreedomAndProjectionVectorToAxis */
PUSHW[ ]	/* 1 value pushed */
0
RCVT[ ]	/* ReadCVT */
IF[ ]	/* If */
PUSHW[ ]	/* 1 value pushed */
24
MDAP[1]	/* MoveDirectAbsPt */
ELSE[ ]	/* Else */
PUSHW[ ]	/* 2 values pushed */
24 5
MIAP[0]	/* MoveIndirectAbsPt */
EIF[ ]	/* EndIf */
PUSHW[ ]	/* 1 value pushed */
0
RCVT[ ]	/* ReadCVT */
IF[ ]	/* If */
PUSHW[ ]	/* 1 value pushed */
46
MDAP[1]	/* MoveDirectAbsPt */
ELSE[ ]	/* Else */
PUSHW[ ]	/* 2 values pushed */
46 5
MIAP[0]	/* MoveIndirectAbsPt */
EIF[ ]	/* EndIf */
PUSHW[ ]	/* 4 values pushed */
29 1 14 4
CALL[ ]	/* CallFunction */
PUSHW[ ]	/* 4 values pushed */
61 1 71 4
CALL[ ]	/* CallFunction */
PUSHW[ ]	/* 1 value pushed */
46
SRP0[ ]	/* SetRefPoint0 */
PUSHW[ ]	/* 2 values pushed */
79 1
MIRP[10100]	/* MoveIndirectRelPt */
NPUSHW[ ]	/* 33 values pushed */
7 79 23 79 39 79 55 79 71 79 87 79 103 79 119 79 135 79 151 79 167 79 183 79 199 79 215 79 231 79 247 79 16
DELTAP1[ ]	/* DeltaExceptionP1 */
NPUSHW[ ]	/* 9 values pushed */
7 79 23 79 39 79 55 79 4
DELTAP2[ ]	/* DeltaExceptionP2 */
NPUSHW[ ]	/* 5 values pushed */
70 79 86 79 2
DELTAP2[ ]	/* DeltaExceptionP2 */
IUP[0]	/* InterpolateUntPts */
IUP[1]	/* InterpolateUntPts */";
};
width = 605;
}
);
note = g;
unicode = 103;
},
{
glyphname = h;
lastChange = "2025-05-29 09:07:02 +0000";
layers = (
{
layerId = m01;
shapes = (
{
closed = 1;
nodes = (
(660,154.333,o),
(650,170,o),
(646,170,cs),
(644.667,170,o),
(643.5,169.333,o),
(642.5,168,cs),
(641.5,166.667,o),
(640.333,165.333,o),
(639,164,cs),
(606.481,119.287,o),
(531.517,41,o),
(518,41,cs),
(511.333,41,o),
(506.667,43.833,o),
(504,49.5,cs),
(501.333,55.167,o),
(500.333,68.333,o),
(501,89,cs),
(501,162.045,o),
(521.3,369.69,o),
(524,448,cs),
(524.667,469.333,o),
(523.333,483.667,o),
(520,491,cs),
(514.498,502.004,o),
(482.756,524,o),
(471,524,cs),
(442.695,524,o),
(386.201,470.853,o),
(320,386.5,cs),
(254.221,302.685,o),
(195.468,206.922,o),
(168,141,c),
(168,151.201,o),
(178.426,295.842,o),
(188,421.5,cs),
(196.654,535.077,o),
(208,696.762,o),
(208,729,cs),
(208,747.667,o),
(180.333,756,o),
(159,756,cs),
(151,756,o),
(150,753.333,o),
(150,748,cs),
(150,702.862,o),
(139.68,489.521,o),
(128.5,333,cs),
(113.48,122.727,o),
(107,16.354,o),
(107,14,cs),
(107,-4.667,o),
(128.333,-13,o),
(147,-13,cs),
(153.667,-13,o),
(157,-10.333,o),
(157,-5,cs),
(157,44.333,o),
(184.333,110,o),
(223,178,cs),
(295.128,306.228,o),
(432.489,470,o),
(451,470,cs),
(457,470,o),
(461.167,467.167,o),
(463.5,461.5,cs),
(465.833,455.833,o),
(466.667,442.667,o),
(466,422,cs),
(466,360.482,o),
(444,136.826,o),
(444,63,cs),
(444,51.667,o),
(444.167,42.5,o),
(444.5,35.5,cs),
(444.833,28.5,o),
(445.667,23.333,o),
(447,20,cs),
(452.679,8.643,o),
(486.66,-13,o),
(497,-13,cs),
(539.667,-13,o),
(625,88.333,o),
(657,131,cs),
(659,133,o),
(660,136.333,o),
(660,141,cs)
);
}
);
userData = {
assembly = "PUSHW[ ]	/* 1 value pushed */
93
MDAP[1]	/* MoveDirectAbsPt */
PUSHW[ ]	/* 1 value pushed */
20
MDAP[1]	/* MoveDirectAbsPt */
NPUSHW[ ]	/* 5 values pushed */
74 20 90 20 2
DELTAP2[ ]	/* DeltaExceptionP2 */
NPUSHW[ ]	/* 33 values pushed */
9 20 25 20 41 20 57 20 73 20 89 20 105 20 121 20 137 20 153 20 169 20 185 20 201 20 217 20 233 20 249 20 16
DELTAP1[ ]	/* DeltaExceptionP1 */
NPUSHW[ ]	/* 9 values pushed */
9 20 25 20 41 20 57 20 4
DELTAP2[ ]	/* DeltaExceptionP2 */
PUSHW[ ]	/* 1 value pushed */
93
SRP0[ ]	/* SetRefPoint0 */
PUSHW[ ]	/* 1 value pushed */
45
MDRP[10000]	/* MoveDirectRelPt */
PUSHW[ ]	/* 1 value pushed */
45
MDAP[1]	/* MoveDirectAbsPt */
PUSHW[ ]	/* 1 value pushed */
31
MDRP[10000]	/* MoveDirectRelPt */
PUSHW[ ]	/* 1 value pushed */
31
MDAP[1]	/* MoveDirectAbsPt */
PUSHW[ ]	/* 1 value pushed */
45
SRP0[ ]	/* SetRefPoint0 */
PUSHW[ ]	/* 1 value pushed */
33
MDRP[10000]	/* MoveDirectRelPt */
PUSHW[ ]	/* 1 value pushed */
33
MDAP[1]	/* MoveDirectAbsPt */
PUSHW[ ]	/* 1 value pushed */
45
SRP0[ ]	/* SetRefPoint0 */
PUSHW[ ]	/* 2 values pushed */
51 3
MIRP[10100]	/* MoveIndirectRelPt */
NPUSHW[ ]	/* 33 values pushed */
6 51 22 51 38 51 54 51 70 51 86 51 102 51 118 51 134 51 150 51 166 51 182 51 198 51 214 51 230 51 246 51 16
DELTAP1[ ]	/* DeltaExceptionP1 */
NPUSHW[ ]	/* 9 values pushed */
6 51 22 51 38 51 54 51 4
DELTAP2[ ]	/* DeltaExceptionP2 */
NPUSHW[ ]	/* 5 values pushed */
69 51 85 51 2
DELTAP2[ ]	/* DeltaExceptionP2 */
PUSHW[ ]	/* 3 values pushed */
60 45 51
SRP1[ ]	/* SetRefPoint1 */
SRP2[ ]	/* SetRefPoint2 */
IP[ ]	/* InterpolatePts */
PUSHW[ ]	/* 1 value pushed */
20
SRP0[ ]	/* SetRefPoint0 */
PUSHW[ ]	/* 1 value pushed */
67
MDRP[10000]	/* MoveDirectRelPt */
PUSHW[ ]	/* 1 value pushed */
67
MDAP[1]	/* MoveDirectAbsPt */
PUSHW[ ]	/* 1 value pushed */
20
SRP0[ ]	/* SetRefPoint0 */
PUSHW[ ]	/* 2 values pushed */
74 3
MIRP[10100]	/* MoveIndirectRelPt */
PUSHW[ ]	/* 1 value pushed */
72
MDRP[10000]	/* MoveDirectRelPt */
PUSHW[ ]	/* 1 value pushed */
72
MDAP[1]	/* MoveDirectAbsPt */
PUSHW[ ]	/* 1 value pushed */
74
SRP0[ ]	/* SetRefPoint0 */
PUSHW[ ]	/* 1 value pushed */
82
MDRP[10000]	/* MoveDirectRelPt */
PUSHW[ ]	/* 1 value pushed */
82
MDAP[1]	/* MoveDirectAbsPt */
PUSHW[ ]	/* 1 value pushed */
74
SRP0[ ]	/* SetRefPoint0 */
PUSHW[ ]	/* 1 value pushed */
94
MDRP[11100]	/* MoveDirectRelPt */
SVTCA[0]	/* SetFreedomAndProjectionVectorToAxis */
PUSHW[ ]	/* 1 value pushed */
0
RCVT[ ]	/* ReadCVT */
IF[ ]	/* If */
PUSHW[ ]	/* 1 value pushed */
7
MDAP[1]	/* MoveDirectAbsPt */
ELSE[ ]	/* Else */
PUSHW[ ]	/* 2 values pushed */
7 5
MIAP[0]	/* MoveIndirectAbsPt */
EIF[ ]	/* EndIf */
PUSHW[ ]	/* 1 value pushed */
0
RCVT[ ]	/* ReadCVT */
IF[ ]	/* If */
PUSHW[ ]	/* 1 value pushed */
33
MDAP[1]	/* MoveDirectAbsPt */
ELSE[ ]	/* Else */
PUSHW[ ]	/* 2 values pushed */
33 5
MIAP[0]	/* MoveIndirectAbsPt */
EIF[ ]	/* EndIf */
PUSHW[ ]	/* 4 values pushed */
67 1 23 4
CALL[ ]	/* CallFunction */
PUSHW[ ]	/* 1 value pushed */
7
SRP0[ ]	/* SetRefPoint0 */
PUSHW[ ]	/* 2 values pushed */
82 1
MIRP[10100]	/* MoveIndirectRelPt */
NPUSHW[ ]	/* 33 values pushed */
7 82 23 82 39 82 55 82 71 82 87 82 103 82 119 82 135 82 151 82 167 82 183 82 199 82 215 82 231 82 247 82 16
DELTAP1[ ]	/* DeltaExceptionP1 */
NPUSHW[ ]	/* 9 values pushed */
7 82 23 82 39 82 55 82 4
DELTAP2[ ]	/* DeltaExceptionP2 */
NPUSHW[ ]	/* 5 values pushed */
70 82 86 82 2
DELTAP2[ ]	/* DeltaExceptionP2 */
IUP[0]	/* InterpolateUntPts */
IUP[1]	/* InterpolateUntPts */";
};
width = 651;
}
);
note = h;
unicode = 104;
},
{
glyphname = i;
lastChange = "2025-05-29 09:07:02 +0000";
layers = (
{
layerId = m01;
shapes = (
{
closed = 1;
nodes = (
(210,744.667,o),
(195.667,756,o),
(181,756,cs),
(159.667,756,o),
(137,732.333,o),
(137,699,cs),
(137,675,o),
(151,664,o),
(171,664,cs),
(191,664,o),
(210,688.667,o),
(210,710,cs)
);
},
{
closed = 1;
nodes = (
(321,154.333,o),
(311,170,o),
(307,170,cs),
(305.667,170,o),
(304.5,169.333,o),
(303.5,168,cs),
(302.5,166.667,o),
(301.333,165.333,o),
(300,164,cs),
(265.912,117.13,o),
(192.105,41,o),
(178,41,cs),
(172,41,o),
(167.833,43.833,o),
(165.5,49.5,cs),
(163.167,55.167,o),
(162,68.333,o),
(162,89,cs),
(162,120.287,o),
(168.076,221.83,o),
(174.5,303.5,cs),
(181.48,392.249,o),
(187,482.313,o),
(187,497,cs),
(187,515.667,o),
(160.667,524,o),
(138,524,cs),
(132.667,524,o),
(130,521.333,o),
(130,516,cs),
(130,481.668,o),
(109.92,203.148,o),
(107,63,cs),
(107,51.667,o),
(107,42.5,o),
(107,35.5,cs),
(107,28.5,o),
(107.667,23.333,o),
(109,20,cs),
(114.102,9.796,o),
(146.849,-13,o),
(158,-13,cs),
(199.127,-13,o),
(285.832,88.109,o),
(318,131,cs),
(320,133,o),
(321,136.333,o),
(321,141,cs)
);
}
);
userData = {
assembly = "PUSHW[ ]	/* 4 values pushed */
37 3 32 4
CALL[ ]	/* CallFunction */
PUSHW[ ]	/* 1 value pushed */
32
SRP0[ ]	/* SetRefPoint0 */
PUSHW[ ]	/* 1 value pushed */
6
MDRP[10000]	/* MoveDirectRelPt */
PUSHW[ ]	/* 1 value pushed */
6
MDAP[1]	/* MoveDirectAbsPt */
NPUSHW[ ]	/* 33 values pushed */
6 37 22 37 38 37 54 37 70 37 86 37 102 37 118 37 134 37 150 37 166 37 182 37 198 37 214 37 230 37 246 37 16
DELTAP1[ ]	/* DeltaExceptionP1 */
NPUSHW[ ]	/* 9 values pushed */
6 37 22 37 38 37 54 37 4
DELTAP2[ ]	/* DeltaExceptionP2 */
NPUSHW[ ]	/* 5 values pushed */
69 37 85 37 2
DELTAP2[ ]	/* DeltaExceptionP2 */
SVTCA[0]	/* SetFreedomAndProjectionVectorToAxis */
PUSHW[ ]	/* 1 value pushed */
0
RCVT[ ]	/* ReadCVT */
IF[ ]	/* If */
PUSHW[ ]	/* 1 value pushed */
19
MDAP[1]	/* MoveDirectAbsPt */
ELSE[ ]	/* Else */
PUSHW[ ]	/* 2 values pushed */
19 5
MIAP[0]	/* MoveIndirectAbsPt */
EIF[ ]	/* EndIf */
PUSHW[ ]	/* 3 values pushed */
9 3 3
CALL[ ]	/* CallFunction */
PUSHW[ ]	/* 1 value pushed */
19
SRP0[ ]	/* SetRefPoint0 */
PUSHW[ ]	/* 2 values pushed */
47 1
MIRP[10100]	/* MoveIndirectRelPt */
NPUSHW[ ]	/* 33 values pushed */
7 47 23 47 39 47 55 47 71 47 87 47 103 47 119 47 135 47 151 47 167 47 183 47 199 47 215 47 231 47 247 47 16
DELTAP1[ ]	/* DeltaExceptionP1 */
NPUSHW[ ]	/* 9 values pushed */
7 47 23 47 39 47 55 47 4
DELTAP2[ ]	/* DeltaExceptionP2 */
NPUSHW[ ]	/* 5 values pushed */
70 47 86 47 2
DELTAP2[ ]	/* DeltaExceptionP2 */
IUP[0]	/* InterpolateUntPts */
IUP[1]	/* InterpolateUntPts */";
};
width = 312;
}
);
note = i;
unicode = 105;
},
{
glyphname = j;
lastChange = "2025-05-29 09:07:02 +0000";
layers = (
{
layerId = m01;
shapes = (
{
closed = 1;
nodes = (
(214,744.667,o),
(199.667,756,o),
(185,756,cs),
(163.667,756,o),
(141,732.333,o),
(141,699,cs),
(141,675,o),
(155,664,o),
(175,664,cs),
(195,664,o),
(214,688.667,o),
(214,710,cs)
);
},
{
closed = 1;
nodes = (
(191,515.667,o),
(164.667,524,o),
(142,524,cs),
(136.667,524,o),
(134,521.333,o),
(134,516,cs),
(134,381.333,o),
(130.667,255.333,o),
(124,146,cs),
(114.697,1.808,o),
(98.798,-134.202,o),
(65,-168,cs),
(46.333,-185.333,o),
(20.333,-193,o),
(-9,-193,cs),
(-75.322,-193,o),
(-118.455,-178,o),
(-119,-178,cs),
(-127,-178,o),
(-130,-178.667,o),
(-130,-192,cs),
(-130,-210,o),
(-126.667,-220.667,o),
(-120,-224,cs),
(-106.502,-230.749,o),
(-58.939,-244,o),
(-18,-244,cs),
(24.401,-244,o),
(88.523,-208.964,o),
(121,-159,cs),
(134.333,-137.667,o),
(147.333,-118.667,o),
(158,-76,cs),
(168.667,-33.333,o),
(177.333,31.333,o),
(184,146,cs),
(189.333,242,o),
(191,355.667,o),
(191,497,cs)
);
}
);
userData = {
assembly = "PUSHW[ ]	/* 4 values pushed */
15 3 48 4
CALL[ ]	/* CallFunction */
PUSHW[ ]	/* 1 value pushed */
15
SRP0[ ]	/* SetRefPoint0 */
PUSHW[ ]	/* 1 value pushed */
12
MDRP[10000]	/* MoveDirectRelPt */
PUSHW[ ]	/* 1 value pushed */
12
MDAP[1]	/* MoveDirectAbsPt */
NPUSHW[ ]	/* 5 values pushed */
74 48 90 48 2
DELTAP2[ ]	/* DeltaExceptionP2 */
NPUSHW[ ]	/* 33 values pushed */
9 48 25 48 41 48 57 48 73 48 89 48 105 48 121 48 137 48 153 48 169 48 185 48 201 48 217 48 233 48 249 48 16
DELTAP1[ ]	/* DeltaExceptionP1 */
NPUSHW[ ]	/* 9 values pushed */
9 48 25 48 41 48 57 48 4
DELTAP2[ ]	/* DeltaExceptionP2 */
SVTCA[0]	/* SetFreedomAndProjectionVectorToAxis */
PUSHW[ ]	/* 4 values pushed */
40 1 25 4
CALL[ ]	/* CallFunction */
PUSHW[ ]	/* 3 values pushed */
9 3 3
CALL[ ]	/* CallFunction */
IUP[0]	/* InterpolateUntPts */
IUP[1]	/* InterpolateUntPts */";
};
width = 296;
}
);
note = j;
unicode = 106;
},
{
glyphname = k;
lastChange = "2025-05-29 09:07:02 +0000";
layers = (
{
layerId = m01;
shapes = (
{
closed = 1;
nodes = (
(515,44.333,o),
(508.667,56.333,o),
(496,71,cs),
(476.791,96.611,o),
(366.692,196.875,o),
(326,229,c),
(411.407,269.035,o),
(535,334.946,o),
(535,425,cs),
(535,477,o),
(504,524,o),
(452,524,cs),
(428,524,o),
(382.167,501,o),
(329.5,449,cs),
(276.833,397,o),
(219,316.333,o),
(171,203,c),
(171,231.073,o),
(177.217,289.034,o),
(189.5,461,cs),
(201.705,631.874,o),
(208,694.364,o),
(208,729,cs),
(208,747.667,o),
(180.333,756,o),
(159,756,cs),
(151,756,o),
(150,753.333,o),
(150,748,cs),
(148.018,654.861,o),
(138.363,498.358,o),
(127,312,cs),
(114.99,115.037,o),
(107,15.792,o),
(107,14,cs),
(107,-4.667,o),
(128.333,-13,o),
(147,-13,cs),
(153.667,-13,o),
(157,-10.333,o),
(157,-5,cs),
(157,36.333,o),
(164.667,79.333,o),
(178,122,cs),
(204.667,211.333,o),
(255.167,301.333,o),
(306.5,368,cs),
(357.833,434.667,o),
(412.333,480,o),
(447,480,cs),
(469.667,480,o),
(487,456,o),
(487,436,cs),
(487,360.061,o),
(358.665,273.679,o),
(229,233,c),
(319.631,171.691,o),
(464.002,22.498,o),
(484,0,cs),
(492,-8.667,o),
(497,-13,o),
(499,-13,cs),
(503,-13,o),
(506.667,-8.667,o),
(510,0,cs),
(513.333,10,o),
(515,21.667,o),
(515,35,cs)
);
}
);
userData = {
assembly = "PUSHW[ ]	/* 1 value pushed */
72
MDAP[1]	/* MoveDirectAbsPt */
PUSHW[ ]	/* 1 value pushed */
16
MDAP[1]	/* MoveDirectAbsPt */
NPUSHW[ ]	/* 5 values pushed */
74 16 90 16 2
DELTAP2[ ]	/* DeltaExceptionP2 */
NPUSHW[ ]	/* 33 values pushed */
9 16 25 16 41 16 57 16 73 16 89 16 105 16 121 16 137 16 153 16 169 16 185 16 201 16 217 16 233 16 249 16 16
DELTAP1[ ]	/* DeltaExceptionP1 */
NPUSHW[ ]	/* 9 values pushed */
9 16 25 16 41 16 57 16 4
DELTAP2[ ]	/* DeltaExceptionP2 */
PUSHW[ ]	/* 1 value pushed */
6
MDRP[10000]	/* MoveDirectRelPt */
PUSHW[ ]	/* 1 value pushed */
6
MDAP[1]	/* MoveDirectAbsPt */
PUSHW[ ]	/* 1 value pushed */
72
SRP0[ ]	/* SetRefPoint0 */
PUSHW[ ]	/* 1 value pushed */
39
MDRP[10000]	/* MoveDirectRelPt */
PUSHW[ ]	/* 1 value pushed */
39
MDAP[1]	/* MoveDirectAbsPt */
PUSHW[ ]	/* 1 value pushed */
29
MDRP[10000]	/* MoveDirectRelPt */
PUSHW[ ]	/* 1 value pushed */
29
MDAP[1]	/* MoveDirectAbsPt */
PUSHW[ ]	/* 1 value pushed */
16
SRP0[ ]	/* SetRefPoint0 */
PUSHW[ ]	/* 2 values pushed */
60 4
MIRP[10100]	/* MoveIndirectRelPt */
PUSHW[ ]	/* 3 values pushed */
11 29 60
SRP1[ ]	/* SetRefPoint1 */
SRP2[ ]	/* SetRefPoint2 */
IP[ ]	/* InterpolatePts */
PUSHW[ ]	/* 1 value pushed */
39
SRP0[ ]	/* SetRefPoint0 */
PUSHW[ ]	/* 1 value pushed */
27
MDRP[10000]	/* MoveDirectRelPt */
PUSHW[ ]	/* 1 value pushed */
27
MDAP[1]	/* MoveDirectAbsPt */
PUSHW[ ]	/* 1 value pushed */
39
SRP0[ ]	/* SetRefPoint0 */
PUSHW[ ]	/* 2 values pushed */
45 3
MIRP[10100]	/* MoveIndirectRelPt */
NPUSHW[ ]	/* 33 values pushed */
6 45 22 45 38 45 54 45 70 45 86 45 102 45 118 45 134 45 150 45 166 45 182 45 198 45 214 45 230 45 246 45 16
DELTAP1[ ]	/* DeltaExceptionP1 */
NPUSHW[ ]	/* 9 values pushed */
6 45 22 45 38 45 54 45 4
DELTAP2[ ]	/* DeltaExceptionP2 */
NPUSHW[ ]	/* 5 values pushed */
69 45 85 45 2
DELTAP2[ ]	/* DeltaExceptionP2 */
PUSHW[ ]	/* 3 values pushed */
52 39 45
SRP1[ ]	/* SetRefPoint1 */
SRP2[ ]	/* SetRefPoint2 */
IP[ ]	/* InterpolatePts */
PUSHW[ ]	/* 3 values pushed */
65 29 60
SRP1[ ]	/* SetRefPoint1 */
SRP2[ ]	/* SetRefPoint2 */
IP[ ]	/* InterpolatePts */
PUSHW[ ]	/* 1 value pushed */
60
SRP0[ ]	/* SetRefPoint0 */
PUSHW[ ]	/* 1 value pushed */
73
MDRP[11100]	/* MoveDirectRelPt */
SVTCA[0]	/* SetFreedomAndProjectionVectorToAxis */
PUSHW[ ]	/* 1 value pushed */
0
RCVT[ ]	/* ReadCVT */
IF[ ]	/* If */
PUSHW[ ]	/* 1 value pushed */
4
MDAP[1]	/* MoveDirectAbsPt */
ELSE[ ]	/* Else */
PUSHW[ ]	/* 2 values pushed */
4 5
MIAP[0]	/* MoveIndirectAbsPt */
EIF[ ]	/* EndIf */
PUSHW[ ]	/* 1 value pushed */
0
RCVT[ ]	/* ReadCVT */
IF[ ]	/* If */
PUSHW[ ]	/* 1 value pushed */
29
MDAP[1]	/* MoveDirectAbsPt */
ELSE[ ]	/* Else */
PUSHW[ ]	/* 2 values pushed */
29 5
MIAP[0]	/* MoveIndirectAbsPt */
EIF[ ]	/* EndIf */
PUSHW[ ]	/* 4 values pushed */
57 1 19 4
CALL[ ]	/* CallFunction */
IUP[0]	/* InterpolateUntPts */
IUP[1]	/* InterpolateUntPts */";
};
width = 579;
}
);
note = k;
unicode = 107;
},
{
glyphname = l;
lastChange = "2025-05-29 09:07:02 +0000";
layers = (
{
layerId = m01;
shapes = (
{
closed = 1;
nodes = (
(321,154.333,o),
(311,170,o),
(307,170,cs),
(305.667,170,o),
(304.5,169.333,o),
(303.5,168,cs),
(302.5,166.667,o),
(301.333,165.333,o),
(300,164,cs),
(265.912,117.13,o),
(192.105,41,o),
(178,41,cs),
(172,41,o),
(167.833,43.833,o),
(165.5,49.5,cs),
(163.167,55.167,o),
(162,68.333,o),
(162,89,cs),
(162,150.385,o),
(171.378,266.649,o),
(183,434,cs),
(194.496,599.547,o),
(204,697.728,o),
(204,729,cs),
(204,747.667,o),
(176.333,756,o),
(155,756,cs),
(147,756,o),
(146,753.333,o),
(146,748,cs),
(143.333,609.333,o),
(134.167,470.167,o),
(125.5,349.5,cs),
(117.276,235.003,o),
(108.379,129.214,o),
(107,63,cs),
(107,51.667,o),
(107,42.5,o),
(107,35.5,cs),
(107,28.5,o),
(107.667,23.333,o),
(109,20,cs),
(114.102,9.796,o),
(146.849,-13,o),
(158,-13,cs),
(199.127,-13,o),
(285.832,88.109,o),
(318,131,cs),
(320,133,o),
(321,136.333,o),
(321,141,cs)
);
}
);
userData = {
assembly = "PUSHW[ ]	/* 4 values pushed */
26 3 20 4
CALL[ ]	/* CallFunction */
NPUSHW[ ]	/* 33 values pushed */
6 26 22 26 38 26 54 26 70 26 86 26 102 26 118 26 134 26 150 26 166 26 182 26 198 26 214 26 230 26 246 26 16
DELTAP1[ ]	/* DeltaExceptionP1 */
NPUSHW[ ]	/* 9 values pushed */
6 26 22 26 38 26 54 26 4
DELTAP2[ ]	/* DeltaExceptionP2 */
NPUSHW[ ]	/* 5 values pushed */
69 26 85 26 2
DELTAP2[ ]	/* DeltaExceptionP2 */
SVTCA[0]	/* SetFreedomAndProjectionVectorToAxis */
PUSHW[ ]	/* 1 value pushed */
0
RCVT[ ]	/* ReadCVT */
IF[ ]	/* If */
PUSHW[ ]	/* 1 value pushed */
7
MDAP[1]	/* MoveDirectAbsPt */
ELSE[ ]	/* Else */
PUSHW[ ]	/* 2 values pushed */
7 5
MIAP[0]	/* MoveIndirectAbsPt */
EIF[ ]	/* EndIf */
PUSHW[ ]	/* 2 values pushed */
36 1
MIRP[10100]	/* MoveIndirectRelPt */
NPUSHW[ ]	/* 33 values pushed */
7 36 23 36 39 36 55 36 71 36 87 36 103 36 119 36 135 36 151 36 167 36 183 36 199 36 215 36 231 36 247 36 16
DELTAP1[ ]	/* DeltaExceptionP1 */
NPUSHW[ ]	/* 9 values pushed */
7 36 23 36 39 36 55 36 4
DELTAP2[ ]	/* DeltaExceptionP2 */
NPUSHW[ ]	/* 5 values pushed */
70 36 86 36 2
DELTAP2[ ]	/* DeltaExceptionP2 */
IUP[0]	/* InterpolateUntPts */
IUP[1]	/* InterpolateUntPts */";
};
width = 312;
}
);
note = l;
unicode = 108;
},
{
glyphname = m;
lastChange = "2025-05-29 09:07:02 +0000";
layers = (
{
layerId = m01;
shapes = (
{
closed = 1;
nodes = (
(995,154.333,o),
(985,170,o),
(981,170,cs),
(979.667,170,o),
(978.5,169.333,o),
(977.5,168,cs),
(976.5,166.667,o),
(975.333,165.333,o),
(974,164,cs),
(939.912,117.13,o),
(866.105,41,o),
(852,41,cs),
(846,41,o),
(841.667,43.833,o),
(839,49.5,cs),
(836.333,55.167,o),
(835.333,68.333,o),
(836,89,cs),
(839.326,182.12,o),
(855.589,349.095,o),
(859,448,cs),
(859.667,469.333,o),
(858.333,483.667,o),
(855,491,cs),
(849.498,502.004,o),
(817.756,524,o),
(806,524,cs),
(777.695,524,o),
(721.201,470.853,o),
(655,386.5,cs),
(589.221,302.685,o),
(530.468,206.922,o),
(503,141,c),
(503,149.084,o),
(507.511,197.356,o),
(513.5,286,cs),
(519.086,368.667,o),
(524,430.397,o),
(524,448,cs),
(524,471.333,o),
(522.667,485.667,o),
(520,491,cs),
(514.498,502.004,o),
(482.756,524,o),
(471,524,cs),
(442.695,524,o),
(386.201,470.853,o),
(320,386.5,cs),
(254.221,302.685,o),
(195.468,206.922,o),
(168,141,c),
(168,159.328,o),
(174.037,214.224,o),
(179.5,306,cs),
(185.504,406.861,o),
(191,459.058,o),
(191,497,cs),
(191,515.667,o),
(164.667,524,o),
(142,524,cs),
(136.667,524,o),
(134,521.333,o),
(134,516,cs),
(134,453.379,o),
(128.361,342.149,o),
(120.5,217.5,cs),
(112.055,83.585,o),
(107,15.789,o),
(107,14,cs),
(107,-4.667,o),
(128.333,-13,o),
(147,-13,cs),
(153.667,-13,o),
(157,-10.333,o),
(157,-5,cs),
(157,44.333,o),
(184.333,110,o),
(223,178,cs),
(295.128,306.228,o),
(432.489,470,o),
(451,470,cs),
(457,470,o),
(461,467.167,o),
(463,461.5,cs),
(465,455.833,o),
(466,442.667,o),
(466,422,cs),
(466,376.952,o),
(457.2,221.327,o),
(449,112,c),
(449,112.892,o),
(442,38.897,o),
(442,14,cs),
(442,-4.667,o),
(463.333,-13,o),
(482,-13,cs),
(488.667,-13,o),
(492,-10.333,o),
(492,-5,cs),
(492,44.333,o),
(519.333,110,o),
(558,178,cs),
(630.128,306.228,o),
(767.489,470,o),
(786,470,cs),
(792,470,o),
(796.167,467.167,o),
(798.5,461.5,cs),
(800.833,455.833,o),
(801.667,442.667,o),
(801,422,c),
(801,425.752,o),
(780,190.552,o),
(780,63,cs),
(780,51.667,o),
(780,42.5,o),
(780,35.5,cs),
(780,28.5,o),
(780.667,23.333,o),
(782,20,cs),
(787.679,8.643,o),
(821.66,-13,o),
(832,-13,cs),
(873.127,-13,o),
(959.832,88.109,o),
(992,131,cs),
(994,133,o),
(995,136.333,o),
(995,141,cs)
);
}
);
userData = {
assembly = "PUSHW[ ]	/* 4 values pushed */
81 3 62 4
CALL[ ]	/* CallFunction */
PUSHW[ ]	/* 4 values pushed */
95 3 46 4
CALL[ ]	/* CallFunction */
PUSHW[ ]	/* 4 values pushed */
116 3 20 4
CALL[ ]	/* CallFunction */
NPUSHW[ ]	/* 5 values pushed */
74 20 90 20 2
DELTAP2[ ]	/* DeltaExceptionP2 */
NPUSHW[ ]	/* 33 values pushed */
9 20 25 20 41 20 57 20 73 20 89 20 105 20 121 20 137 20 153 20 169 20 185 20 201 20 217 20 233 20 249 20 16
DELTAP1[ ]	/* DeltaExceptionP1 */
NPUSHW[ ]	/* 9 values pushed */
9 20 25 20 41 20 57 20 4
DELTAP2[ ]	/* DeltaExceptionP2 */
NPUSHW[ ]	/* 33 values pushed */
6 81 22 81 38 81 54 81 70 81 86 81 102 81 118 81 134 81 150 81 166 81 182 81 198 81 214 81 230 81 246 81 16
DELTAP1[ ]	/* DeltaExceptionP1 */
NPUSHW[ ]	/* 9 values pushed */
6 81 22 81 38 81 54 81 4
DELTAP2[ ]	/* DeltaExceptionP2 */
NPUSHW[ ]	/* 5 values pushed */
69 81 85 81 2
DELTAP2[ ]	/* DeltaExceptionP2 */
NPUSHW[ ]	/* 33 values pushed */
6 95 22 95 38 95 54 95 70 95 86 95 102 95 118 95 134 95 150 95 166 95 182 95 198 95 214 95 230 95 246 95 16
DELTAP1[ ]	/* DeltaExceptionP1 */
NPUSHW[ ]	/* 9 values pushed */
6 95 22 95 38 95 54 95 4
DELTAP2[ ]	/* DeltaExceptionP2 */
NPUSHW[ ]	/* 5 values pushed */
69 95 85 95 2
DELTAP2[ ]	/* DeltaExceptionP2 */
PUSHW[ ]	/* 3 values pushed */
102 46 95
SRP1[ ]	/* SetRefPoint1 */
SRP2[ ]	/* SetRefPoint2 */
IP[ ]	/* InterpolatePts */
PUSHW[ ]	/* 1 value pushed */
116
SRP0[ ]	/* SetRefPoint0 */
PUSHW[ ]	/* 1 value pushed */
136
MDRP[11100]	/* MoveDirectRelPt */
SVTCA[0]	/* SetFreedomAndProjectionVectorToAxis */
PUSHW[ ]	/* 1 value pushed */
0
RCVT[ ]	/* ReadCVT */
IF[ ]	/* If */
PUSHW[ ]	/* 1 value pushed */
7
MDAP[1]	/* MoveDirectAbsPt */
ELSE[ ]	/* Else */
PUSHW[ ]	/* 2 values pushed */
7 5
MIAP[0]	/* MoveIndirectAbsPt */
EIF[ ]	/* EndIf */
PUSHW[ ]	/* 1 value pushed */
0
RCVT[ ]	/* ReadCVT */
IF[ ]	/* If */
PUSHW[ ]	/* 1 value pushed */
33
MDAP[1]	/* MoveDirectAbsPt */
ELSE[ ]	/* Else */
PUSHW[ ]	/* 2 values pushed */
33 5
MIAP[0]	/* MoveIndirectAbsPt */
EIF[ ]	/* EndIf */
PUSHW[ ]	/* 1 value pushed */
0
RCVT[ ]	/* ReadCVT */
IF[ ]	/* If */
PUSHW[ ]	/* 1 value pushed */
59
MDAP[1]	/* MoveDirectAbsPt */
ELSE[ ]	/* Else */
PUSHW[ ]	/* 2 values pushed */
59 5
MIAP[0]	/* MoveIndirectAbsPt */
EIF[ ]	/* EndIf */
PUSHW[ ]	/* 4 values pushed */
109 1 23 4
CALL[ ]	/* CallFunction */
PUSHW[ ]	/* 1 value pushed */
23
SRP0[ ]	/* SetRefPoint0 */
PUSHW[ ]	/* 1 value pushed */
49
MDRP[10000]	/* MoveDirectRelPt */
PUSHW[ ]	/* 1 value pushed */
109
SRP0[ ]	/* SetRefPoint0 */
PUSHW[ ]	/* 1 value pushed */
71
MDRP[10000]	/* MoveDirectRelPt */
PUSHW[ ]	/* 1 value pushed */
109
SRP0[ ]	/* SetRefPoint0 */
PUSHW[ ]	/* 1 value pushed */
88
MDRP[10000]	/* MoveDirectRelPt */
PUSHW[ ]	/* 1 value pushed */
7
SRP0[ ]	/* SetRefPoint0 */
PUSHW[ ]	/* 2 values pushed */
124 1
MIRP[10100]	/* MoveIndirectRelPt */
NPUSHW[ ]	/* 33 values pushed */
7 124 23 124 39 124 55 124 71 124 87 124 103 124 119 124 135 124 151 124 167 124 183 124 199 124 215 124 231 124 247 124 16
DELTAP1[ ]	/* DeltaExceptionP1 */
NPUSHW[ ]	/* 9 values pushed */
7 124 23 124 39 124 55 124 4
DELTAP2[ ]	/* DeltaExceptionP2 */
NPUSHW[ ]	/* 5 values pushed */
70 124 86 124 2
DELTAP2[ ]	/* DeltaExceptionP2 */
IUP[0]	/* InterpolateUntPts */
IUP[1]	/* InterpolateUntPts */";
};
width = 986;
}
);
note = m;
unicode = 109;
},
